<svg xmlns="http://www.w3.org/2000/svg" viewBox="0 0 315.65 545.43"><defs><style>.cls-1{fill:#f596a8;}.cls-2{fill:none;stroke:#f596a8;stroke-miterlimit:10;stroke-width:2px;}</style></defs><title>Recurso 5serv1</title><g id="Capa_2" data-name="Capa 2"><g id="Capa_1-2" data-name="Capa 1"><path class="cls-1" d="M65.33,337.58C44.68,331.05,36,342.25,29,351.24c-2.77,3.57-14.77,14.92-28,16.62v14.86A43.67,43.67,0,0,0,23,377C40.62,366.54,43.9,350,60.8,351.91c4.12.48,8.18-.94,9.43-4.9A7.52,7.52,0,0,0,65.33,337.58Z"/><path class="cls-2" d="M22.05,164.53c-4.62-4.13-22.7-26.67-10.56-43.85,3.46-4.9,7.87-12.34,17.86-14.92A7.51,7.51,0,1,0,25.6,91.21,41.77,41.77,0,0,0,1,108.85v54.8c9.19,12.85,20.86,18.15,18.18,32.52-.76,4.08.36,8.22,4.22,9.74a7.5,7.5,0,0,0,9.75-4.22C41.11,181.54,30.54,172.11,22.05,164.53Z"/><path class="cls-2" d="M181,475.3c8-20.15-2.61-29.58-11.1-37.16-4.63-4.13-22.7-26.67-10.56-43.85,3.46-4.89,7.86-12.34,17.86-14.92a7.51,7.51,0,0,0-3.75-14.55,42.23,42.23,0,0,0-27.61,22.88c-6.51,13.14-7.65,29.83-1.23,42.59,9.23,18.34,25.54,22.77,22.42,39.49-.77,4.08.36,8.22,4.22,9.74A7.51,7.51,0,0,0,181,475.3Z"/><path class="cls-1" d="M79.7,238.9a7.51,7.51,0,0,0-11.84,8.18c3,9.3-7.94,14.83-33.61,25.23-3.51,1.41-7.12,2.88-10.78,4.42-11,4.63-18.12,11.8-22.47,20v53.16a7.51,7.51,0,0,0,12.14-8c-.55-1.59-13-39,16.16-51.27,3.58-1.51,7-3.31,10.58-4.34C100.42,268.77,80.81,239.79,79.7,238.9Z"/><path class="cls-2" d="M235.6,136a7.52,7.52,0,0,0-14-3.42c-5,8.43-16.36,3.92-41.19-8.36-3.39-1.69-6.88-3.41-10.46-5.12-33-15.8-59.34,11.53-68.64,28.19a7.51,7.51,0,0,0,13.1,7.33c.83-1.46,20.54-35.61,49.06-22,3.51,1.68,7.13,3,10.28,5C227,171.37,235.67,137.46,235.6,136Z"/><path class="cls-2" d="M1,427.72v3.55a7,7,0,0,0,.37-1.61A7.56,7.56,0,0,0,1,427.72Z"/><path class="cls-2" d="M81.71,306.44a47.44,47.44,0,0,0-5.44-3.72c-20.6-12.1-45.25,11-48.71,16.68a7.51,7.51,0,0,0,12.79,7.89C42.71,323.85,59,310,68.66,315.68,81.14,323,79.51,332,78.41,334.06a7.51,7.51,0,1,0,13.22,7.13C95.82,333.42,96.2,318,81.71,306.44Z"/><path class="cls-2" d="M117.15,492.73a45.23,45.23,0,0,0-5.43-3.72c-20.6-12.1-45.25,11-48.71,16.68a7.51,7.51,0,0,0,12.78,7.89c2.36-3.44,18.66-17.3,28.32-11.62,12.48,7.29,10.84,16.36,9.74,18.39a7.51,7.51,0,1,0,13.23,7.13C131.26,519.71,131.65,504.29,117.15,492.73Z"/><path class="cls-2" d="M200.26,267.35a46.22,46.22,0,0,0-5.26-4c-20-13-45.7,9-49.4,14.51A7.52,7.52,0,0,0,158,286.36c2.5-3.33,19.39-16.46,28.79-10.36,12.15,7.84,10.12,16.83,8.93,18.8a7.52,7.52,0,0,0,12.9,7.72C213.17,294.93,214.23,279.55,200.26,267.35Z"/><path class="cls-2" d="M68.49,412a45.9,45.9,0,0,0,4.2,5.06c16.52,17.26,46.56,1.74,51.42-2.75A7.51,7.51,0,0,0,114,403.26c-3.21,2.66-22.67,11.55-30.41,3.44-10-10.41-6-18.69-4.36-20.34a7.51,7.51,0,1,0-10.78-10.47C62.27,382.23,57.7,397,68.49,412Z"/><path class="cls-1" d="M167.49,243.27a7.43,7.43,0,0,0-4.28-1.63c-14.34-.75-26.33,7.88-44.79,25.15-13.16,12.3-22.86,11.69-29.27,11.3a30.39,30.39,0,0,0-5,0A7.51,7.51,0,1,0,85.78,293c15.19-1.41,25,1.5,42.9-15.23,17.53-16.41,25.73-21.54,33.74-21.11a7.51,7.51,0,0,0,5.07-13.38Z"/><path class="cls-2" d="M252.25,350.65a7.44,7.44,0,0,0-.69-4.53c-6.39-12.86-19.8-19.05-43.92-26.65-17.18-5.4-21.41-14.15-24.22-19.93a30.75,30.75,0,0,0-2.45-4.4,7.51,7.51,0,0,0-12.18,8.79c8.69,12.54,11,22.53,34.34,29.88,22.91,7.2,31.41,11.82,35,19a7.51,7.51,0,0,0,14.14-2.16Z"/><path class="cls-2" d="M39.06,214.94a21.55,21.55,0,0,0-3.56-2.31A7.51,7.51,0,0,0,28.62,226c6.11,3.18,6.43,18.49,5.71,21.86A7.51,7.51,0,0,0,49,251C50.13,245.82,51.35,224.74,39.06,214.94Z"/><path class="cls-2" d="M124.79,353a21.05,21.05,0,0,0-3.55-2.31,7.51,7.51,0,1,0-6.88,13.36c6.11,3.18,6.43,18.49,5.71,21.86a7.51,7.51,0,1,0,14.69,3.12C135.87,383.91,137.08,362.83,124.79,353Z"/><path class="cls-2" d="M274.64,210.05a21.32,21.32,0,0,1,3.69-2.08,7.52,7.52,0,0,1,9.9,3.85,7.44,7.44,0,0,1-3.85,9.9c-6.29,2.81-7.55,18.06-7.05,21.47a7.51,7.51,0,1,1-14.85,2.22C261.69,240.2,261.77,219.08,274.64,210.05Z"/><path class="cls-1" d="M40.41,503.67a21.05,21.05,0,0,1,3.7-2.08,7.51,7.51,0,1,1,6,13.75c-6.29,2.8-7.55,18.06-7,21.47A7.51,7.51,0,1,1,28.25,539C27.47,533.82,27.55,512.7,40.41,503.67Z"/><path class="cls-1" d="M33.45,125.49a22.75,22.75,0,0,0-3.8-1.87A7.51,7.51,0,0,0,20,128a7.44,7.44,0,0,0,4.4,9.67c6.45,2.44,8.56,17.6,8.25,21a7.51,7.51,0,1,0,15,1.38C48.08,154.86,46.81,133.78,33.45,125.49Z"/><path class="cls-2" d="M258.69,311.37a22.2,22.2,0,0,0-4.1-1.07,7.52,7.52,0,0,0-2.32,14.85c6.8,1.1,11.92,15.52,12.3,19a7.51,7.51,0,1,0,14.93-1.67C278.93,337.19,273.44,316.8,258.69,311.37Z"/><path class="cls-2" d="M1,270.71v6.39c.14-.44.28-.91.41-1.41A7.42,7.42,0,0,0,1,270.71Z"/><path class="cls-2" d="M23.94,397.19a7.43,7.43,0,0,0-1.26-2.8c-2.44-3.37-5.6-3.32-9.44-1.74S7,396.79,4.43,396.14A27.28,27.28,0,0,0,1,395.43v14.73q1.51-.5,3.15-1.17c4.73-2,7.19,2.91,16.86-4.12A7.49,7.49,0,0,0,23.94,397.19Z"/><path class="cls-2" d="M3.86,451.14a7.42,7.42,0,0,0-2.39-1.92L1,449v15.88a23.54,23.54,0,0,0,3.74-5.55A7.52,7.52,0,0,0,3.86,451.14Z"/><path class="cls-2" d="M238.09,157.53a7.56,7.56,0,0,0-2.39-1.93c-3.7-1.89-6.5-.42-9.2,2.73s-3.68,6.51-6.27,7.11c-4.13.95-6.81,1.53-10.2,7.67A7.51,7.51,0,0,0,213,183.32c3.63,2,8.15-.79,12.84-6.3,3.32-3.91,7.72-.67,13.15-11.31A7.5,7.5,0,0,0,238.09,157.53Z"/><path class="cls-2" d="M253.16,261a6.62,6.62,0,0,0,1.44-2.26c1.29-3.39-.25-5.68-3.24-7.73s-6-2.57-6.77-4.77c-1.22-3.5-2-5.77-7.63-8.13a6.56,6.56,0,0,0-8.59,3.52c-1.39,3.34,1.46,7,6.69,10.55,3.71,2.52,1.32,6.65,11.07,10.36A6.58,6.58,0,0,0,253.16,261Z"/><path class="cls-1" d="M130.09,177.12a7.21,7.21,0,0,0,0-3.07c-.77-4.08-3.65-5.38-7.79-5.59s-7.4,1.1-9.46-.58c-3.29-2.68-5.39-4.44-12.32-3.35a7.5,7.5,0,0,0-6.25,8.59c.64,4.1,5.62,5.95,12.85,6.27,5.12.22,5.27,5.68,17,3.44A7.49,7.49,0,0,0,130.09,177.12Z"/><path class="cls-2" d="M6.15,90C4.92,86.15,2.54,83.48,3.4,81c1.37-4,2.28-6.6-1.16-12.71A7.71,7.71,0,0,0,1,66.62v33.64a7.62,7.62,0,0,0,2.63-1C7.18,97.14,7.4,94,6.15,90Z"/><path class="cls-2" d="M128.2,446.05a7.41,7.41,0,0,0-1.72,2.54c-1.6,3.83.09,6.5,3.44,9s6.79,3.14,7.59,5.68c1.28,4,2.07,6.67,8.46,9.56a7.5,7.5,0,0,0,9.94-3.75c1.71-3.77-1.44-8.06-7.3-12.29-4.16-3-1.28-7.64-12.32-12.21A7.51,7.51,0,0,0,128.2,446.05Z"/><path class="cls-2" d="M156.9,95.46a7.29,7.29,0,0,0-1.61-2.61c-2.85-3-6-2.55-9.58-.49s-5.63,4.92-8.27,4.62c-4.22-.47-6.94-.82-12.18,3.84a7.52,7.52,0,0,0-.62,10.61c2.76,3.1,8,2,14.2-1.67,4.43-2.58,7.51,1.93,16.17-6.29A7.49,7.49,0,0,0,156.9,95.46Z"/><path class="cls-2" d="M80.09,447.59a7.51,7.51,0,0,0-14.65,1.54c-1.79,19.27-5.17,29.59-18.63,32.47C43,482.41,10,489.93,1,506v15.95a7.49,7.49,0,0,0,8.8,2.29c3.83-1.6,4-5.55,4-9.83,0-7.54,19.38-14.49,36.15-18.08,26.7-5.74,29.12-31.78,30.43-45.77A7.59,7.59,0,0,0,80.09,447.59Z"/><path class="cls-2" d="M314.31,154a7.51,7.51,0,0,0-14.65,1.54C297.87,174.79,294.49,185.1,281,188c-3.82.81-37.55,8.48-46.11,24.88a15.56,15.56,0,0,0-.73,13.7,7.51,7.51,0,0,0,9.83,4c3.82-1.61,4-5.55,4-9.84,0-7.54,19.38-14.49,36.14-18.08,26.7-5.74,29.13-31.78,30.43-45.77A7.34,7.34,0,0,0,314.31,154Z"/><path class="cls-2" d="M222.34,252.68a7.5,7.5,0,0,0-9.25,9.14c.21,1.14.93,22.15,6.75,25.07a7.41,7.41,0,0,0,10.08-3.33c1.36-2.72-1.77-23.65-2.33-25.66A7.49,7.49,0,0,0,222.34,252.68Z"/><path class="cls-1" d="M86.45,32.06a7.44,7.44,0,0,0-4,0,7.52,7.52,0,0,0-5.26,9.14c.22,1.14.94,22.15,6.75,25.07A7.42,7.42,0,0,0,94,62.94c1.37-2.71-1.77-23.64-2.32-25.65A7.52,7.52,0,0,0,86.45,32.06Z"/><path class="cls-2" d="M17,22.94a7.52,7.52,0,0,0,11.89,5.28c1-.63,20.29-9,20.88-15.44A7.43,7.43,0,0,0,43,4.61c-3-.28-21.36,10.28-23,11.53A7.5,7.5,0,0,0,17,22.94Z"/><path class="cls-2" d="M174.47,180.18a6.2,6.2,0,0,0,3.65,10.12c.93.23,16.94,7,21.15,3.63a6.14,6.14,0,0,0,1-8.72c-1.57-2-18.36-6.87-20.06-7.15A6.21,6.21,0,0,0,174.47,180.18Z"/><path class="cls-2" d="M61.14,104.3a7.51,7.51,0,0,0-10.08,8.22c.1,1.16-1.19,22.15,4.32,25.61a7.44,7.44,0,0,0,10.36-2.36c1.61-2.57.49-23.71.13-25.76A7.54,7.54,0,0,0,61.14,104.3Z"/><path class="cls-2" d="M22.38,251.78c-5.11-7.11-5.06-12.86-5-20.14.05-7.13.11-15.21-5-24.3a7.42,7.42,0,0,0-1.87-2.2,7.49,7.49,0,0,0-8.35-.68,7.08,7.08,0,0,0-1.18.82v13.21c1.42,4.16,1.39,8.21,1.35,13-.06,8-.14,17.94,7.83,29a7.51,7.51,0,0,0,12.2-8.77Z"/><path class="cls-2" d="M184.18,336.14a7.51,7.51,0,0,0-2.87,14.46c5.95,2.45,9,6.35,12.86,11.29,4.92,6.3,11,14.15,24.17,17.88a7.52,7.52,0,0,0,4.1-14.46c-8.41-2.39-11.95-6.93-16.43-12.67s-9.36-12-19-15.93A7.26,7.26,0,0,0,184.18,336.14Z"/><path class="cls-2" d="M183,199a7.51,7.51,0,0,0-8.55,12c4.43,4.67,5.61,9.48,7.1,15.58,1.91,7.76,4.27,17.43,14.72,26.21a7.51,7.51,0,1,0,9.67-11.5c-6.7-5.63-8.06-11.22-9.8-18.3-1.7-6.91-3.62-14.76-10.79-22.32A7.48,7.48,0,0,0,183,199Z"/><path class="cls-2" d="M115.84,469a7.51,7.51,0,0,0,.46,14.73c6.35,1,10.2,4.16,15.08,8.11,6.21,5,13.94,11.29,27.58,12a7.51,7.51,0,1,0,.74-15c-8.74-.44-13.21-4.06-18.87-8.64s-11.82-9.57-22.1-11.25A7.19,7.19,0,0,0,115.84,469Z"/><path class="cls-2" d="M13.5,48.91c-5.1-7.1-5.06-12.86-5-20.14s.12-15.2-5-24.3a7.36,7.36,0,0,0-1.86-2.2A7,7,0,0,0,1,1.82V57.24c.11.15.2.3.3.45a7.52,7.52,0,1,0,12.2-8.78Z"/><path class="cls-2" d="M295.27,236.49A7.51,7.51,0,0,0,284,246c3.14,5.61,3.1,10.56,3,16.84-.06,8-.14,17.94,7.83,29a7.52,7.52,0,1,0,12.2-8.78c-5.11-7.1-5.06-12.85-5-20.14.06-7.12.12-15.2-5-24.29A7.43,7.43,0,0,0,295.27,236.49Z"/><path class="cls-2" d="M203.19,204.88a7.51,7.51,0,0,0,13.48,6c3.69-5.26,8.16-7.38,13.83-10.06,7.23-3.42,16.22-7.67,22.75-19.67A7.52,7.52,0,1,0,240,174c-4.18,7.68-9.38,10.14-16,13.25-6.43,3.05-13.74,6.51-19.71,15.05A7.36,7.36,0,0,0,203.19,204.88Z"/><path class="cls-2" d="M16,464.55a7.5,7.5,0,0,0-10.18,3A25.69,25.69,0,0,1,1,474v18.1a40.56,40.56,0,0,0,18-17.35A7.52,7.52,0,0,0,16,464.55Z"/><path class="cls-1" d="M30.25,67.54s-7.34-6.9-13.11.45,5.19,12.32,5.19,12.32c11.5,7.13,30.73,19.1,53.2,1.47A7.51,7.51,0,1,0,66.26,70C53.12,80.3,43.44,75.73,30.25,67.54Z"/><path class="cls-2" d="M163.8,323.58s7.49-6.74.64-13.1-12.71,4.16-12.71,4.16c-8,10.87-21.56,29.05-5.83,52.9a7.51,7.51,0,1,0,12.54-8.28C149.22,345.33,154.57,336.05,163.8,323.58Z"/><path class="cls-2" d="M65.08,158.73s-8.93,4.67-3.87,12.53,13.33-.86,13.33-.86c10.51-8.52,28.12-22.76,18.84-49.78a7.52,7.52,0,0,0-14.22,4.89C84.63,141.31,77.13,149,65.08,158.73Z"/><path class="cls-2" d="M67.15,432a6.82,6.82,0,1,0-5.66-12.42c-23.61,10.74-22,31.26-21.07,43.52,0,0-.64,10.92,7.77,9.33S54,462,54,462C53,448,53.31,438.23,67.15,432Z"/><path class="cls-2" d="M31.9,35.93s-10.07.06-9.19,9.36S35,50.64,35,50.64C48.21,47.88,70.39,43.3,74.52,15a7.51,7.51,0,0,0-14.87-2.18C57.26,29.41,47.1,32.77,31.9,35.93Z"/><path class="cls-1" d="M79,186.07a7.49,7.49,0,0,0-5.35-1.6c-5,.44-19.91-1.17-24.33,14.25-3.07,10.76,8.74,19.87,17.58,25.71a7.51,7.51,0,0,0,8.26-12.55c-5.51-3.62-11.56-5.59-9.79-10.1s7.46-2.15,9.63-2.35a7.51,7.51,0,0,0,4-13.36Z"/><path class="cls-2" d="M269.33,305.41a7.46,7.46,0,0,0,4.21-3.66c2.28-4.44,11.62-16.22.93-28.18-7.46-8.34-21.47-3.22-31.12,1.14a7.51,7.51,0,1,0,6.2,13.68c6-2.72,10.9-6.79,13.77-2.88s-2.17,7.45-3.15,9.39a7.51,7.51,0,0,0,9.16,10.51Z"/><path class="cls-2" d="M113.52,76a7.51,7.51,0,0,0-5.34-1.61c-5,.44-19.92-1.16-24.33,14.25-3.08,10.77,8.73,19.88,17.57,25.72a7.51,7.51,0,0,0,8.27-12.55c-5.51-3.63-11.57-5.59-9.79-10.1s7.46-2.15,9.62-2.36a7.51,7.51,0,0,0,4-13.35Z"/><path class="cls-2" d="M133.34,300.69a7.45,7.45,0,0,0-5.34-1.6c-5,.44-19.92-1.17-24.33,14.25-3.08,10.77,8.73,19.88,17.57,25.71a7.51,7.51,0,1,0,8.26-12.55c-5.5-3.62-11.56-5.59-9.78-10.1s7.46-2.14,9.62-2.35a7.52,7.52,0,0,0,4-13.36Z"/><path class="cls-1" d="M121,447.83a7.41,7.41,0,0,0-3.38-4.44c-4.28-2.57-15.43-12.65-28.06-2.75-8.81,6.9-4.6,21.21-.88,31.12a7.51,7.51,0,1,0,14.06-5.3c-2.33-6.17-6.07-11.31-2-13.92s7.29,2.64,9.16,3.75A7.51,7.51,0,0,0,121,447.83Z"/><path class="cls-2" d="M145,195a7.51,7.51,0,0,0-5,2.51c-3.32,3.74-15.28,12.83-7.89,27.07,5.15,9.94,20,8.44,30.43,6.62a7.52,7.52,0,0,0-2.62-14.8c-6.49,1.15-12.24,3.88-14.05-.62s4-6.68,5.38-8.32A7.52,7.52,0,0,0,145,195Z"/><path class="cls-2" d="M101.23,237c.22,9-3,17.3-4.27,22.72-1.7,7.05,4.17,13.37,10.86,7.28,8.34-7.57,11.6-30.35,6.59-46.66s-11-31.8-17.67-32.05-10.29,7.63-2.59,21.31S101.05,229.63,101.23,237Z"/><path class="cls-2" d="M29.33,417.08c-5,7.5-12.4,12.43-16.58,16.11C7.3,438,8.45,446.51,17.43,445.4c11.18-1.39,27-18.12,32.27-34.34s9.37-32.3,4-36.37-12.82.3-14.41,15.93S33.43,411,29.33,417.08Z"/><path class="cls-2" d="M196.33,407.36c-8.78,2.09-17.55.69-23.11.55-7.26-.2-12.21,6.85-4.88,12.13,9.15,6.59,32.11,5,47-3.24s28.83-17.33,27.68-23.94-9.6-8.48-21.39,1.89S203.49,405.66,196.33,407.36Z"/><path class="cls-2" d="M173.12,163.73c8.61,2.72,15.41,8.41,20.12,11.39,6.12,3.89,14,.38,10.4-7.92-4.47-10.35-25-20.79-42-21.33s-33.64.09-36.05,6.36,3.9,12.21,19.34,9.35S166.1,161.52,173.12,163.73Z"/><path class="cls-2" d="M191,383c-7.08,3.81-3.29,10.91,1.41,13.3s9,2.24,12.18-2.46S203.56,376.27,191,383Z"/><path class="cls-2" d="M221.65,302.57c-7.08,3.8-3.29,10.9,1.41,13.29s9,2.24,12.17-2.46S234.25,295.81,221.65,302.57Z"/><path class="cls-2" d="M85.81,358.94c-7.08,3.8-3.29,10.91,1.41,13.29s9,2.24,12.17-2.45S98.41,352.18,85.81,358.94Z"/><path class="cls-2" d="M92,387.11c-7.08,3.8-3.29,10.91,1.41,13.29s9,2.24,12.17-2.46S104.6,380.35,92,387.11Z"/><path class="cls-2" d="M120.44,423.68c-5.06,2.72-2.36,7.79,1,9.49s6.44,1.6,8.69-1.75S129.43,418.85,120.44,423.68Z"/><path class="cls-1" d="M27.75,451.47c-4.85-3.05-7.93,1.81-7.75,5.57s1.79,6.39,5.81,6.69S36.39,456.91,27.75,451.47Z"/><path class="cls-2" d="M150.48,175.5c-7.08,3.8-3.29,10.9,1.41,13.29s9,2.24,12.17-2.46S163.09,168.73,150.48,175.5Z"/><path class="cls-2" d="M217.85,223.82c-5.57-1.95-7.54,3.63-6.51,7.36s3.26,6,7.37,5.37S227.76,227.3,217.85,223.82Z"/><path class="cls-2" d="M48.05,59.12c-2.57,5.31,2.75,7.9,6.57,7.29s6.33-2.57,6.17-6.72S52.62,49.66,48.05,59.12Z"/><path class="cls-2" d="M95.33,511.31c-5.87-2.49-8.38,3.39-7.52,7.49s3.11,6.7,7.58,6.31S105.79,515.74,95.33,511.31Z"/></g></g></svg>