<svg xmlns="http://www.w3.org/2000/svg" viewBox="0 0 434.94 434.94"><defs><style>.cls-1{fill:#ec6fa6;}.cls-2{fill:none;stroke:#fff;stroke-miterlimit:10;stroke-width:8.41px;}</style></defs><title>Recurso 8hey</title><g id="Capa_2" data-name="Capa 2"><g id="Capa_1-2" data-name="Capa 1"><circle class="cls-1" cx="217.47" cy="217.47" r="217.47"/><path class="cls-2" d="M189.82,199l-22.2-43.55a13.8,13.8,0,0,0-4.68-5.3,12.48,12.48,0,0,0-3-1.55,12.11,12.11,0,0,0-9.73.51c-6.15,3.14-8.43,11.13-5.05,17.77l22.21,43.55"/><path class="cls-2" d="M234.76,176.13l-18.64-36.56-3.57-7a14,14,0,0,0-7.64-6.84,12.15,12.15,0,0,0-9.75.51,12.48,12.48,0,0,0-6.62,11,13.94,13.94,0,0,0,1.55,6.79l22.2,43.56"/><path class="cls-2" d="M243.35,193l-24.17-47.39a13.33,13.33,0,0,1-1.43-6.85,13.51,13.51,0,0,1,25.53-5.44l15.58,30.55"/><path class="cls-2" d="M220.88,204.43,187,138l-4.42-8.67a14,14,0,0,0-7.64-6.83,12.21,12.21,0,0,0-9.74.52c-6.17,3.14-8.46,11.14-5.09,17.76l4.38,8.59,33.9,66.49"/><path class="cls-2" d="M258.86,163.84l30.27,59.37a51.25,51.25,0,0,1-67.5,69.7s-.08,0-.11,0l-72.73-28.7A13.53,13.53,0,0,1,158.73,239l29.09,11.48-20.41-40"/></g></g></svg>