<svg xmlns="http://www.w3.org/2000/svg" viewBox="0 0 288.59 612.95"><defs><style>.cls-1{fill:#41c5f3;}</style></defs><title>Recurso 6puntos</title><g id="Capa_2" data-name="Capa 2"><g id="Capa_1-2" data-name="Capa 1"><path class="cls-1" d="M26.05,411.81c.08-7.05.18-14.1.26-21.15.12-9.11-14-8.23-14.15.88q-.15,10.56-.28,21.14c-.12,9.12,14.05,8.23,14.17-.87Z"/><path class="cls-1" d="M88.63,371.28q.16-13,.34-26.08c.14-11.25-17.34-10.15-17.47,1.07q-.18,13.05-.33,26.09C71,383.6,88.49,382.5,88.63,371.28Z"/><path class="cls-1" d="M81.54,506.49q.19-15.58.4-31.16c.17-13.44-20.7-12.13-20.88,1.28q-.2,15.58-.4,31.16c-.16,13.44,20.71,12.13,20.88-1.28Z"/><path class="cls-1" d="M51.27,151.34q.27-21.3.54-42.63c.24-18.39-28.31-16.59-28.56,1.76q-.26,21.32-.54,42.63c-.22,18.39,28.33,16.6,28.56-1.76Z"/><path class="cls-1" d="M165.74,54.06q.25-20.73.53-41.48c.23-17.89-27.55-16.14-27.79,1.71Q138.23,35,138,55.77c-.24,17.89,27.56,16.15,27.78-1.71Z"/><path class="cls-1" d="M21.26,66.87q.21-15.86.41-31.73C21.84,21.45.59,22.78.41,36.45Q.22,52.32,0,68.18c-.17,13.69,21.09,12.35,21.26-1.31Z"/><path class="cls-1" d="M23.74,290q.18-15.87.4-31.74c.17-13.69-21.09-12.36-21.26,1.31q-.21,15.87-.41,31.73C2.3,305,23.56,303.69,23.74,290Z"/><path class="cls-1" d="M100.8,247.8q.2-15.87.41-31.73c.17-13.69-21.09-12.36-21.26,1.3q-.21,15.87-.41,31.74c-.17,13.69,21.09,12.36,21.26-1.31Z"/><path class="cls-1" d="M152.26,607.2c.07-5.55.14-11.12.22-16.67.08-7.2-11.09-6.49-11.19.68-.06,5.57-.13,11.12-.2,16.68-.1,7.2,11.08,6.5,11.17-.69Z"/><path class="cls-1" d="M167,431.59q.15-12,.31-24.06c.13-10.38-16-9.37-16.12,1l-.3,24.06c-.14,10.37,16,9.36,16.11-1Z"/><path class="cls-1" d="M179.88,254.4l.39-30.72c.18-13.26-20.41-12-20.58,1.26l-.39,30.73c-.17,13.26,20.42,12,20.58-1.27Z"/><path class="cls-1" d="M146.67,153.08q.18-13.19.34-26.37c.14-11.38-17.52-10.27-17.66,1.08q-.18,13.19-.35,26.37c-.14,11.38,17.52,10.27,17.67-1.08Z"/><path class="cls-1" d="M213.43,448.08c.08-7.05.18-14.1.26-21.15.12-9.12-14-8.23-14.15.88q-.15,10.56-.28,21.14c-.12,9.12,14.05,8.23,14.17-.87Z"/><path class="cls-1" d="M276,407.55q.17-13.05.34-26.08c.14-11.25-17.33-10.15-17.47,1.07l-.33,26.08c-.14,11.25,17.32,10.15,17.46-1.07Z"/><path class="cls-1" d="M268.92,542.76q.19-15.59.4-31.17c.18-13.43-20.7-12.13-20.88,1.29q-.19,15.58-.4,31.16c-.16,13.44,20.71,12.13,20.88-1.28Z"/><path class="cls-1" d="M238.65,187.61l.54-42.63c.24-18.39-28.31-16.6-28.55,1.76l-.54,42.63c-.23,18.39,28.32,16.59,28.55-1.76Z"/><path class="cls-1" d="M208.64,103.14q.21-15.87.41-31.74c.17-13.69-21.08-12.35-21.26,1.31q-.19,15.87-.41,31.74c-.17,13.69,21.09,12.35,21.26-1.31Z"/><path class="cls-1" d="M211.12,326.29q.18-15.87.4-31.73c.17-13.69-21.09-12.36-21.26,1.3q-.21,15.88-.41,31.74c-.17,13.69,21.09,12.36,21.27-1.31Z"/><path class="cls-1" d="M288.19,284.07q.18-15.87.4-31.73c.17-13.69-21.09-12.36-21.26,1.3q-.21,15.87-.41,31.74c-.17,13.68,21.09,12.35,21.27-1.31Z"/></g></g></svg>