<svg xmlns="http://www.w3.org/2000/svg" xmlns:xlink="http://www.w3.org/1999/xlink" viewBox="0 0 1083.62 1079.42"><defs><style>.cls-1,.cls-3{fill:none;}.cls-2{clip-path:url(#clip-path);}.cls-3{stroke:#ffe815;stroke-miterlimit:10;stroke-width:5px;}</style><clipPath id="clip-path" transform="translate(165.07 205.63)"><circle class="cls-1" cx="337.14" cy="337.14" r="337.14"/></clipPath></defs><title>Recurso 7circulo</title><g id="Capa_2" data-name="Capa 2"><g id="Capa_1-2" data-name="Capa 1"><g class="cls-2"><line class="cls-3" x1="1.71" y1="526.23" x2="592.55" y2="1077.6"/><line class="cls-3" x1="23.04" y1="503.36" x2="613.88" y2="1054.73"/><line class="cls-3" x1="44.38" y1="480.5" x2="635.22" y2="1031.87"/><line class="cls-3" x1="65.71" y1="457.64" x2="656.55" y2="1009.01"/><line class="cls-3" x1="87.04" y1="434.78" x2="677.89" y2="986.15"/><line class="cls-3" x1="108.38" y1="411.92" x2="699.22" y2="963.29"/><line class="cls-3" x1="129.71" y1="389.05" x2="720.55" y2="940.42"/><line class="cls-3" x1="151.05" y1="366.19" x2="741.89" y2="917.56"/><line class="cls-3" x1="172.38" y1="343.33" x2="763.22" y2="894.7"/><line class="cls-3" x1="193.72" y1="320.47" x2="784.56" y2="871.84"/><line class="cls-3" x1="215.05" y1="297.61" x2="805.89" y2="848.98"/><line class="cls-3" x1="236.39" y1="274.74" x2="827.23" y2="826.11"/><line class="cls-3" x1="257.72" y1="251.88" x2="848.56" y2="803.25"/><line class="cls-3" x1="279.06" y1="229.02" x2="869.9" y2="780.39"/><line class="cls-3" x1="300.39" y1="206.16" x2="891.23" y2="757.53"/><line class="cls-3" x1="321.73" y1="183.3" x2="912.57" y2="734.67"/><line class="cls-3" x1="343.06" y1="160.43" x2="933.9" y2="711.8"/><line class="cls-3" x1="364.4" y1="137.57" x2="955.24" y2="688.94"/><line class="cls-3" x1="385.73" y1="114.71" x2="976.57" y2="666.08"/><line class="cls-3" x1="405.73" y1="93.28" x2="996.57" y2="644.65"/><line class="cls-3" x1="427.07" y1="70.41" x2="1017.91" y2="621.78"/><line class="cls-3" x1="448.4" y1="47.55" x2="1039.24" y2="598.92"/><line class="cls-3" x1="469.74" y1="24.69" x2="1060.58" y2="576.06"/><line class="cls-3" x1="491.07" y1="1.83" x2="1081.91" y2="553.2"/></g></g></g></svg>