<?xml version="1.0" standalone="no"?>
<!DOCTYPE svg PUBLIC "-//W3C//DTD SVG 1.1//EN" "http://www.w3.org/Graphics/SVG/1.1/DTD/svg11.dtd" >
<svg xmlns="http://www.w3.org/2000/svg" xmlns:xlink="http://www.w3.org/1999/xlink" version="1.1">
<metadata>
Created by FontForge 20190801 at Thu Mar  3 13:21:14 2022
 By www-data
Copyright 2016 The Fredoka Project Authors (https://github.com/hafontia/Fredoka-One)
</metadata>
<defs>
<font id="FredokaMedium" horiz-adv-x="0" >
  <font-face 
    font-family="FredokaMedium"
    font-weight="500"
    font-stretch="normal"
    units-per-em="1000"
    panose-1="0 0 0 0 0 0 0 0 0 0"
    ascent="800"
    descent="-200"
    x-height="483"
    cap-height="689"
    bbox="-101 -243 1161 975"
    underline-thickness="50"
    underline-position="-125"
    unicode-range="U+0020-FB4B"
  />
<missing-glyph horiz-adv-x="543" 
d="M50 39v624h443v-624h-443zM103 92h337v518h-337v-518z" />
    <glyph glyph-name="fi" unicode="fi" horiz-adv-x="618" 
d="M168 -10q-27 0 -39.5 8t-15.5 22.5t-3 30.5v486q0 37 10 68.5t32 54.5t57 36.5t85 13.5q17 0 30.5 -3.5t22 -15.5t8.5 -41q0 -27 -8.5 -40t-22.5 -16t-31 -3t-29.5 -1.5t-20 -6.5t-11 -16t-3.5 -28v-490q0 -16 -3.5 -29.5t-16.5 -21.5t-41 -8zM69 473l103 -1l138 4
q17 0 30.5 -3.5t21.5 -16t8 -40.5q0 -26 -8 -39t-21 -16.5t-30 -3.5l-134 2l-111 -1q-25 1 -34.5 14.5t-9.5 44.5q0 29 11.5 42.5t35.5 13.5zM496 -10q-27 0 -40 8.5t-16 22t-3 30.5v372q0 16 3.5 29.5t16 21.5t40.5 8t40.5 -8t15.5 -22t3 -31v-371q0 -17 -3 -30.5
t-15.5 -21.5t-41.5 -8zM496 579q-29 0 -42.5 8.5t-17 23.5t-3.5 33q0 19 3.5 33t17.5 22.5t43 8.5q30 0 43 -9t17 -23.5t4 -33.5q0 -17 -4 -32t-17 -23t-44 -8z" />
    <glyph glyph-name="fl" unicode="fl" horiz-adv-x="686" 
d="M168 -10q-27 0 -39.5 8t-15.5 22.5t-3 30.5v486q0 37 10 68.5t32 54.5t57 36.5t85 13.5q17 0 30.5 -3.5t22 -15.5t8.5 -41q0 -27 -8.5 -40t-22.5 -16t-31 -3t-29.5 -1.5t-20 -6.5t-11 -16t-3.5 -28v-490q0 -16 -3.5 -29.5t-16.5 -21.5t-41 -8zM69 473l103 -1l138 4
q17 0 30.5 -3.5t21.5 -16t8 -40.5q0 -26 -8 -39t-21 -16.5t-30 -3.5l-134 2l-111 -1q-25 1 -34.5 14.5t-9.5 44.5q0 29 11.5 42.5t35.5 13.5zM608 -10q-37 0 -65.5 5t-49 17t-33.5 32.5t-19.5 50.5t-6.5 72v482q0 17 3.5 30.5t16 22t40.5 8.5t40.5 -8t16 -21.5t3.5 -30.5
v-478q0 -19 2.5 -31.5t9 -20t17 -10.5t25.5 -3q13 0 23.5 -3t17 -15t6.5 -39q0 -28 -6.5 -41t-17.5 -16t-23 -3z" />
    <glyph glyph-name="f_f" unicode="ff" horiz-adv-x="676" 
d="M167 -10q-27 0 -39.5 8.5t-16 22.5t-3.5 31v307l-43 -2q-25 0 -35 14t-10 46q0 31 11 45t36 14l41 -2v63q0 37 10 68.5t32.5 55t57.5 36.5t85 13q16 0 30 -3t22 -15.5t8 -40.5t-8.5 -40.5t-22 -15.5t-30.5 -3q-24 0 -38 -3.5t-20 -14.5t-6 -35v-66q21 1 43.5 2t46.5 1
q17 0 39.5 -0.5t43.5 -1.5v63q0 37 10 68.5t32 55t57 36.5t85 13q16 0 30 -3t22 -15.5t8 -40.5t-8 -40.5t-22 -15.5t-31 -3q-24 0 -38 -3.5t-20 -14.5t-6 -35v-66l80 3q17 0 30.5 -3t22 -15.5t8.5 -40.5q0 -27 -8 -39.5t-21.5 -16.5t-30.5 -4q-15 1 -38 1.5t-43 1.5v-311
q0 -16 -3.5 -29.5t-16.5 -21.5t-41 -8q-27 0 -39.5 8.5t-15.5 22.5t-3 31v307q-9 0 -24 -0.5t-30.5 -1t-26.5 -0.5q-14 0 -42 1t-50 2v-311q0 -16 -3.5 -29.5t-16.5 -21.5t-41 -8z" />
    <glyph glyph-name="f_f_i" unicode="ffi" horiz-adv-x="893" 
d="M167 -10q-27 0 -39.5 8.5t-16 22.5t-3.5 31v307l-43 -2q-25 0 -35 14t-10 46q0 31 11 45t36 14l41 -2v63q0 37 10 68.5t32.5 55t57.5 36.5t85 13q16 0 30 -3t22 -15.5t8 -40.5t-8.5 -40.5t-22 -15.5t-30.5 -3q-24 0 -38 -3.5t-20 -14.5t-6 -35v-66q21 1 43.5 2t46.5 1
q17 0 39.5 -0.5t43.5 -1.5v63q0 37 10 68.5t32 55t57 36.5t85 13q16 0 30 -3t22 -15.5t8 -40.5t-8 -40.5t-22 -15.5t-31 -3q-24 0 -38 -3.5t-20 -14.5t-6 -35v-66l80 3q17 0 30.5 -3t22 -15.5t8.5 -40.5q0 -27 -8 -39.5t-21.5 -16.5t-30.5 -4q-15 1 -38 1.5t-43 1.5v-311
q0 -16 -3.5 -29.5t-16.5 -21.5t-41 -8q-27 0 -39.5 8.5t-15.5 22.5t-3 31v307q-9 0 -24 -0.5t-30.5 -1t-26.5 -0.5q-14 0 -42 1t-50 2v-311q0 -16 -3.5 -29.5t-16.5 -21.5t-41 -8zM777 -10q-28 0 -40.5 8.5t-15.5 22t-3 29.5v371q0 17 3 30.5t16 21.5t41 8t40 -8.5t15 -22
t3 -30.5v-371q0 -16 -3 -29.5t-15.5 -21.5t-40.5 -8zM777 577q-30 0 -43.5 9t-17 24t-3.5 32q0 19 4 33t17.5 22.5t43.5 8.5q29 0 42.5 -9t17 -23.5t3.5 -33.5q0 -17 -4 -31.5t-17 -23t-43 -8.5z" />
    <glyph glyph-name="f_t" unicode="ft" horiz-adv-x="673" 
d="M167 -10q-27 0 -39.5 8.5t-16 22.5t-3.5 31v307l-43 -2q-25 0 -35 14t-10 46q0 31 11 45t36 14l41 -2v63q0 37 10 68.5t32.5 55t57.5 36.5t85 13q16 0 30 -3t22 -15.5t8 -40.5t-8.5 -40.5t-22 -15.5t-30.5 -3q-24 0 -38 -3.5t-20 -14.5t-6 -35v-66q18 1 43.5 1.5
t47.5 1.5q19 0 40 -1t35 -1v115q0 18 3.5 31t16 20.5t39.5 7.5q28 0 40.5 -8t16 -21.5t3.5 -29.5v-116l80 3q17 0 30.5 -3.5t21.5 -16t8 -40.5t-8 -40.5t-21.5 -15.5t-29.5 -3l-81 2v-190q0 -29 6 -42.5t20 -18t38 -4.5q19 0 32.5 -3t21 -14.5t7.5 -37.5q0 -28 -8.5 -40.5
t-22.5 -15.5t-30 -3q-61 0 -102 19.5t-61 58.5t-20 97v194q-9 0 -23.5 -0.5t-28.5 -1t-23 -0.5q-20 1 -46.5 1.5t-44.5 1.5v-311q0 -16 -3.5 -29.5t-16.5 -21.5t-41 -8z" />
    <glyph glyph-name="j_j" unicode="jj" horiz-adv-x="461" 
d="M252 -212q-15 0 -28.5 3.5t-22 15.5t-8.5 40q0 20 5.5 32.5t17 19t28.5 6.5q16 0 28 6.5t18.5 29t6.5 67.5v415q0 16 3.5 29.5t16 21.5t40.5 8q27 0 39.5 -8.5t15.5 -22t3 -30.5v-415q0 -73 -19.5 -121.5t-56 -72.5t-87.5 -24zM355 577q-29 0 -42.5 9t-17 24t-3.5 32
q0 18 3.5 32.5t17.5 22.5t43 8t42.5 -8.5t17 -23t3.5 -33.5q0 -17 -3.5 -31.5t-17 -23t-43.5 -8.5zM-22 -212q-15 0 -28.5 3.5t-22 16t-8.5 39.5q0 26 8 38.5t22 16t30 3.5q25 0 48.5 7.5t38.5 29.5t15 67v415q0 16 3.5 29t16 21t40.5 8q27 0 39 -8t15.5 -22t3.5 -30v-416
q0 -55 -18.5 -96t-49.5 -68t-70.5 -40.5t-82.5 -13.5zM139 578q-29 0 -42.5 8.5t-17 23.5t-3.5 33t3.5 32t17.5 22.5t43 8.5t42.5 -9t17 -23.5t3.5 -32.5t-4 -32.5t-17 -22.5t-43 -8z" />
    <glyph glyph-name="l_l" unicode="ll" horiz-adv-x="546" 
d="M460 -9q-35 0 -62.5 7t-48.5 21.5t-35 35.5t-21 49.5t-7 63.5v482q0 17 3 30.5t16 21.5t41 8q27 0 40 -8t16.5 -21.5t3.5 -29.5v-486q0 -14 3 -24t9.5 -17t17 -10t24.5 -3q23 0 36 -6t19 -19t6 -35q0 -21 -6.5 -34.5t-20 -19.5t-34.5 -6zM207 -9q-33 0 -59 6.5t-45 20.5
t-31.5 35t-18.5 49.5t-6 65.5v482q0 17 3 30.5t16 21.5t40 8q28 0 40.5 -8t16 -21.5t3.5 -29.5v-486q0 -19 5.5 -31t14.5 -17.5t21 -5.5q19 0 30 -6t15.5 -19t4.5 -35q0 -21 -5 -34.5t-16 -19.5t-29 -6z" />
    <glyph glyph-name="t_t" unicode="tt" horiz-adv-x="666" 
d="M285 -10q-63 0 -102.5 19t-58 58t-18.5 98v194l-44 -2q-24 0 -34 14t-10 46q0 31 11 45t36 14l41 -2v115q0 18 3.5 31t16 20.5t39.5 7.5q28 0 40.5 -8t16 -21.5t3.5 -29.5v-115q14 1 37.5 1t42.5 1q22 0 47 -0.5t38 -0.5v114q0 18 3 31t15.5 20.5t40.5 7.5q27 0 39.5 -8
t16 -21.5t3.5 -29.5v-116l81 3q17 0 30.5 -3.5t21.5 -16t8 -40.5t-8 -40.5t-21.5 -15.5t-29.5 -3l-82 2v-190q0 -29 6 -42.5t20.5 -18t38.5 -4.5q19 0 32.5 -3t21 -14.5t7.5 -37.5q0 -28 -8.5 -40.5t-22.5 -15.5t-30 -3q-63 0 -103.5 19t-60 58t-19.5 98v194
q-4 0 -18.5 -0.5t-32.5 -1t-31 -0.5q-18 0 -42.5 0.5t-40.5 1.5v-190q0 -29 5 -42.5t18 -18t37 -4.5q19 0 32.5 -3t20.5 -14.5t7 -37.5q0 -28 -8.5 -40.5t-22 -15.5t-29.5 -3z" />
    <glyph glyph-name=".notdef" horiz-adv-x="543" 
d="M50 39v624h443v-624h-443zM103 92h337v518h-337v-518z" />
    <glyph glyph-name=".null" 
 />
    <glyph glyph-name="nonmarkingreturn" horiz-adv-x="333" 
 />
    <glyph glyph-name="space" unicode=" " horiz-adv-x="248" 
 />
    <glyph glyph-name="exclam" unicode="!" horiz-adv-x="237" 
d="M119 203q-28 0 -41 7.5t-16 20t-3 27.5v377q0 15 3 28t16 20.5t41 7.5t40.5 -7.5t16 -20.5t3.5 -28v-376q0 -16 -3.5 -28.5t-16 -20t-40.5 -7.5zM119 -10q-40 0 -53.5 15t-13.5 52q0 18 4 33.5t18 24.5t45 9q40 0 53 -15t13 -52q0 -18 -3.5 -33.5t-17.5 -24.5t-45 -9z
" />
    <glyph glyph-name="quotedbl" unicode="&#x22;" horiz-adv-x="356" 
d="M257 411q-12 0 -21 13.5t-16 35.5t-11.5 49.5t-7 55t-2.5 50.5q0 17 2.5 33t15 26.5t42.5 10.5q29 0 40.5 -11t14 -27t2.5 -32q0 -23 -2 -50.5t-6.5 -55t-11.5 -49.5t-16.5 -35.5t-22.5 -13.5zM98 411q-12 0 -21.5 13.5t-16 35.5t-11.5 49.5t-7 55t-2 50.5q0 17 2.5 33
t14.5 26.5t42 10.5q29 0 40.5 -11t14 -27t2.5 -32q0 -23 -2 -50.5t-6.5 -55t-11.5 -49.5t-16.5 -35.5t-21.5 -13.5z" />
    <glyph glyph-name="numbersign" unicode="#" horiz-adv-x="763" 
d="M185 -11q-24 0 -34 10.5t-6 34.5l20 123h-90q-22 0 -30 10.5t-4 35.5q3 24 11 34.5t20 14t27 3.5h81l25 150h-90q-21 0 -29 10t-4 35q3 23 11 34t20 14t26 3h82l21 130q4 22 9 36t18.5 21.5t42.5 7.5q26 0 36 -12t6 -39l-24 -144h175l20 127q4 22 8.5 37t17.5 23t42 8
q27 0 37.5 -11t6.5 -36l-23 -148h74q24 0 31 -11t2 -37q-5 -23 -13.5 -33t-19.5 -12.5t-23 -2.5h-68l-23 -150h73q23 0 30.5 -12t2.5 -33q-5 -25 -13 -36t-19 -14t-24 -3h-68l-17 -106q-2 -18 -8 -32t-20.5 -22t-42.5 -8q-22 0 -33 10.5t-7 34.5l19 123h-174l-17 -105
q-3 -19 -9 -33t-20 -22t-42 -8zM289 255h176l23 150h-173z" />
    <glyph glyph-name="dollar" unicode="$" horiz-adv-x="459" 
d="M418 211q0 -35 -11 -63t-31 -49.5t-48.5 -35t-63.5 -19.5v-68q0 -15 -2.5 -27.5t-12.5 -19.5t-32 -7q-20 0 -30 7.5t-12.5 20t-2.5 26.5v68q-27 5 -52 16.5t-45 27.5t-34 36q-15 23 -15 39t23 36q16 13 30 14t26 -7.5t22 -22.5q17 -23 39 -34.5t49 -11.5q32 0 54 8.5
t33 24.5t11 39q0 27 -22 41.5t-56 25t-69 25.5q-25 9 -48 21.5t-41 30.5t-29 43t-11 60q0 31 9.5 56.5t27 45t42.5 32.5t56 19v62q0 15 2.5 27t12.5 19t31 7t31 -7t12.5 -19t2.5 -27v-61q33 -5 58.5 -19t44.5 -33q20 -18 21.5 -31t-15.5 -36q-10 -15 -22 -21.5t-24 -3.5
t-26 13q-10 10 -22.5 18t-28 13t-36.5 5q-16 0 -29.5 -4.5t-23 -12.5t-15 -19t-5.5 -24q0 -23 16.5 -37t43.5 -22.5t58 -17.5q28 -9 56 -20t51.5 -29.5t37.5 -46.5t14 -71z" />
    <glyph glyph-name="percent" unicode="%" horiz-adv-x="809" 
d="M205 -38q-11 6 -17 13.5t-5.5 18.5t8.5 25l359 677q8 14 15.5 21t17.5 7t22 -7q13 -7 18.5 -15t4 -18t-9.5 -24l-360 -679q-7 -14 -14.5 -20t-17 -5.5t-21.5 6.5zM204 321q-79 0 -126.5 50.5t-47.5 133.5q0 84 47 135t126 51q80 0 126.5 -50t46.5 -135q0 -86 -46 -135.5
t-126 -49.5zM203 413q40 0 62.5 25t22.5 70q0 44 -22 67.5t-63 23.5t-63.5 -24t-22.5 -68q0 -45 22.5 -69.5t63.5 -24.5zM610 -11q-78 0 -126 51t-48 134q0 84 47.5 134.5t126.5 50.5t125.5 -49.5t46.5 -134.5q0 -87 -46 -136.5t-126 -49.5zM610 81q40 0 62 25t22 70
q0 44 -22 67.5t-62 23.5q-41 0 -63.5 -24t-22.5 -68q0 -45 22.5 -69.5t63.5 -24.5z" />
    <glyph glyph-name="ampersand" unicode="&#x26;" horiz-adv-x="707" 
d="M253 -14q-73 0 -123.5 22.5t-76.5 66t-26 105.5q0 33 13.5 66t40.5 65.5t66 63.5q-14 29 -24 57t-15.5 55t-5.5 52q0 55 23.5 93.5t68 59t107.5 20.5q53 0 92 -19t60 -54.5t21 -83.5q0 -27 -14 -53t-38.5 -52t-56.5 -52t-69 -54q23 -33 48 -63t51 -54.5t51 -43.5
q30 27 42.5 51.5t17.5 48.5q3 17 18.5 26.5t46.5 9.5q24 0 35 -7t14.5 -17t2.5 -20q-2 -36 -22.5 -72.5t-56.5 -73.5q11 -3 19.5 -5.5t20 -4t28.5 -1.5q29 0 42 -13t13 -43q0 -37 -12 -50t-44 -13q-28 0 -56.5 4.5t-56.5 14t-57 25.5q-28 -18 -59.5 -30.5t-64 -19.5
t-64.5 -7zM255 96q25 0 47.5 5.5t37.5 15.5q-15 14 -32 31t-35 37.5t-35 42t-33 44.5q-15 -14 -25.5 -26t-17 -22.5t-9.5 -21t-3 -21.5q0 -27 12.5 -46t36 -29t56.5 -10zM243 439q28 20 50.5 37.5t37.5 32t23 26.5t8 22q0 27 -17.5 43t-46.5 16q-26 0 -45 -8.5t-29 -24
t-10 -37.5q0 -14 3 -30t9.5 -34.5t16.5 -42.5z" />
    <glyph glyph-name="quotesingle" unicode="'" horiz-adv-x="185" 
d="M92 411q-12 0 -21.5 13.5t-16 35.5t-11 49.5t-6.5 55t-2 50.5q0 17 2.5 33t14.5 26.5t41 10.5t41 -11t14.5 -27t2.5 -32q0 -23 -2 -50.5t-7 -55t-12 -49.5t-16.5 -35.5t-21.5 -13.5z" />
    <glyph glyph-name="parenleft" unicode="(" horiz-adv-x="371" 
d="M283 -167q-47 0 -85.5 25t-67 70t-48.5 104t-29.5 127.5t-9.5 139.5t9.5 139.5t29 128.5t48 105.5t67.5 71.5t87 26q15 0 26 -3.5t17.5 -14t6.5 -32.5q0 -23 -6 -33.5t-16.5 -13.5t-23.5 -3h-5q-32 0 -62 -42t-48.5 -123.5t-18.5 -203.5q0 -82 9.5 -149.5t27 -116.5
t41.5 -76t52 -27q15 0 26 -3t17.5 -13.5t6.5 -33.5t-7 -33.5t-18.5 -13t-25.5 -2.5z" />
    <glyph glyph-name="parenright" unicode=")" horiz-adv-x="371" 
d="M86 -167q-14 0 -25.5 2.5t-18 13t-6.5 33.5t6.5 33.5t18 13.5t24.5 3q29 0 52.5 27t41 76t27.5 116.5t10 149.5q0 122 -19 203.5t-48.5 123.5t-62.5 42h-5q-12 0 -22.5 3t-16.5 13.5t-6 33.5q0 22 6.5 32.5t18 14t24.5 3.5q49 0 87.5 -26t67.5 -71.5t48.5 -105.5
t29 -128.5t9.5 -139.5t-10 -139.5t-29.5 -127.5t-48.5 -104t-67 -70t-86 -25z" />
    <glyph glyph-name="asterisk" unicode="*" horiz-adv-x="486" 
d="M234 670q30 0 42 -12t12 -41v-74l87 28q21 6 34 -2.5t21 -34.5q10 -28 2.5 -43t-35.5 -24l-78 -24l56 -78q12 -19 7.5 -33.5t-27.5 -30.5q-23 -17 -39.5 -14.5t-31.5 25.5l-50 68l-53 -73q-14 -19 -30 -19.5t-40 16.5q-22 16 -25 31t12 37l50 71l-83 25q-24 6 -30.5 20.5
t2.5 42.5q10 29 23.5 37.5t36.5 0.5l85 -27v77q0 28 12 39.5t40 11.5z" />
    <glyph glyph-name="plus" unicode="+" horiz-adv-x="521" 
d="M261 25q-26 0 -38 7.5t-15 20t-3 27.5v352q0 15 3 27.5t15.5 19.5t38.5 7t37.5 -7.5t14.5 -20t3 -28.5v-349q0 -16 -3 -28.5t-14.5 -20t-38.5 -7.5zM83 199q-14 0 -26.5 3t-19.5 15t-7 38q0 27 7.5 39t20.5 15t28 3h351q15 0 27.5 -3t20 -15t7.5 -39q0 -26 -7.5 -38
t-19.5 -15t-27 -3h-355z" />
    <glyph glyph-name="comma" unicode="," horiz-adv-x="225" 
d="M61 -112l-4 1t-8 7.5t-4 20.5q0 19 6 25t8 6q1 1 14 11.5t15 35.5q-10 2 -17.5 5.5t-13.5 9.5q-9 9 -11 23.5t-2 28.5q1 16 3.5 31t17 25t47.5 10q38 0 54 -16q9 -9 11 -23.5t2 -28.5q0 -7 -0.5 -14t-1.5 -13q-4 -40 -20.5 -73t-41 -52.5t-54.5 -19.5z" />
    <glyph glyph-name="hyphen" unicode="-" horiz-adv-x="418" 
d="M63 200q-13 0 -25.5 3t-20 15t-7.5 39q0 26 7.5 37.5t20 15t24.5 3.5h249q13 0 25 -3.5t19.5 -15t7.5 -38.5q0 -26 -7.5 -38t-19.5 -15t-26 -3h-247z" />
    <glyph glyph-name="period" unicode="." horiz-adv-x="214" 
d="M107 -10q-37 0 -52 14.5t-15 51.5q0 26 6.5 40.5t21.5 21.5t40 7q37 0 52 -15t15 -53q0 -25 -6.5 -40t-21 -21t-40.5 -6z" />
    <glyph glyph-name="slash" unicode="/" horiz-adv-x="508" 
d="M53 -48q-29 15 -34 31.5t11 48.5l328 651q11 22 21.5 31.5t25 9t33.5 -10.5q21 -10 29 -20.5t6 -25t-13 -36.5l-329 -648q-15 -33 -31.5 -38.5t-46.5 7.5z" />
    <glyph glyph-name="zero" unicode="0" horiz-adv-x="580" 
d="M294 -17q-59 0 -103 19.5t-74 54t-48 80t-26 97.5t-8 107q0 52 8 103t25.5 96.5t47.5 81t73.5 56t102.5 20.5q57 0 99.5 -20t72 -55t47.5 -81t26 -97.5t8 -104.5q0 -54 -8 -106t-26 -97.5t-47.5 -80t-71.5 -54t-98 -19.5zM289 105q41 0 66 17.5t39.5 45.5t20.5 60
t7.5 60.5t1.5 46.5v6q0 75 -15 128t-44.5 80.5t-73.5 27.5q-46 0 -76 -27.5t-44.5 -80t-14.5 -129.5q0 -75 15 -127.5t44.5 -80t73.5 -27.5z" />
    <glyph glyph-name="one" unicode="1" horiz-adv-x="388" 
d="M286 -11q-33 0 -46 13.5t-13 47.5v580q0 33 13 46t47 13q33 0 46 -13.5t13 -47.5v-579q0 -33 -13 -46.5t-47 -13.5zM132 428q-23 -21 -41 -20.5t-40 24.5q-21 23 -19.5 43t27.5 43l171 151q23 20 41.5 18.5t39.5 -24.5q22 -23 20 -43t-29 -43z" />
    <glyph glyph-name="two" unicode="2" horiz-adv-x="587" 
d="M95 -5q-23 0 -41.5 18.5t-18.5 43.5q0 16 2 31t9 29t21 27q46 38 93.5 70t91.5 61t79 58.5t55 62t20 70.5q0 31 -12.5 56t-39.5 40t-72 15q-31 0 -54.5 -9t-39 -26t-24 -41.5t-8.5 -55.5q0 -17 -3 -30t-15.5 -20.5t-42.5 -7.5t-42.5 9t-15 24.5t-2.5 32.5q0 50 16.5 94.5
t48.5 78t77.5 53t103.5 19.5q73 0 128.5 -30t87 -84t31.5 -129q0 -39 -12 -73t-33 -63.5t-48.5 -54.5t-59 -47.5t-63.5 -42t-62 -37.5l-38 -20h284q17 0 31 -3.5t21.5 -16.5t7.5 -42q0 -28 -8 -41t-22 -16t-32 -3h-399z" />
    <glyph glyph-name="three" unicode="3" horiz-adv-x="580" 
d="M289 -16q-53 0 -98 16.5t-80 45t-54.5 65.5t-21.5 77q0 44 65 44q20 0 30 -4t16 -15t12 -30q7 -20 23.5 -39t43.5 -31.5t65 -12.5q41 0 71 13.5t46.5 37.5t16.5 55t-16.5 53.5t-44.5 35t-64 12.5q-19 0 -33.5 3t-23 15t-8.5 40q0 29 8.5 40.5t23.5 14.5t34 3q34 0 56.5 9
t34.5 25t12 36q0 27 -13 47.5t-36.5 32t-55.5 11.5q-29 0 -50 -7.5t-36.5 -21.5t-28.5 -34q-15 -29 -34.5 -34t-50.5 13q-25 15 -30 32.5t7 40.5q3 7 11.5 21.5t25 32t40.5 34t59 27.5t81 11q56 0 99 -17.5t73 -46t45.5 -64t15.5 -73.5q0 -34 -13 -61t-32 -45t-38 -27
q21 -9 39.5 -25t33 -37.5t22.5 -45.5t8 -49q0 -64 -32.5 -115t-90.5 -80t-133 -29z" />
    <glyph glyph-name="four" unicode="4" horiz-adv-x="547" 
d="M443 -9q-28 0 -40.5 8t-16 22t-3.5 31v152h-292q-28 0 -41 8.5t-16.5 22.5t-3.5 30q0 8 1 13.5t2 11.5l99 355q9 38 25 45t49 0q26 -6 39.5 -19.5t8.5 -34.5l-89 -319h218v317q0 16 3.5 28t17 20t41.5 8t41 -8.5t16 -22t3 -30.5v-579q0 -16 -3.5 -30t-16.5 -21.5
t-42 -7.5z" />
    <glyph glyph-name="five" unicode="5" horiz-adv-x="509" 
d="M247 -17q-38 0 -68.5 7t-54 18t-39.5 21.5t-26 18.5q-12 10 -20.5 19.5t-8.5 22.5q0 10 5.5 20.5t18.5 24.5q11 14 21.5 20t20.5 6q9 0 19.5 -5t26.5 -18q8 -7 19.5 -14.5t30.5 -13t49 -5.5q34 0 59 13t38.5 37t13.5 58q0 32 -14 56.5t-38.5 38.5t-55.5 14q-15 0 -29 -4
t-24.5 -10t-17.5 -13q-8 -7 -15.5 -12t-19.5 -6q-11 -2 -22.5 0.5t-28.5 9.5q-22 11 -32 20t-10 23l41 299q2 12 6.5 26.5t17 25t37.5 9.5h250q16 0 29 -3.5t21 -16.5t8 -42q0 -27 -7.5 -39t-20 -15t-28.5 -3h-198l-22 -150q10 7 21 11.5t22.5 7t22.5 2.5h7q44 0 84 -17.5
t71 -48.5t49 -71t18 -85q0 -68 -30 -121.5t-81 -84.5t-116 -31z" />
    <glyph glyph-name="six" unicode="6" horiz-adv-x="531" 
d="M273 -16q-75 0 -128 32.5t-81.5 95.5t-28.5 152q0 77 17.5 143t51 118.5t81 89.5t106.5 57t128 20q16 0 28.5 -3.5t20.5 -16.5t8 -41t-8.5 -41t-22 -16t-30.5 -3q-50 0 -89 -13t-69 -35t-50 -50.5t-30 -60t-11 -62.5l-14 -6q6 17 24 32t45.5 24.5t59.5 9.5
q63 0 111.5 -27t76.5 -73.5t28 -104.5q0 -64 -28.5 -114t-79 -78.5t-116.5 -28.5zM269 97q35 0 59.5 12.5t37 35.5t12.5 55q0 30 -12 52.5t-35.5 35t-55.5 12.5q-35 0 -61 -12.5t-39.5 -34.5t-13.5 -51q0 -32 12.5 -56t36.5 -36.5t59 -12.5z" />
    <glyph glyph-name="seven" unicode="7" horiz-adv-x="543" 
d="M197 -10q-28 0 -40.5 6t-16.5 17t-4 25q0 58 17 113t44 107t57 98.5t56.5 86.5t44 72t17.5 53h-282q-16 0 -30 4t-22 16.5t-8 40.5t7.5 40.5t20 16t27.5 3.5h368q29 0 41 -9.5t15.5 -24t3.5 -32.5q0 -42 -18.5 -87.5t-47 -93.5t-61.5 -98t-62 -101.5t-47.5 -103
t-18.5 -103.5q0 -13 -3.5 -23.5t-16.5 -16.5t-41 -6z" />
    <glyph glyph-name="eight" unicode="8" horiz-adv-x="553" 
d="M280 -17q-71 0 -126.5 28t-87 78t-31.5 115q0 28 8 53t20.5 45t26 34.5t24 22.5t14.5 8q-3 1 -14 11t-24.5 28t-23 42.5t-9.5 53.5q0 58 29 103t79.5 71t114.5 26q62 0 111 -26t77.5 -72t28.5 -104q0 -21 -6 -40.5t-15.5 -36.5t-19.5 -29t-17.5 -19.5t-10.5 -7.5
q4 0 14.5 -8t23.5 -23t25 -35t20 -45t8 -52q0 -51 -19.5 -92t-53 -70t-76.5 -44t-90 -15zM278 95q37 0 63.5 13t41.5 37.5t15 56.5q0 33 -15 57t-42 37t-65 13q-36 0 -63.5 -13t-42 -37t-14.5 -57q0 -32 15 -56.5t42.5 -37.5t64.5 -13zM278 415q30 0 52 10.5t34 30.5t12 46
t-12.5 45.5t-34.5 30t-52 10.5q-29 0 -51 -10.5t-34 -30t-12 -45.5t12 -46t34.5 -30.5t51.5 -10.5z" />
    <glyph glyph-name="nine" unicode="9" horiz-adv-x="531" 
d="M110 -9q-15 0 -27.5 3.5t-20 16.5t-7.5 41t8.5 40.5t22.5 16t31 3.5q49 0 88.5 12.5t69 35t49.5 51t30 60t11 62.5l15 5q-6 -16 -24.5 -31t-45.5 -24.5t-60 -9.5q-62 0 -111 27t-76.5 73.5t-27.5 103.5q0 64 28 114t78.5 78.5t116.5 28.5q75 0 128.5 -32.5t82 -95
t28.5 -152.5q0 -77 -18 -143t-51.5 -118.5t-81 -89.5t-107 -56.5t-129.5 -19.5zM256 382q36 0 61.5 12.5t39 35t13.5 50.5q0 33 -12.5 56.5t-36 36.5t-59.5 13q-35 0 -59.5 -12.5t-37 -35.5t-12.5 -55q0 -29 12.5 -52t35.5 -36t55 -13z" />
    <glyph glyph-name="colon" unicode=":" horiz-adv-x="230" 
d="M111 322q-38 0 -53 15t-15 51q0 26 6.5 41t21.5 21.5t40 6.5q38 0 52.5 -15t14.5 -53q0 -24 -6 -39t-21 -21.5t-40 -6.5zM110 -10q-37 0 -52 14.5t-15 51.5q0 26 6.5 40.5t21.5 21.5t40 7q37 0 52 -15t15 -53q0 -25 -6.5 -40t-21 -21t-40.5 -6z" />
    <glyph glyph-name="semicolon" unicode=";" horiz-adv-x="216" 
d="M58 -113l-4 1.5t-8 8t-4 20.5q0 19 6 24.5t8 6.5q1 1 14 11.5t15 35.5q-10 2 -17.5 5.5t-12.5 8.5q-10 10 -12 23.5t-2 27.5q0 23 5 38t19.5 22.5t43.5 7.5q38 0 54 -16q9 -9 10.5 -23t1.5 -28v-16.5t-1 -11.5q-4 -40 -20.5 -73t-41 -53t-54.5 -20zM107 321
q-38 0 -52.5 15.5t-14.5 50.5q0 26 5.5 41t21 21.5t41.5 6.5q39 0 53 -15t14 -53q0 -18 -4 -33.5t-18 -24.5t-46 -9z" />
    <glyph glyph-name="less" unicode="&#x3c;" horiz-adv-x="537" 
d="M422 5l-376 239q-10 6 -18 18.5t-8 29.5q0 22 9 32t18 15l375 239q14 9 26 13.5t25 -1t28 -28.5q14 -22 14.5 -36t-8.5 -24t-22 -19l-305 -192l305 -192q14 -8 22.5 -17.5t8 -24t-14.5 -36.5t-27 -27.5t-25.5 -1.5t-26.5 13z" />
    <glyph glyph-name="equal" unicode="=" horiz-adv-x="459" 
d="M81 302q-12 0 -24 2.5t-19.5 14.5t-7.5 37q0 26 7.5 37t19 14.5t24.5 3.5h297q14 0 25.5 -3.5t18.5 -14.5t7 -37t-7 -37.5t-19 -14t-26 -2.5h-296zM81 103q-13 0 -24.5 3t-19 14.5t-7.5 37.5q0 25 7.5 36.5t19 14.5t24.5 3h297q13 0 24.5 -3t19 -14.5t7.5 -37.5
q0 -25 -7.5 -36.5t-19 -14.5t-25.5 -3h-296z" />
    <glyph glyph-name="greater" unicode="&#x3e;" horiz-adv-x="537" 
d="M115 5q-13 -9 -26 -13t-25.5 1.5t-27.5 27.5q-14 22 -14.5 36.5t8 24t22.5 17.5l305 192l-305 192q-13 9 -22 19t-8 24t14 36q15 23 28 28.5t25.5 1t25.5 -13.5l375 -239q9 -5 18 -15t9 -32q0 -17 -8 -29.5t-18 -18.5z" />
    <glyph glyph-name="question" unicode="?" horiz-adv-x="486" 
d="M244 202q-26 0 -38 7t-14.5 19.5t-2.5 27.5v65q0 24 11 38t28.5 23.5t37 18t37 20t28.5 30.5t11 50q0 46 -25.5 70.5t-77.5 24.5q-24 0 -43 -7.5t-31.5 -20t-18.5 -29.5q-6 -19 -14.5 -29t-21 -12t-34.5 5q-21 9 -31 17t-11.5 20t4.5 31q3 13 12 30t24.5 35.5t39 34
t54.5 25t71 9.5q64 0 112 -25.5t74.5 -71t26.5 -105.5q0 -36 -10 -65t-27.5 -51t-38.5 -38t-42 -26t-39 -15l6 11v-67q0 -14 -3 -25.5t-15 -18t-39 -6.5zM243 -10q-41 0 -54 16t-13 52q0 15 3 30.5t17 26t48 10.5q42 0 54.5 -16t12.5 -52q0 -16 -2.5 -31.5t-17 -25.5
t-48.5 -10z" />
    <glyph glyph-name="at" unicode="@" horiz-adv-x="834" 
d="M380 -137q-107 0 -186 46t-122 130t-43 197q0 83 28 151t78.5 118t120.5 77t153 27q93 0 166.5 -26t125 -75t78 -118t26.5 -155q0 -68 -18.5 -121t-51 -90t-73 -56t-83.5 -19q-60 0 -96 34.5t-34 91.5q1 9 2 19t1 19q-8 -10 -21 -18.5t-30.5 -13.5t-41.5 -5
q-28 0 -53.5 11.5t-45.5 32.5t-31 49.5t-10 61.5v12.5t1 8.5q3 38 19.5 70.5t41 56.5t54 37t61.5 13q27 0 47 -8t34 -20.5t20 -25.5l-8 18q2 21 14.5 29t38.5 8q21 0 32.5 -9t9.5 -28l-41 -314q0 -17 9 -26.5t32 -9.5q21 0 43.5 11.5t41.5 35.5t31 62t12 92q0 62 -19 112
t-56 85.5t-92.5 54.5t-127.5 19q-87 0 -153 -34t-102.5 -95t-36.5 -143q0 -89 30 -153t87.5 -98t138.5 -34q19 0 29 -4t14.5 -14t4.5 -30t-7 -30.5t-18 -13.5t-24 -3zM384 173q15 0 29 5.5t25 16t18.5 25t9.5 31.5v7q0 18 -4.5 31.5t-13.5 23t-21.5 14.5t-27.5 5
q-16 0 -30 -5.5t-25 -16t-18 -25t-10 -33.5v-7q0 -22 8.5 -38t24 -25t35.5 -9z" />
    <glyph glyph-name="A" unicode="A" horiz-adv-x="706" 
d="M686 75q10 -19 10.5 -33.5t-8.5 -25t-30 -21.5q-32 -15 -49.5 -8t-32.5 39l-223 471l-222 -471q-15 -31 -33 -37.5t-50 7.5q-20 10 -29.5 21t-8 26.5t12.5 37.5l275 573q8 16 23.5 25.5t32.5 9.5q12 0 22 -4t18.5 -12t14.5 -20zM175 172l48 103h261l48 -103h-357z" />
    <glyph glyph-name="B" unicode="B" horiz-adv-x="629" 
d="M106 -9q-26 0 -39 9t-16.5 24t-3.5 33v568q0 18 4 32.5t16.5 23.5t39.5 9h264q58 0 102.5 -27t69.5 -71.5t25 -97.5q0 -24 -5.5 -47.5t-17 -43.5t-28.5 -36q23 -18 40 -44t25.5 -56.5t8.5 -63.5q-1 -45 -17 -83.5t-44.5 -67.5t-66.5 -45t-82 -16h-275zM168 109h203
q29 0 51.5 11t35.5 34t13 60q0 29 -7.5 46.5t-20 27.5t-28 14t-30.5 4.5t-28 0.5h-46q-26 0 -38 12.5t-12 41.5q0 27 13 38.5t40 11.5h45q13 0 28.5 1t29.5 7.5t23 21.5t9 44q0 45 -23.5 65.5t-80.5 20.5h-177v-462z" />
    <glyph glyph-name="C" unicode="C" horiz-adv-x="655" 
d="M392 -14q-49 0 -99 14.5t-96 44t-81.5 73t-56.5 101t-21 127.5q0 69 21 124.5t56.5 97.5t81 70t96 42.5t100.5 15.5q51 0 88 -11t60 -23.5t31 -17.5q16 -10 30.5 -22.5t15.5 -30.5q1 -12 -3 -21.5t-11 -19.5q-12 -17 -24 -25t-24 -8q-11 0 -20.5 6t-23.5 15
q-6 4 -21.5 12.5t-41 15.5t-61.5 7q-43 0 -84 -15t-73.5 -44.5t-51.5 -73t-19 -99.5t19 -99.5t51.5 -73t73.5 -44.5t84 -15q34 0 58.5 6.5t42 16t26.5 14.5q11 7 21 13t21 6q12 0 23.5 -8t22.5 -26q7 -11 11 -21t3 -21q-1 -18 -15.5 -30.5t-30.5 -21.5q-8 -5 -30.5 -17.5
t-59.5 -23t-89 -10.5z" />
    <glyph glyph-name="D" unicode="D" horiz-adv-x="680" 
d="M113 -9q-26 0 -39 8.5t-17 22.5t-4 30v578q0 16 3.5 29.5t16.5 22t41 8.5l188 -1q73 0 134.5 -25t106.5 -71t69.5 -109.5t24.5 -139.5q0 -78 -25 -143t-70 -112t-106.5 -72.5t-136.5 -25.5h-186zM174 112h128q64 0 112 28.5t74.5 79.5t26.5 119q0 69 -26.5 120.5t-75 80
t-112.5 28.5h-127v-456z" />
    <glyph glyph-name="E" unicode="E" horiz-adv-x="617" 
d="M124 -10q-28 0 -41 8.5t-16 22.5t-3 31v577q0 34 13.5 47t49.5 13h390q17 0 30.5 -3.5t21.5 -16t8 -41.5q0 -28 -8.5 -41t-22 -16t-30.5 -3h-331v-168h228q17 0 29 -3.5t19 -14.5t7 -37q0 -25 -7 -36.5t-20 -14t-30 -2.5h-226v-180h332q17 0 30.5 -3.5t21.5 -16.5t8 -41
t-8.5 -41t-22 -16.5t-30.5 -3.5h-392z" />
    <glyph glyph-name="F" unicode="F" horiz-adv-x="625" 
d="M124 -10q-28 0 -41 8.5t-16 22.5t-3 31v577q0 34 13.5 47t49.5 13h390q17 0 30 -3.5t21 -16t8 -41.5q0 -28 -8.5 -41t-22 -16t-30.5 -3h-330v-168h227q17 0 29.5 -3.5t19 -15t6.5 -37.5q0 -24 -7 -35.5t-19.5 -14t-29.5 -2.5h-226v-241q0 -17 -3.5 -30.5t-16.5 -22
t-41 -8.5z" />
    <glyph glyph-name="G" unicode="G" horiz-adv-x="712" 
d="M392 -14q-75 0 -138 26.5t-109 75.5t-71 115.5t-25 147.5q0 76 26 139t73 109.5t111.5 72.5t141.5 26q32 0 66 -5.5t66 -17t56 -28.5q19 -12 32.5 -24.5t14.5 -28.5q1 -9 -3 -19.5t-12 -21.5q-11 -17 -23.5 -25t-24.5 -8q-7 0 -17 5.5t-27 15.5q-13 9 -34 17t-46 13
t-52 5q-67 0 -118 -28t-79.5 -79.5t-28.5 -120.5q0 -71 29 -125t79.5 -84.5t116.5 -30.5q23 0 46.5 3t46 9t41.5 15v158h-142q-14 0 -25.5 3t-18 14t-6.5 36q0 26 7 37t18.5 14t25.5 3h204q26 0 38 -9t16 -22.5t4 -30.5v-233q0 -20 -19.5 -41t-54.5 -39q-23 -12 -52.5 -20.5
t-63 -13.5t-69.5 -5z" />
    <glyph glyph-name="H" unicode="H" horiz-adv-x="675" 
d="M556 -9q-28 0 -41 8t-16 22.5t-3 30.5v577q0 16 3.5 30t16 22t41.5 8q28 0 40.5 -8t16 -22t3.5 -31v-577q0 -16 -3.5 -30t-16.5 -22t-41 -8zM118 -9q-28 0 -40.5 8t-16 22.5t-3.5 30.5v577q0 16 3.5 30t16.5 22t41 8q29 0 41.5 -8t15.5 -22t3 -31v-577q0 -16 -3.5 -30
t-16 -22t-41.5 -8zM147 292v108h365l-1 -108h-364z" />
    <glyph glyph-name="I" unicode="I" horiz-adv-x="224" 
d="M112 -10q-28 0 -41 8.5t-16 22.5t-3 31v577q0 16 3.5 30t16 22t41.5 8q28 0 40.5 -8t16 -22t3.5 -31v-577q0 -17 -3.5 -30.5t-16.5 -22t-41 -8.5z" />
    <glyph glyph-name="J" unicode="J" horiz-adv-x="540" 
d="M241 -15q-34 0 -63.5 8.5t-52.5 21.5t-39.5 25.5t-24.5 20.5q-11 12 -19.5 23t-8.5 23q0 11 6.5 22.5t17.5 22.5q13 14 23 19.5t21 5.5q15 0 26.5 -10.5t27.5 -25.5q8 -6 21 -14.5t30.5 -14.5t38.5 -6q28 0 48.5 9.5t34 27.5t20 42.5t6.5 53.5v382q0 18 4 34t17 25t42 9
q27 0 39.5 -8.5t16 -22.5t3.5 -31v-395q0 -53 -16.5 -98t-47 -78.5t-74 -52t-97.5 -18.5z" />
    <glyph glyph-name="K" unicode="K" horiz-adv-x="593" 
d="M120 -10q-28 0 -41 8.5t-16 22.5t-3 30v578q0 17 3.5 30.5t16 21.5t41.5 8q28 0 40.5 -8t16 -22t3.5 -31v-207l255 248q16 17 29 23t27 1.5t30 -20.5q26 -25 26 -43.5t-23 -42.5l-264 -247l267 -248q25 -24 24 -43t-27 -43q-19 -16 -32.5 -20.5t-26 2t-27.5 23.5
l-258 250v-211q0 -16 -3.5 -30t-16 -22t-41.5 -8z" />
    <glyph glyph-name="L" unicode="L" horiz-adv-x="562" 
d="M122 -10q-29 0 -42 8.5t-16.5 22.5t-3.5 30v577q0 17 3.5 31t16 22t41.5 8q28 0 40.5 -8t16 -22t3.5 -31v-530h305q15 0 27 -2.5t19 -14t7 -36.5t-7 -36.5t-19 -15t-27 -3.5h-364z" />
    <glyph glyph-name="M" unicode="M" horiz-adv-x="820" 
d="M115 -9q-26 0 -39 8t-16.5 22t-3.5 31v577q0 16 3.5 29.5t16.5 22t41 8.5q21 0 31.5 -2.5t16.5 -7t12 -11.5l244 -341h-23l245 342q7 8 14 12t18 6t29 2q27 0 40 -8.5t16.5 -22.5t3.5 -31v-577q0 -15 -3.5 -29t-16.5 -22t-41 -8q-27 0 -40 8.5t-16.5 22.5t-3.5 30v429
l-182 -263q-3 -4 -9 -10.5t-16 -11.5t-27 -5q-16 0 -26 5t-15.5 11t-10.5 12l-181 262v-431q0 -15 -3.5 -29t-16.5 -22t-41 -8z" />
    <glyph glyph-name="N" unicode="N" horiz-adv-x="695" 
d="M112 -9q-27 0 -39.5 8.5t-16 22.5t-3.5 30v580q0 15 4 28t17.5 21t40.5 8q30 0 41.5 -6.5t21.5 -18.5l334 -467v435q0 15 4 28t17 21t40 8q28 0 40.5 -8.5t16 -22.5t3.5 -31v-576q0 -16 -4.5 -29.5t-18 -22t-41.5 -8.5q-22 0 -34.5 4t-22.5 17l-339 466v-427
q0 -16 -3.5 -29.5t-16.5 -22t-41 -8.5z" />
    <glyph glyph-name="O" unicode="O" horiz-adv-x="728" 
d="M369 -18q-72 0 -134.5 27.5t-110.5 76t-75 112t-27 136.5q0 75 26.5 140.5t73 115t107.5 77.5t131 28q73 0 135.5 -27.5t109.5 -76.5t74 -113.5t27 -139.5q0 -73 -26 -137.5t-73 -114t-107.5 -77t-130.5 -27.5zM364 104q46 0 86 18t70.5 50t47.5 74.5t17 91.5t-17.5 91.5
t-48 75t-70 50.5t-85.5 18q-45 0 -85 -18t-70.5 -50.5t-47.5 -75.5t-17 -91t17.5 -91t47.5 -75t69.5 -50t85.5 -18z" />
    <glyph glyph-name="P" unicode="P" horiz-adv-x="599" 
d="M118 -9q-28 0 -41 8t-16 22.5t-3 30.5v577q0 16 3.5 29.5t16.5 22t41 8.5h212q44 0 86 -15t75.5 -45t53 -74t19.5 -103q0 -58 -19.5 -101.5t-53.5 -73.5t-75.5 -45t-86.5 -15h-151v-166q0 -16 -3.5 -30t-16 -22t-41.5 -8zM179 339h152q31 0 56.5 12.5t41.5 38t16 64.5
q0 35 -14.5 60.5t-40 39.5t-60.5 14h-151v-229z" />
    <glyph glyph-name="Q" unicode="Q" horiz-adv-x="801" 
d="M746 106q29 -19 32 -37t-17 -47q-14 -20 -26 -27t-25.5 -3.5t-32.5 15.5l-92 62q-43 -40 -98.5 -63.5t-117.5 -23.5q-72 0 -134.5 27.5t-110.5 76t-75 112t-27 136.5q0 75 26.5 140.5t73 115t108 77.5t131.5 28q72 0 134.5 -27.5t110 -76t74 -113.5t26.5 -140
q0 -47 -11.5 -91t-33.5 -83zM364 104q46 0 86 18t70.5 50t47.5 74.5t17 91.5t-17.5 91.5t-48 75t-70 50.5t-84.5 18q-46 0 -86 -18t-70.5 -50.5t-47.5 -75t-17 -91.5t17.5 -91.5t47.5 -74.5t70 -50t85 -18z" />
    <glyph glyph-name="R" unicode="R" horiz-adv-x="618" 
d="M122 -9q-28 0 -40.5 8t-16 22.5t-3.5 30.5v577q0 16 4 29.5t16.5 22t40.5 8.5h214q46 0 87.5 -14.5t74.5 -44t52.5 -74t19.5 -103.5q0 -39 -12 -77.5t-35.5 -71t-59.5 -55.5t-85 -30h-196v-168q0 -16 -3.5 -30t-16 -22t-41.5 -8zM548 6q-29 -20 -47.5 -15t-36.5 32
l-168 254l135 18l133 -202q14 -20 17 -34t-5 -26t-28 -27zM183 339h169q18 0 35.5 6.5t31.5 21t22.5 36t8.5 51.5q0 36 -14 61.5t-39.5 39t-61.5 13.5h-152v-229z" />
    <glyph glyph-name="S" unicode="S" horiz-adv-x="550" 
d="M271 -19q-45 0 -81.5 11t-64 28t-46.5 35t-28 33q-13 18 -17 32t2.5 27.5t24.5 28.5q18 16 33.5 16.5t30 -9.5t28.5 -28q24 -32 54 -45.5t60 -13.5q39 0 68 10.5t45.5 31.5t16.5 54q0 27 -16.5 44.5t-43.5 30t-60.5 23t-67.5 23.5q-24 8 -48 19.5t-44.5 26.5t-36 35.5
t-24.5 47.5t-9 63q0 57 28 100.5t78 69t114 25.5q41 0 73.5 -7.5t56 -19t39 -23t22.5 -19.5q23 -23 25.5 -38.5t-18.5 -41.5q-21 -27 -40.5 -29.5t-43.5 15.5q-16 17 -32 27.5t-35.5 15.5t-47.5 5q-20 0 -38.5 -5.5t-31.5 -16t-20.5 -25.5t-7.5 -34q0 -26 14.5 -42.5
t39.5 -27t56 -19.5t63 -19q33 -11 65 -26t57 -37.5t40 -56t15 -81.5q0 -55 -21 -96t-57 -67t-80 -38.5t-89 -12.5z" />
    <glyph glyph-name="T" unicode="T" horiz-adv-x="656" 
d="M574 690q15 0 26.5 -3t18.5 -14.5t7 -36.5t-7 -36.5t-19 -14t-27 -2.5h-184v-533q0 -17 -3.5 -30.5t-16 -21.5t-41.5 -8q-27 0 -40 8.5t-16 22t-3 30.5v532h-186q-14 0 -26 3t-19.5 14t-7.5 36t7 36.5t19.5 14.5t26.5 3h491z" />
    <glyph glyph-name="U" unicode="U" horiz-adv-x="701" 
d="M349 -15q-70 0 -124.5 25.5t-91.5 71t-56 104t-19 124.5v319q0 17 3.5 30.5t16 22t41.5 8.5t41.5 -8.5t16 -22t3.5 -31.5v-318q0 -55 18.5 -101.5t56.5 -74.5t97 -28q53 0 91 25t58.5 71t20.5 109v323q0 16 3.5 28t16.5 20t41 8q29 0 41.5 -8.5t15.5 -22.5t3 -31v-320
q0 -66 -19 -124.5t-57 -103t-92.5 -70t-125.5 -25.5z" />
    <glyph glyph-name="V" unicode="V" horiz-adv-x="726" 
d="M364 -9q-23 0 -38.5 7.5t-23.5 25.5l-248 585q-13 31 -5 46t37 30q20 11 35 11.5t25.5 -9t18.5 -30.5l198 -496l196 491q9 20 19 31.5t26 12t38 -11.5q35 -17 38 -35t-10 -46l-246 -579q-7 -15 -23 -24t-37 -9z" />
    <glyph glyph-name="W" unicode="W" horiz-adv-x="959" 
d="M284 -7q-20 0 -32 7.5t-17.5 17.5t-7.5 17l-196 574q-10 32 -3 48.5t41 27.5q23 8 37 7t23.5 -11.5t16.5 -32.5l144 -436l129 432q3 10 8.5 20.5t17.5 17.5t33 7q24 0 36 -8t17.5 -17.5t7.5 -17.5l129 -437l145 438q7 23 16.5 34t24.5 12.5t37 -6.5q23 -8 33 -17.5
t10 -24t-7 -36.5l-195 -575q-2 -6 -7.5 -16t-17.5 -17.5t-33 -7.5t-33 9t-18 20t-8 16l-136 440l-136 -439q-2 -7 -7.5 -18t-17.5 -19.5t-34 -8.5z" />
    <glyph glyph-name="X" unicode="X" horiz-adv-x="693" 
d="M622 2q-18 -15 -31.5 -20t-26 2t-27.5 24l-472 582q-21 24 -21 43t26 42q18 16 31.5 20.5t26.5 -2t27 -24.5l472 -583q23 -25 23 -43.5t-28 -40.5zM71 2q-27 22 -27 40.5t22 43.5l472 583q15 18 27.5 24.5t26 2t31.5 -20.5q27 -23 27 -42t-22 -43l-472 -582
q-15 -17 -27.5 -24t-26 -2t-31.5 20z" />
    <glyph glyph-name="Y" unicode="Y" horiz-adv-x="638" 
d="M586 682q29 -20 32 -38t-14 -42l-223 -337v-215q0 -17 -3.5 -30.5t-16.5 -22t-41 -8.5q-29 0 -41.5 8.5t-16 22.5t-3.5 32v213l-224 336q-18 25 -13.5 43t32.5 37q20 14 34.5 17t26.5 -5t23 -26l180 -285l183 285q12 18 23.5 25.5t26.5 5t35 -15.5z" />
    <glyph glyph-name="Z" unicode="Z" horiz-adv-x="583" 
d="M84 -11q-25 0 -42 16.5t-17 44.5q0 9 2 17.5t7 14.5l338 489h-283q-17 0 -31.5 3t-23.5 15.5t-9 38.5q0 29 8 42t22.5 16.5t30.5 3.5h398q27 0 43.5 -18t16.5 -42q0 -12 -3 -22t-9 -16l-334 -485h301q16 0 29.5 -3.5t21.5 -15.5t8 -39q0 -28 -8 -40.5t-22 -16t-31 -3.5
h-413z" />
    <glyph glyph-name="bracketleft" unicode="[" horiz-adv-x="336" 
d="M97 -164q-27 0 -39.5 8t-15.5 22t-3 30v810q0 17 3 30.5t15.5 21.5t39.5 8h159q13 0 23 -2.5t16 -14t6 -36.5t-6 -36t-16.5 -14t-23.5 -3h-102v-718h102q13 0 23.5 -3t16.5 -14.5t6 -36.5q0 -24 -6 -35.5t-16 -14t-23 -2.5h-159z" />
    <glyph glyph-name="backslash" unicode="\" horiz-adv-x="510" 
d="M431 -47q-19 -9 -33 -9t-25 10.5t-20 29.5l-320 657q-15 30 -9 47.5t34 31.5q29 14 46.5 7t32.5 -38l317 -653q15 -34 10 -51.5t-33 -31.5z" />
    <glyph glyph-name="bracketright" unicode="]" horiz-adv-x="336" 
d="M73 -164q-12 0 -23 2.5t-17 14t-6 35.5q0 25 6.5 36.5t17 14.5t22.5 3h102v718h-101q-13 0 -23.5 3t-17 14t-6.5 36t6 36.5t16.5 14t22.5 2.5h159q27 0 39.5 -8t16 -21.5t3.5 -30.5v-810q0 -16 -3.5 -30t-15.5 -22t-40 -8h-158z" />
    <glyph glyph-name="asciicircum" unicode="^" horiz-adv-x="503" 
d="M252 516q11 0 19.5 -5t16.5 -13l165 -166q10 -9 15.5 -19t2.5 -22.5t-20 -29.5t-29.5 -20t-22.5 3t-19 15l-128 129l-128 -129q-9 -9 -19 -15t-22.5 -3t-30.5 20q-17 17 -20 29.5t3 22.5t15 19l166 166q7 8 16 13t20 5z" />
    <glyph glyph-name="underscore" unicode="_" horiz-adv-x="797" 
d="M80 -169q-13 0 -24 3t-17.5 14t-6.5 34q0 25 6.5 36t17.5 14t23 3h641q13 0 24 -3t17 -14t6 -36q0 -24 -6.5 -34.5t-17.5 -13.5t-24 -3h-639z" />
    <glyph glyph-name="grave" unicode="`" horiz-adv-x="372" 
d="M234 538l-153 51q-25 9 -30.5 23t2.5 41q9 29 21.5 36t37.5 0l153 -50q25 -9 30.5 -23t-3.5 -42q-9 -29 -21 -35.5t-37 -0.5z" />
    <glyph glyph-name="a" unicode="a" horiz-adv-x="569" 
d="M462 -8q-29 0 -43 11t-14 30l7 33q-8 -13 -27 -30.5t-50 -31t-75 -13.5q-47 0 -88.5 19.5t-73 54t-50 79t-18.5 95.5q0 49 18.5 92.5t50.5 77.5t73.5 53.5t87.5 19.5q41 0 69.5 -11t48.5 -27.5t33 -34.5l-6 29q0 22 14 33.5t44 11.5q28 0 40 -8.5t15 -23t3 -32.5v-366
q0 -17 -3 -31t-15.5 -22t-40.5 -8zM278 108q34 0 61 17t43.5 46.5t16.5 65.5q0 39 -17 68t-44.5 45.5t-61.5 16.5q-37 0 -66 -17.5t-45.5 -47t-16.5 -66.5q0 -36 17 -65t46.5 -46t66.5 -17z" />
    <glyph glyph-name="b" unicode="b" horiz-adv-x="573" 
d="M309 -9q-49 0 -87.5 19.5t-65 53.5t-40 78.5t-13.5 95.5q1 51 15 95.5t40.5 78t64.5 52.5t86 19q46 0 86.5 -19t72 -52.5t49.5 -78t18 -94.5q0 -52 -18 -97.5t-49 -79t-72 -52.5t-87 -19zM293 108q35 0 63 16.5t44.5 45.5t16.5 66q0 38 -16.5 67.5t-44.5 46t-63 16.5
q-34 0 -62 -17t-44.5 -46t-16.5 -67q0 -37 16.5 -66t44.5 -45.5t62 -16.5zM108 -10q-27 0 -40 8.5t-16 22t-3 30.5v596q0 17 3 30.5t16 21.5t40 8q28 0 40 -8t15 -22t3 -30v-616q-4 -22 -16.5 -31.5t-41.5 -9.5z" />
    <glyph glyph-name="c" unicode="c" horiz-adv-x="507" 
d="M290 -12q-48 0 -93.5 16.5t-82 48.5t-58 78.5t-21.5 105.5t21.5 105t57.5 78t81 49t93 17q35 0 66.5 -10t54.5 -24t33 -28q13 -12 22 -23t6 -27q-3 -10 -9 -18.5t-15 -17.5q-24 -27 -47 -20q-13 7 -26 15t-26.5 15.5t-27.5 12.5t-31 5q-38 0 -67.5 -16.5t-46 -45.5
t-16.5 -67t16.5 -67.5t45.5 -46t66 -16.5q18 0 34.5 4.5t29.5 12t21 15.5q11 7 20 13t19 6q12 0 23.5 -8.5t25.5 -26.5q13 -15 14.5 -29t-6 -27t-24.5 -24q-12 -12 -35.5 -24.5t-54 -21.5t-63.5 -9z" />
    <glyph glyph-name="d" unicode="d" horiz-adv-x="575" 
d="M264 -9q-46 0 -87 19t-72 52.5t-49 79t-18 97.5q0 50 18 94.5t49.5 78t72.5 52.5t86 19q48 0 86 -19t64.5 -52.5t40.5 -78t15 -95.5q0 -51 -13.5 -95.5t-40 -78.5t-65 -53.5t-87.5 -19.5zM280 108q35 0 62.5 16.5t44 45.5t16.5 66q0 38 -16.5 67t-44 46t-62.5 17
t-63 -16.5t-44.5 -46t-16.5 -67.5q0 -37 16.5 -66t45 -45.5t62.5 -16.5zM465 -9q-28 0 -41 9.5t-17 30.5v616q0 17 2.5 30.5t15 22t39.5 8.5q29 0 41 -8t15.5 -21.5t3.5 -30.5v-596q0 -17 -3 -31t-15.5 -22t-40.5 -8z" />
    <glyph glyph-name="e" unicode="e" horiz-adv-x="539" 
d="M290 -16q-65 0 -113.5 21t-81 57.5t-49 82t-16.5 94.5q0 72 33 128t91.5 88t134.5 32q54 0 95 -17t68.5 -44.5t42 -60.5t14.5 -64q0 -53 -25.5 -77t-63.5 -24h-264q1 -34 21.5 -59t52 -38.5t64.5 -13.5q25 0 44.5 3t33.5 7.5t24.5 9.5t19.5 9t17 5q11 1 22 -5t18 -21
q6 -10 8.5 -18.5t2.5 -16.5q0 -20 -24 -37.5t-67.5 -29t-102.5 -11.5zM156 271h205q17 0 26 5.5t9 23.5q0 23 -14 41.5t-38 29t-56 10.5q-37 0 -67 -14.5t-47.5 -39.5t-17.5 -56z" />
    <glyph glyph-name="f" unicode="f" horiz-adv-x="392" 
d="M168 -10q-27 0 -39.5 8t-15.5 22.5t-3 30.5v486q0 37 10 68.5t32 54.5t57 36.5t85 13.5q17 0 30.5 -3.5t22 -15.5t8.5 -41q0 -27 -8.5 -40t-22.5 -16t-31 -3t-29.5 -1.5t-20 -6.5t-11 -16t-3.5 -28v-490q0 -16 -3.5 -29.5t-16.5 -21.5t-41 -8zM69 473l103 -1l138 4
q17 0 30.5 -3.5t21.5 -16t8 -40.5q0 -26 -8 -39t-21 -16.5t-30 -3.5l-134 2l-111 -1q-25 1 -34.5 14.5t-9.5 44.5q0 29 11.5 42.5t35.5 13.5z" />
    <glyph glyph-name="g" unicode="g" horiz-adv-x="559" 
d="M267 -210q-36 0 -69 8.5t-59.5 22.5t-42 30t-15.5 30t4.5 24t13.5 20q12 12 19.5 18t20.5 6q11 0 21.5 -8t24.5 -18t34 -18t51 -8q26 0 48 9t37.5 26.5t24.5 41.5t9 54l-1 414q2 23 16 32.5t43 9.5q27 0 39 -7.5t15 -21t3 -29.5v-405q0 -55 -19 -98t-52 -72.5t-75.5 -45
t-90.5 -15.5zM256 3q-47 0 -87.5 18t-71 51t-48 76.5t-17.5 94.5q0 50 17.5 93t48 76t71 51.5t86.5 18.5q45 0 78.5 -17.5t55.5 -49.5t33.5 -76t11.5 -97q0 -73 -20 -127t-59 -83t-99 -29zM267 116q34 0 60.5 16.5t42 45.5t15.5 65q0 37 -15.5 65.5t-42.5 44.5t-61 16
t-60.5 -16.5t-41.5 -44.5t-15 -65t15.5 -65.5t42 -45t60.5 -16.5z" />
    <glyph glyph-name="h" unicode="h" horiz-adv-x="545" 
d="M106 -10q-28 0 -40.5 8.5t-15.5 22.5t-3 30v597q0 17 3.5 30.5t16 21.5t40.5 8t40.5 -8.5t16 -22t3.5 -30.5v-226q20 23 51.5 42.5t76.5 19.5q61 0 109 -29.5t76 -81.5t28 -122v-200q0 -16 -3 -29.5t-15.5 -21.5t-40.5 -8t-41 8t-16 21.5t-3 31.5v199q0 35 -12 61
t-35.5 40.5t-58.5 14.5q-47 0 -79 -27.5t-37 -70.5v-219q0 -16 -3.5 -30t-16 -22t-41.5 -8z" />
    <glyph glyph-name="i" unicode="i" horiz-adv-x="233" 
d="M116 -10q-27 0 -40 8.5t-16 22t-3 30.5v372q0 16 3.5 29.5t16 21.5t40.5 8t40.5 -8t15.5 -22t3 -31v-371q0 -17 -3 -30.5t-15.5 -21.5t-41.5 -8zM116 579q-29 0 -42.5 8.5t-17 23.5t-3.5 33q0 19 3.5 33t17.5 22.5t43 8.5q30 0 43 -9t17 -23.5t4 -33.5q0 -17 -4 -32
t-17 -23t-44 -8z" />
    <glyph glyph-name="j" unicode="j" horiz-adv-x="238" 
d="M-42 -209q-15 0 -28.5 3.5t-22 15.5t-8.5 40q0 26 8.5 38t22 16t30.5 4q18 0 36 3.5t33 14t23.5 31t8.5 54.5v418q0 15 3.5 27.5t16.5 20t40 7.5t39 -8t15.5 -22t3.5 -30v-415q0 -55 -18.5 -96.5t-49.5 -68.5t-70.5 -40t-82.5 -13zM119 580q-36 0 -49.5 14t-13.5 51
q0 36 13.5 49t50.5 13q36 0 49.5 -13.5t13.5 -50.5q0 -36 -13.5 -49.5t-50.5 -13.5z" />
    <glyph glyph-name="k" unicode="k" horiz-adv-x="497" 
d="M444 98q26 -22 27.5 -41t-20.5 -44q-17 -19 -30 -25t-26 -0.5t-31 20.5l-191 161v-119q0 -16 -3.5 -30t-16 -22t-40.5 -8t-40.5 8.5t-15.5 22.5t-3 30v597q0 17 3.5 30.5t16 22t40.5 8.5t40 -8.5t15.5 -22t3.5 -31.5v-328l138 134q16 15 30 20.5t27.5 1t28.5 -21.5
q25 -27 24 -44.5t-25 -41.5l-135 -125z" />
    <glyph glyph-name="l" unicode="l" horiz-adv-x="291" 
d="M224 -10q-37 0 -65.5 5t-49 17t-33.5 32.5t-19.5 50.5t-6.5 72v482q0 17 3.5 30.5t16 22t40.5 8.5t40.5 -8t16 -21.5t3.5 -30.5v-478q0 -19 2.5 -31.5t9 -20t17 -10.5t25.5 -3q13 0 23.5 -3t17 -15t6.5 -39q0 -28 -6.5 -41t-17.5 -16t-23 -3z" />
    <glyph glyph-name="m" unicode="m" horiz-adv-x="814" 
d="M110 -9q-27 0 -39.5 8t-15.5 22t-3 30v374q0 16 3 29t16 21t41 8q29 0 42.5 -12t13.5 -38l-9 -28q5 11 17 24t29.5 26t39.5 21t46 8q33 0 60.5 -11t49 -32t37.5 -51q17 26 38 47.5t49 34t63 12.5q58 0 97.5 -29t60 -82.5t20.5 -127.5v-194q0 -17 -3.5 -30.5t-16 -21.5
t-40.5 -8t-41 8.5t-16 22t-3 30.5v194q0 37 -9 64t-26.5 42t-45.5 15q-30 0 -51.5 -14.5t-33.5 -41.5t-12 -66v-195q0 -17 -5 -31.5t-19.5 -22t-41.5 -5.5q-25 1 -36.5 10t-14 22.5t-2.5 28.5v194q0 37 -9 64.5t-26.5 42t-46.5 14.5q-31 0 -52.5 -16t-32.5 -43t-11 -62v-196
q0 -16 -3.5 -30t-16 -21.5t-41.5 -7.5z" />
    <glyph glyph-name="n" unicode="n" horiz-adv-x="560" 
d="M111 -9q-27 0 -39.5 8.5t-15.5 22t-3 30.5v374q0 16 3 29t16 20.5t40 7.5q24 0 36 -6t16 -15t4.5 -18t1.5 -14l-4 -32q6 16 20 31t34 27.5t43.5 20t48.5 7.5q47 0 84 -17t63.5 -48t40.5 -73.5t14 -95.5v-199q0 -17 -3.5 -30.5t-15.5 -21.5t-41 -8q-28 0 -41 8.5t-16 22
t-3 30.5v199q0 36 -12.5 62t-36 40t-59.5 14q-35 0 -61 -14.5t-40 -40.5t-14 -61v-200q0 -17 -3 -30.5t-15.5 -21.5t-41.5 -8z" />
    <glyph glyph-name="o" unicode="o" horiz-adv-x="559" 
d="M282 -16q-48 0 -93.5 18.5t-82 52.5t-58 80t-21.5 101q0 53 20 99t55 81t80.5 54.5t97.5 19.5q70 0 127 -33.5t91 -90.5t34 -129q0 -57 -21 -103.5t-57 -80t-80.5 -51.5t-91.5 -18zM280 102q33 0 63.5 16.5t50 47.5t19.5 73q0 39 -17.5 69t-47.5 47t-69 17
q-37 0 -67 -17.5t-47.5 -48t-17.5 -68.5q0 -42 19 -72.5t49.5 -47t64.5 -16.5z" />
    <glyph glyph-name="p" unicode="p" horiz-adv-x="563" 
d="M305 -3q-49 0 -87.5 18.5t-65 52t-40 77.5t-13.5 95q1 51 15 95.5t40.5 77.5t64.5 52t86 19q46 0 86.5 -19t72 -53t49.5 -78.5t18 -95.5q0 -52 -18 -96t-49 -76.5t-72 -50.5t-87 -18zM105 -211q-27 0 -40 8t-16 21t-3 30v575q0 17 3 30t15.5 21.5t39.5 8.5q26 0 41 -8
t20 -27v-599q1 -17 -2.5 -30.5t-16.5 -21.5t-41 -8zM289 109q35 0 63 16.5t44.5 46t16.5 66.5q0 38 -16.5 67t-44.5 45.5t-63 16.5q-34 0 -62 -17t-44.5 -45.5t-16.5 -66.5q0 -37 16.5 -66.5t44.5 -46t62 -16.5z" />
    <glyph glyph-name="q" unicode="q" horiz-adv-x="560" 
d="M254 -3q-46 0 -87 18t-72 50.5t-49 76.5t-18 96q0 51 18 95.5t49.5 78.5t72.5 53t86 19q48 0 86 -19t64.5 -52t40.5 -77.5t15 -95.5q0 -51 -13.5 -95t-40 -77.5t-65 -52t-87.5 -18.5zM270 109q34 0 62 16.5t44.5 46t16.5 66.5q0 38 -16.5 66.5t-44 45.5t-62.5 17
t-63 -16.5t-44.5 -45.5t-16.5 -67q0 -37 16.5 -66.5t45 -46t62.5 -16.5zM454 -211q-28 0 -41 8t-16 21.5t-3 30.5v599q4 13 11.5 20.5t20 11t29.5 3.5q27 0 39.5 -8.5t15.5 -21.5t3 -30v-575q0 -17 -3 -30t-15.5 -21t-40.5 -8z" />
    <glyph glyph-name="r" unicode="r" horiz-adv-x="415" 
d="M111 -10q-27 0 -39.5 8.5t-15.5 22.5t-3 31v371q0 18 3 31.5t15.5 21t40.5 7.5q27 0 39.5 -7t16 -17.5t3.5 -20.5l-8 -18q5 8 14 19.5t24 23t36 19t50 7.5q12 0 25.5 -2.5t27 -7t24.5 -11.5t17 -16.5t6 -21.5q0 -32 -16 -54t-38 -22q-15 0 -22 3t-11.5 7t-13 7t-26.5 3
q-15 0 -30.5 -5t-28.5 -15t-21 -25.5t-8 -35.5v-243q0 -17 -3 -30.5t-16 -21.5t-42 -8z" />
    <glyph glyph-name="s" unicode="s" horiz-adv-x="459" 
d="M223 -16q-26 0 -55 5.5t-56 16t-46.5 25t-24.5 32.5q-4 10 -3 19.5t6 20t15 21.5q9 11 18.5 12.5t24.5 -6.5q13 -5 28.5 -13t32 -16t34 -13t34.5 -5q37 0 59 12.5t22 35.5q0 13 -7 23t-18.5 16.5t-27 12t-33 10t-36.5 10.5q-25 7 -50 17t-44.5 26t-31.5 40t-12 60
q0 45 21.5 76.5t62.5 48.5t99 17q20 0 38.5 -3t36 -8.5t34 -13.5t31.5 -18q25 -14 26 -32.5t-14 -39.5q-11 -14 -22 -19.5t-23 -0.5q-16 8 -34.5 17.5t-38 16.5t-40.5 7q-20 0 -36 -6t-24 -17t-8 -26q0 -14 8 -23t21 -15t31 -10.5t38 -8.5q28 -6 57 -15t53.5 -25t39.5 -42.5
t15 -68.5q0 -73 -53.5 -113t-147.5 -40z" />
    <glyph glyph-name="t" unicode="t" horiz-adv-x="394" 
d="M295 -10q-49 0 -84 10t-57 31t-32.5 54.5t-10.5 79.5v424q0 18 3.5 31t16 20.5t39.5 7.5q28 0 40.5 -8t16 -21.5t3.5 -29.5v-420q0 -21 3.5 -34t11 -19.5t20 -9t30.5 -2.5q19 0 32.5 -3t20.5 -14.5t7 -37.5q0 -28 -8.5 -40.5t-22 -15.5t-29.5 -3zM70 473l103 -1l138 4
q17 0 30.5 -3.5t21.5 -16t8 -40.5q0 -26 -8 -39t-21 -16.5t-30 -3.5l-134 2l-111 -1q-25 1 -34.5 14.5t-9.5 44.5q0 29 11.5 42.5t35.5 13.5z" />
    <glyph glyph-name="u" unicode="u" horiz-adv-x="551" 
d="M256 -9q-46 0 -84.5 16.5t-67.5 47.5t-45 74t-16 95v199q0 17 3 30.5t16 21.5t40 8q29 0 41.5 -8t15.5 -22t3 -31v-198q0 -36 12.5 -62t36.5 -40.5t59 -14.5q36 0 61.5 14.5t39.5 41t14 61.5v200q0 17 3 30.5t16 21t41 7.5t40 -8t15.5 -22t3.5 -30v-375q0 -15 -3.5 -28
t-16 -21t-40.5 -8q-20 0 -31.5 4.5t-17 12t-7 15.5t-1.5 16l8 27q-6 -9 -18 -21.5t-29.5 -25t-40.5 -20.5t-51 -8z" />
    <glyph glyph-name="v" unicode="v" horiz-adv-x="551" 
d="M275 -12q-21 0 -35 7t-22 23l-182 381q-15 30 -8 48t36 32q30 15 48 10t32 -37l131 -307l129 301q14 33 32 41.5t52 -8.5t36 -37.5t-11 -46.5l-181 -377q-8 -15 -22 -22.5t-35 -7.5z" />
    <glyph glyph-name="w" unicode="w" horiz-adv-x="755" 
d="M232 -9q-20 0 -31.5 7.5t-17 18.5t-9.5 20l-147 372q-6 19 -5.5 32t10 22.5t28.5 16.5q32 13 50.5 7t27.5 -34l95 -252l86 241q3 9 9 19t17.5 17.5t31.5 7.5q21 0 33 -7.5t18.5 -17.5t8.5 -19l86 -243l91 245q12 31 30 41t49 -2q28 -12 38 -29.5t-2 -45.5l-148 -371
q-4 -10 -9.5 -20.5t-17 -18t-30.5 -7.5q-20 0 -31.5 6.5t-17.5 17.5t-10 23l-87 247l-87 -247q-6 -14 -11 -25t-16 -16.5t-32 -5.5z" />
    <glyph glyph-name="x" unicode="x" horiz-adv-x="509" 
d="M454 469q19 -17 24.5 -30t0 -26.5t-22.5 -32.5l-317 -367q-17 -18 -30 -24.5t-25.5 -1.5t-29.5 19q-17 17 -23 29.5t0.5 26.5t22.5 32l317 367q25 27 41.5 29t41.5 -21zM55 469q17 15 29.5 19t25 -2.5t28.5 -24.5l317 -367q17 -18 23 -32t1 -26.5t-24 -29.5
q-17 -15 -29.5 -19.5t-25 2t-30.5 24.5l-317 367q-16 18 -22 32t0 27.5t24 29.5z" />
    <glyph glyph-name="y" unicode="y" horiz-adv-x="543" 
d="M176 -207q-32 14 -37 31.5t9 46.5l258 578q14 32 30 38.5t49 -7.5q31 -14 36.5 -31t-7.5 -46l-260 -581q-13 -32 -29 -37.5t-49 8.5zM269 38l-231 355q-18 27 -14.5 45t31.5 35q31 19 48.5 15t35.5 -32l183 -285z" />
    <glyph glyph-name="z" unicode="z" horiz-adv-x="536" 
d="M89 -10q-27 0 -43 16.5t-16 42.5q0 14 4.5 25t13.5 20l261 269h-197q-16 0 -30 3.5t-22.5 16t-8.5 40.5t8.5 40.5t22.5 16t30 3.5h323q26 0 42.5 -16t16.5 -42q0 -13 -4.5 -24.5t-11.5 -18.5l-258 -272h227q17 0 30.5 -3.5t21.5 -16.5t8 -41q0 -27 -8.5 -40t-22 -16
t-30.5 -3h-357z" />
    <glyph glyph-name="braceleft" unicode="{" horiz-adv-x="368" 
d="M273 -164q-33 0 -59 9.5t-43 29t-26 48t-9 65.5l-1 201q0 18 -5 29t-14.5 17.5t-22.5 9.5t-29 3h-10q-19 0 -27 12.5t-8 39.5q0 25 5.5 36t13.5 14.5t15 3.5h8q16 0 29.5 2.5t23.5 9t15.5 18t5.5 29.5l1 205q0 36 9 64t26 46.5t42.5 28.5t58.5 10q16 0 28 -3t19.5 -14.5
t7.5 -35.5q0 -23 -7.5 -34.5t-19.5 -15t-27 -3.5q-12 0 -19 -4.5t-10 -15.5t-3 -31v-173q0 -29 -3.5 -51.5t-11.5 -39.5t-22 -29.5t-33 -20.5q19 -8 33 -21.5t22 -32t11.5 -41.5t3.5 -50v-173q0 -13 3 -21.5t9.5 -12t18.5 -3.5q16 0 28 -3t19.5 -14t7.5 -36
q0 -24 -7.5 -35.5t-19.5 -14t-27 -2.5z" />
    <glyph glyph-name="bar" unicode="|" horiz-adv-x="210" 
d="M106 -214q-23 0 -33.5 8.5t-13.5 22t-3 30.5v802q0 16 3 29.5t14 21.5t34 8q24 0 34.5 -8.5t13.5 -22t3 -30.5v-802q0 -16 -3 -29.5t-14 -21.5t-35 -8z" />
    <glyph glyph-name="braceright" unicode="}" horiz-adv-x="368" 
d="M72 -164q-14 0 -26 2.5t-19.5 14t-7.5 35.5q0 25 7.5 36t20 14t26.5 3q12 0 19 3.5t10 12t3 21.5v173q0 27 3.5 50t11.5 41.5t21.5 32t33.5 21.5q-20 8 -33.5 20.5t-21.5 29.5t-11.5 39.5t-3.5 51.5v173q0 20 -3.5 31t-10 15.5t-18.5 4.5q-15 0 -27.5 3.5t-19.5 15
t-7 34.5q0 24 7 35.5t19.5 14.5t27.5 3q34 0 59 -10t42.5 -28.5t26.5 -46.5t9 -64l1 -205q0 -18 5 -29.5t15 -18t23.5 -9t29.5 -2.5h8q8 0 16 -3.5t13.5 -14.5t5.5 -36q0 -27 -8 -39.5t-28 -12.5h-10q-16 0 -29 -3t-22.5 -9.5t-14.5 -18t-5 -28.5v-201q0 -37 -9 -65.5
t-26.5 -48t-43 -29t-59.5 -9.5z" />
    <glyph glyph-name="asciitilde" unicode="~" horiz-adv-x="554" 
d="M201 353q25 0 44.5 -7t35 -16.5t28.5 -19.5t25 -17t24 -7t21 6.5t17 16.5t17.5 19t22.5 14q8 6 20.5 5.5t25.5 -9.5q16 -10 23.5 -21t7.5 -23q0 -19 -14 -40t-37.5 -39.5t-51 -30t-54.5 -11.5t-46.5 7t-34.5 17t-27.5 20t-24.5 16.5t-25 6.5q-12 0 -21.5 -6.5t-18.5 -16
t-18.5 -18.5t-22.5 -14q-5 -3 -12.5 -3t-16.5 3t-18 9q-23 18 -27 33.5t9 36.5q5 11 18 26t32.5 29.5t44.5 24t54 9.5z" />
    <glyph glyph-name="uni00A0" unicode="&#xa0;" horiz-adv-x="248" 
 />
    <glyph glyph-name="exclamdown" unicode="&#xa1;" horiz-adv-x="237" 
d="M119 282q28 0 40.5 -7.5t16 -20t3.5 -28.5v-376q0 -15 -3.5 -28t-16 -20.5t-40.5 -7.5t-41 7.5t-16 20.5t-3 28v377q0 15 3 27.5t16 20t41 7.5zM119 495q31 0 45 -9t17.5 -24t3.5 -34q0 -37 -13 -52t-53 -15q-31 0 -45 9t-18 24.5t-4 33.5q0 37 13.5 52t53.5 15z" />
    <glyph glyph-name="cent" unicode="&#xa2;" horiz-adv-x="419" 
d="M231 -78q-21 0 -31 7.5t-12.5 20t-2.5 26.5v76q-52 9 -89.5 38.5t-57.5 74t-20 98.5t20 98t57.5 73t89.5 38v84q0 16 2.5 28t12.5 19t31 7q22 0 31.5 -7.5t12 -19.5t2.5 -28v-83q22 -3 40 -10t32 -16.5t22 -19.5q12 -10 19 -20.5t4 -24.5q-3 -8 -9 -16t-13 -15
q-21 -23 -42 -16q-15 9 -29.5 18.5t-30 15.5t-36.5 6q-34 0 -58.5 -15t-37 -40.5t-12.5 -56.5t12.5 -56.5t36.5 -40.5t57 -15q20 0 36.5 5t31.5 13t29 16q11 3 21.5 0.5t23.5 -14.5q8 -6 13.5 -14t8.5 -17q2 -11 -3.5 -23.5t-21.5 -23.5q-13 -12 -28.5 -21t-31.5 -14t-34 -7
v-74q0 -15 -2.5 -27.5t-12.5 -19.5t-31 -7z" />
    <glyph glyph-name="sterling" unicode="&#xa3;" horiz-adv-x="652" 
d="M137 -10q-27 0 -42 16t-15 44t9.5 44.5t22.5 30.5t22.5 35t9.5 57q0 7 -2.5 27t-9.5 39h-65q-14 0 -24.5 3t-17 14t-6.5 34q0 24 6.5 34.5t18 13.5t25.5 3h41v51q0 37 7 64.5t21 56.5q20 41 55.5 72t83.5 48.5t106 17.5q42 0 76.5 -9.5t61 -24t44 -29t25.5 -24.5
q20 -23 21 -44t-20 -41q-24 -21 -46 -21t-38 20q-10 12 -25 24.5t-39 22t-59 9.5q-47 0 -82 -17.5t-54 -50t-19 -76.5v-49h127q14 0 25 -3t17 -13.5t6 -35.5q0 -22 -6.5 -33t-17.5 -14t-24 -3h-103q5 -18 7 -37.5t2 -30.5q0 -16 -4.5 -35.5t-11.5 -38t-16 -32.5h339
q17 0 30 -3.5t21 -16t8 -41.5q0 -27 -8 -39t-21.5 -15.5t-30.5 -3.5h-431z" />
    <glyph glyph-name="currency" unicode="&#xa4;" horiz-adv-x="654" 
d="M61 0q-24 13 -27.5 28t6.5 34q8 20 22.5 38.5t33 34t37.5 23.5q-19 15 -38 41.5t-31.5 64t-12.5 83.5q0 59 21.5 112.5t63.5 89.5q-33 14 -56.5 37.5t-35.5 48.5q-11 24 -8 39.5t25 29.5q24 15 38.5 9.5t28.5 -28.5q5 -9 10.5 -16.5t11.5 -15.5q10 -16 38.5 -24.5
t64.5 -11.5t69 -3h13q38 0 73 3.5t60.5 12t34.5 23.5q5 8 10 15.5t10 15.5q15 23 28.5 26.5t37.5 -8.5q26 -14 28 -28.5t-10 -38.5q-12 -26 -35.5 -49t-62.5 -39q45 -31 67 -83.5t22 -113.5q0 -37 -10 -73.5t-27.5 -67.5t-42.5 -52q18 -7 36 -22.5t32.5 -33t20.5 -34.5
q12 -23 9 -37t-27 -29t-38 -10t-27 29q-6 10 -11 18t-11 17q-7 12 -29.5 19.5t-59 11.5t-84.5 4h-21q-36 0 -63 -2.5t-45.5 -7t-30.5 -11t-19 -14.5q-10 -12 -14.5 -21l-8.5 -17q-14 -24 -27.5 -27t-38.5 10zM320 187q55 0 93.5 19t58.5 55.5t20 89.5q0 52 -19.5 88
t-56.5 55.5t-91 19.5q-52 0 -89 -19t-56.5 -55t-19.5 -88t19 -88.5t55 -56.5t86 -20z" />
    <glyph glyph-name="yen" unicode="&#xa5;" horiz-adv-x="654" 
d="M598 682q28 -20 31 -38t-14 -42l-223 -337v-215q0 -17 -3.5 -30.5t-16 -22t-41.5 -8.5q-28 0 -41 8.5t-16.5 22.5t-3.5 32v213l-224 336q-17 25 -13 43t32 37q31 22 49 17.5t35 -31.5l182 -288l182 288q18 28 36 31t49 -16zM182 112q-13 0 -25 2.5t-19.5 12.5t-7.5 30
t8 29.5t20 12t25 2.5h286q14 0 25.5 -2.5t19 -12t7.5 -30.5q0 -20 -7 -29.5t-19 -12t-26 -2.5h-287zM182 248q-13 0 -25 2.5t-19.5 12t-7.5 29.5q0 26 12.5 35.5t38.5 9.5h290q27 0 38.5 -9.5t11.5 -35.5q0 -20 -7 -29.5t-19 -12t-26 -2.5h-287z" />
    <glyph glyph-name="brokenbar" unicode="&#xa6;" horiz-adv-x="208" 
d="M106 292q-23 0 -33.5 8.5t-13.5 20t-3 21.5v307q0 17 3 30t14 21t34 8t33.5 -8t13.5 -21.5t3 -30.5v-307q0 -10 -3 -21.5t-13.5 -19.5t-34.5 -8zM106 -210q-23 0 -33.5 8.5t-13.5 22t-3 29.5v307q0 10 3 21.5t14 19.5t34 8q24 0 34 -8t13 -19.5t3 -22.5v-307
q0 -16 -3 -29.5t-13.5 -21.5t-34.5 -8z" />
    <glyph glyph-name="section" unicode="&#xa7;" horiz-adv-x="541" 
d="M271 -222q-41 0 -76.5 10.5t-64 27.5t-48 35.5t-29.5 34.5q-19 27 -18 45t27 41q29 22 47.5 13t40.5 -32q17 -21 37 -35.5t40.5 -21.5t40.5 -7q39 0 66 9.5t41.5 29.5t14.5 50q0 26 -18 42t-48.5 26.5t-66 20.5t-71.5 23t-68 33.5t-51.5 53.5t-19.5 83q0 31 10 56.5
t28 46t42 34.5q-35 23 -57.5 56t-22.5 81q0 55 27.5 96t76 63.5t111.5 22.5q43 0 77 -9.5t61.5 -25t48.5 -35.5q22 -20 23 -35t-17 -39q-20 -27 -39.5 -29.5t-42.5 15.5q-12 12 -28 22.5t-36.5 17t-47.5 6.5t-49 -7.5t-35 -23t-13 -40.5q0 -26 18.5 -42.5t49.5 -27t67.5 -20
t73 -22.5t67.5 -33t49.5 -52t18.5 -80t-21 -83t-56 -59q34 -22 55.5 -54t21.5 -79q0 -52 -20 -90.5t-54 -63.5t-76 -37t-87 -12zM308 167q25 5 43 15t28.5 28t10.5 43q0 17 -9.5 30t-27.5 23.5t-44 19t-58 16.5q-40 -7 -63.5 -27t-23.5 -56q0 -16 7.5 -28.5t21.5 -21.5
t32 -16t39.5 -13.5t43.5 -12.5z" />
    <glyph glyph-name="dieresis" unicode="&#xa8;" horiz-adv-x="398" 
d="M289 556q-31 0 -44 9.5t-16 24.5t-3 30q0 16 3 30.5t16 23.5t45 9t45 -9.5t15.5 -24t2.5 -30.5q0 -15 -2.5 -29.5t-15.5 -24t-46 -9.5zM109 556q-32 0 -45 9.5t-16 24.5t-3 30q1 16 3.5 30.5t15.5 23.5t45 9t45 -9.5t15.5 -24t2.5 -30.5q0 -15 -2.5 -29.5t-15.5 -24
t-45 -9.5z" />
    <glyph glyph-name="copyright" unicode="&#xa9;" horiz-adv-x="656" 
d="M330 102q-76 0 -132 17t-92 53t-53.5 91.5t-17.5 132.5q0 79 17.5 135.5t53.5 93t91 54t130 17.5q76 0 131.5 -17.5t91.5 -54t53.5 -92.5t17.5 -134t-17.5 -134.5t-53.5 -92t-91 -52.5t-129 -17zM338 212q-53 0 -95.5 25t-67 68t-24.5 98q0 50 24.5 91t66 65.5t92.5 24.5
q35 0 59 -9.5t38 -21t16 -16.5q9 -13 8 -26.5t-14 -27.5q-8 -7 -16 -9t-15 1t-15 7q-2 1 -18.5 10t-40.5 9q-30 0 -53 -13t-36 -36.5t-13 -53.5t13 -53.5t36 -37t52 -13.5q20 0 32 6t21 11.5t18 6.5q14 3 21.5 3t18.5 -15q16 -21 11.5 -37t-22.5 -28q-10 -6 -24.5 -13
t-32.5 -11.5t-40 -4.5zM328 175q60 0 102 12t68 39t38 69.5t12 103.5t-12.5 104t-39 69.5t-68 38.5t-100.5 12q-60 0 -101.5 -12.5t-67.5 -39.5t-38.5 -70t-12.5 -104t12.5 -103.5t39.5 -69t68.5 -38t99.5 -11.5z" />
    <glyph glyph-name="ordfeminine" unicode="&#xaa;" horiz-adv-x="430" 
d="M344 680q22 0 31.5 -7t12.5 -18.5t3 -26.5v-270q0 -14 -3 -25.5t-13 -18t-32 -6.5q-24 0 -35 10t-12 34l10 15q-8 -17 -25 -31t-39 -21.5t-49 -7.5q-47 0 -86.5 25.5t-63 68t-23.5 95.5q0 51 24 93t63 66.5t86 24.5q27 0 48.5 -8t37 -20t25.5 -26l-9 7q1 25 12 36t37 11z
M208 401q25 0 43.5 12t29.5 33t11 48q0 28 -11 49t-30.5 33t-44.5 12q-40 0 -65.5 -27t-25.5 -69q0 -26 12 -46.5t33 -32.5t48 -12z" />
    <glyph glyph-name="guillemotleft" unicode="&#xab;" horiz-adv-x="577" 
d="M302 8q-15 -16 -27.5 -21.5t-24.5 -0.5t-27 19l-188 187q-10 10 -14.5 20t-4.5 20q0 11 4.5 20.5t14.5 19.5l189 188q15 15 27 19t24 -1.5t27 -20.5q17 -16 19.5 -28.5t-4.5 -24t-22 -26.5l-146 -146l146 -146q15 -15 22.5 -26.5t4 -23.5t-19.5 -28zM542 8
q-15 -16 -27.5 -21.5t-24.5 -0.5t-27 19l-188 187q-10 10 -14.5 20t-4.5 20q0 11 4.5 20.5t14.5 19.5l189 188q15 15 27 19t24 -1.5t27 -20.5q17 -16 19.5 -28.5t-4.5 -24t-22 -26.5l-146 -146l146 -146q15 -15 22.5 -26.5t4 -23.5t-19.5 -28z" />
    <glyph glyph-name="logicalnot" unicode="&#xac;" horiz-adv-x="508" 
d="M433 120q-24 0 -35 7.5t-14 19.5t-3 24v92h-303q-13 0 -24.5 3.5t-18.5 16t-7 39.5q0 29 7 41.5t19 16t25 3.5h352q30 0 41.5 -12.5t11.5 -39.5v-160q0 -13 -3 -24.5t-14 -19t-34 -7.5z" />
    <glyph glyph-name="registered" unicode="&#xae;" horiz-adv-x="656" 
d="M327 696q76 0 131.5 -17.5t91.5 -54t53.5 -92.5t17.5 -134t-17.5 -134.5t-53.5 -92t-91 -52.5t-129 -17q-76 0 -132 17t-92 53t-53.5 91.5t-17.5 132.5q0 79 17.5 135.5t53.5 93t91 54t130 17.5zM328 175q58 0 100 12.5t68.5 39.5t39 69.5t12.5 102.5q0 61 -12.5 104
t-39 69.5t-68 38.5t-100.5 12q-60 0 -101.5 -12.5t-67.5 -39.5t-38.5 -70t-12.5 -104t12.5 -103.5t39.5 -69t68.5 -38t99.5 -11.5zM427 360l49 -99q5 -9 -0.5 -18.5t-16 -15.5t-23.5 -9q-12 -2 -21 3.5t-14 17.5l-49 93h-68v-75q0 -9 -2.5 -18t-11 -15t-26.5 -6
q-17 0 -25.5 6t-11 15.5t-2.5 17.5v294q0 12 4.5 20t14.5 11.5t25 3.5h95q40 0 68.5 -15.5t44.5 -44.5t16 -69q0 -25 -11 -52.5t-35 -44.5zM284 506v-95h69q19 0 30 13t12 34q0 24 -13 36t-38 12h-60z" />
    <glyph glyph-name="macron" unicode="&#xaf;" horiz-adv-x="450" 
d="M126 570q-8 0 -16.5 2.5t-14 10.5t-5.5 25q0 18 5.5 26t13.5 10t16 2h192q9 0 17 -2t13.5 -10t5.5 -26q0 -17 -5.5 -25t-13.5 -10.5t-17 -2.5h-191z" />
    <glyph glyph-name="degree" unicode="&#xb0;" horiz-adv-x="347" 
d="M174 390q-43 0 -78.5 21.5t-57 57.5t-21.5 78q0 44 21.5 80t56.5 57.5t78 21.5t79 -21t57 -56.5t21 -80.5q0 -43 -21 -79t-56.5 -57.5t-78.5 -21.5zM173 479q29 0 49 20.5t20 49.5q0 30 -20 49t-49 19t-48.5 -20t-19.5 -49t20 -49t48 -20z" />
    <glyph glyph-name="plusminus" unicode="&#xb1;" horiz-adv-x="489" 
d="M77 247q-13 0 -25 2.5t-19.5 13.5t-7.5 35t7.5 35t19.5 14t24 3h337q14 0 25.5 -3t18.5 -14t7 -36q0 -23 -7 -34t-19 -13.5t-26 -2.5h-335zM245 135q-26 0 -38 7.5t-15.5 20t-3.5 27.5v222q0 15 3.5 27.5t15.5 19.5t38 7t38 -7.5t15 -20t3 -28.5v-219q0 -16 -3 -28.5
t-15 -20t-38 -7.5zM77 -9q-13 0 -25 2.5t-19.5 13t-7.5 34.5q0 25 7.5 35.5t19.5 13.5t24 3h337q14 0 25.5 -3t18.5 -14t7 -35t-7 -34.5t-19 -13t-26 -2.5h-335z" />
    <glyph glyph-name="uni00B2" unicode="&#xb2;" horiz-adv-x="439" 
d="M81 193q-17 0 -30 7.5t-20 20t-7 28.5t3 30.5t12.5 27.5t25.5 25q42 29 81 53t70 46.5t49.5 48t18.5 55.5q0 17 -8.5 32t-25 24.5t-43.5 9.5q-28 0 -45 -12t-24.5 -30.5t-7.5 -38.5q0 -15 -4 -26.5t-15.5 -19t-36.5 -7.5q-26 0 -36.5 9.5t-12.5 22.5t-2 24
q0 54 23.5 95.5t65 65t95.5 23.5q55 0 96 -22.5t64.5 -63.5t23.5 -95q0 -26 -8 -50t-23 -45.5t-36.5 -42t-48 -41t-58.5 -40.5l-35 -8h182q12 0 22.5 -3t17.5 -14.5t7 -36.5q0 -23 -7 -34.5t-17.5 -14.5t-22.5 -3h-283z" />
    <glyph glyph-name="uni00B3" unicode="&#xb3;" horiz-adv-x="441" 
d="M210 183q-51 0 -93 21t-67.5 56t-27.5 77q0 13 7 23t20 15t30 5q23 0 31.5 -9.5t13.5 -25.5q4 -13 15 -27.5t29 -24.5t44 -10q27 0 45.5 9.5t27.5 25t9 31.5q0 29 -19 44.5t-57 15.5q-14 0 -24.5 3t-15.5 13.5t-5 31.5q0 18 5.5 26.5t15.5 11.5t22 3q30 0 46 13t16 37
t-18 40t-47 16q-20 0 -33.5 -6.5t-22 -16.5t-15.5 -23q-4 -9 -12.5 -16.5t-24.5 -7.5q-11 0 -20.5 4t-21.5 13q-21 18 -18 39q5 16 18.5 36t35 38t51 29.5t65.5 11.5q49 0 87.5 -20t61.5 -54t23 -76q0 -28 -12.5 -52.5t-34.5 -41.5q18 -12 32 -30t21.5 -38t7.5 -42
q0 -48 -25 -86t-68 -60t-98 -22z" />
    <glyph glyph-name="acute" unicode="&#xb4;" horiz-adv-x="430" 
d="M138 536q-16 -3 -26.5 6t-17.5 32q-9 28 -3.5 42.5t30.5 22.5l168 53q16 3 26.5 -6.5t16.5 -32.5q10 -27 3.5 -41.5t-30.5 -22.5z" />
    <glyph glyph-name="uni03BC" unicode="&#xb5;" horiz-adv-x="580" 
d="M110 -210q-27 0 -39.5 8.5t-16 22t-3.5 28.5v575q0 17 4 30.5t16.5 21t39.5 7.5q28 0 40.5 -8.5t15.5 -22t3 -29.5v-199q0 -35 12.5 -61t36.5 -40t59 -14t60.5 14.5t39.5 40.5t14 61v199q0 17 3 30.5t16 21t41 7.5q27 0 39.5 -8t15.5 -22t3 -30v-372q0 -15 -3 -28.5
t-15.5 -21t-40.5 -7.5q-18 0 -29 3.5t-17 9.5t-8.5 13.5t-3.5 15.5l8 28q-9 -12 -20.5 -24t-27.5 -23t-36 -17.5t-45 -6.5q-31 0 -57 9.5t-45 27.5v-182q0 -15 -4 -28t-16.5 -21.5t-39.5 -8.5z" />
    <glyph glyph-name="paragraph" unicode="&#xb6;" horiz-adv-x="519" 
d="M261 -238q-24 0 -35 9t-14 25t-3 37v439q-72 0 -111.5 18t-55 53.5t-15.5 88.5q0 42 6.5 72t23.5 49.5t49.5 29.5t83.5 10h229q23 0 33.5 -9.5t13.5 -25t3 -35.5v-692q0 -20 -3 -35.5t-13.5 -24.5t-34.5 -9t-35 9t-13.5 25t-2.5 37v674h-55v-676q0 -20 -3 -35.5
t-13.5 -24.5t-34.5 -9z" />
    <glyph glyph-name="periodcentered" unicode="&#xb7;" horiz-adv-x="194" 
d="M98 220q-40 0 -54 15.5t-14 51.5q0 34 13 51t55 17q39 0 53 -15.5t14 -52.5q0 -34 -13 -50.5t-54 -16.5z" />
    <glyph glyph-name="cedilla" unicode="&#xb8;" horiz-adv-x="287" 
d="M129 -182q-25 0 -48 11.5t-25 27.5q-1 12 8 23q10 11 16 15t12 4q8 0 17.5 -6.5t20.5 -6.5q12 0 23 8.5t11 24.5t-11 25t-23 9q-14 0 -23 -7.5t-17 -7.5t-14.5 6t-11.5 15q-4 7 -6.5 12.5t-1.5 9.5q1 11 12.5 20t28.5 14t33 5q24 0 47.5 -12t39 -34.5t15.5 -53.5
q0 -29 -14 -52t-37.5 -36.5t-51.5 -13.5z" />
    <glyph glyph-name="uni00B9" unicode="&#xb9;" horiz-adv-x="310" 
d="M197 191q-24 0 -35.5 7t-14 18t-2.5 22v294q-14 -10 -28 -18l-28 -16q-13 -5 -25 -0.5t-23 17.5q-18 21 -15.5 37.5t20.5 33.5l111 92q9 8 19.5 12.5t21.5 4.5q27 0 40 -12t13 -37v-409q0 -12 -3 -22.5t-14.5 -17t-36.5 -6.5z" />
    <glyph glyph-name="ordmasculine" unicode="&#xba;" horiz-adv-x="424" 
d="M220 301q-53 0 -95.5 24.5t-67 67t-24.5 95.5q0 55 24.5 97.5t66.5 67t95 24.5t94.5 -24t65.5 -66.5t24 -97.5q0 -54 -24 -97t-65 -67t-94 -24zM219 395q39 0 63.5 26.5t24.5 69.5q0 42 -24 67t-65 25q-39 0 -64 -26t-25 -67q0 -42 25 -68.5t65 -26.5z" />
    <glyph glyph-name="guillemotright" unicode="&#xbb;" horiz-adv-x="569" 
d="M29 8q-16 16 -19.5 28t4 23.5t22.5 26.5l146 146l-146 146q-14 15 -21.5 26.5t-4.5 24t19 28.5q15 15 27 20.5t24.5 1.5t26.5 -19l189 -188q10 -10 14.5 -19.5t4.5 -20.5q0 -10 -4.5 -20t-14.5 -20l-188 -187q-14 -14 -26 -19t-24.5 0.5t-28.5 21.5zM268 8
q-16 16 -19.5 28t4 23.5t22.5 26.5l146 146l-146 146q-14 15 -21.5 26.5t-4.5 24t19 28.5q15 15 27 20.5t24.5 1.5t26.5 -19l189 -188q10 -10 14.5 -19.5t4.5 -20.5q0 -10 -4.5 -20t-14.5 -20l-188 -187q-14 -14 -26 -19t-24.5 0.5t-28.5 21.5z" />
    <glyph glyph-name="onequarter" unicode="&#xbc;" horiz-adv-x="759" 
d="M142 -27q-13 8 -18.5 15.5t-4 17.5t9.5 24l358 677q8 15 16 22t18 6.5t22 -7.5t17.5 -14.5t4 -17.5t-8.5 -24l-360 -679q-7 -13 -15 -20t-17 -6.5t-22 6.5zM650 -9q-21 0 -30.5 6t-12.5 15.5t-3 20.5v69h-156q-20 0 -30.5 11.5t-10.5 31.5q0 7 1 14t3 15l56 198
q7 28 18.5 34.5t35.5 1.5q17 -4 26 -11.5t11 -19t-2 -28.5l-46 -160h94v177q0 11 3 20t13 14.5t31 5.5t31 -6t12.5 -16t2.5 -22v-331q0 -9 -3 -18.5t-12.5 -15.5t-31.5 -6zM189 328q-20 0 -29.5 6t-12.5 15.5t-3 19.5v210q-9 -6 -18.5 -12t-18.5 -11q-12 -6 -21.5 -3
t-19.5 14q-16 17 -16 32.5t19 31.5l84 74q9 9 17.5 12.5t19.5 3.5q23 0 34 -10.5t11 -32.5v-310q0 -10 -2.5 -19.5t-12.5 -15t-31 -5.5z" />
    <glyph glyph-name="onehalf" unicode="&#xbd;" horiz-adv-x="776" 
d="M146 -27q-13 8 -18.5 15.5t-4 17.5t8.5 24l358 677q8 15 16 22t18 6.5t22 -7.5q13 -7 18 -14.5t4 -17.5t-9 -24l-360 -679q-6 -13 -14 -20t-17.5 -6.5t-21.5 6.5zM204 328q-20 0 -29.5 6t-12.5 15.5t-3 19.5v210q-9 -6 -18.5 -12t-18.5 -11q-12 -5 -21.5 -2.5t-19.5 13.5
q-16 17 -16 32.5t19 31.5l84 74q9 9 17.5 12.5t19.5 3.5q23 0 34 -10.5t11 -32.5v-310q0 -10 -2.5 -19.5t-12.5 -15t-31 -5.5zM467 -9q-14 0 -24.5 6t-16.5 17.5t-6 24.5q0 15 4 27t13 23t25 21q34 21 64 39.5t53.5 36.5t37 38.5t13.5 46.5q0 12 -6 22.5t-19 17t-35 6.5
t-35.5 -9t-19.5 -23.5t-6 -31.5q0 -12 -3 -21.5t-13 -15.5t-32 -6q-21 0 -30 7.5t-10.5 18.5t-1.5 20q0 44 19 78.5t53.5 53.5t78.5 19t78 -18.5t53.5 -51t19.5 -74.5q0 -27 -10.5 -50.5t-30.5 -45t-46.5 -41.5t-60.5 -41l-14 -4h139q9 0 17.5 -3t14.5 -13t6 -31
q0 -19 -5.5 -28.5t-14 -12t-19.5 -2.5h-230z" />
    <glyph glyph-name="threequarters" unicode="&#xbe;" horiz-adv-x="795" 
d="M195 -27q-13 8 -19 15.5t-4.5 18t9.5 23.5l358 677q9 15 17 21.5t17.5 6.5t21.5 -7q13 -7 18 -14.5t4 -17.5t-9 -24l-360 -679q-7 -13 -14.5 -19.5t-17 -6.5t-21.5 6zM194 326q-37 0 -68.5 16t-50 42t-20.5 57q0 13 7.5 19.5t17.5 9t17 2.5q20 0 26.5 -8t8.5 -17
q4 -9 11 -20.5t20.5 -19.5t32.5 -8q25 0 43.5 14t18.5 37q0 19 -13.5 32t-47.5 13q-14 0 -22 6.5t-8 28.5q0 19 8.5 24t21.5 5q24 0 37 10.5t13 28.5q0 20 -14.5 31t-35.5 11q-15 0 -25 -3.5t-16.5 -10t-11.5 -16.5q-4 -8 -9 -15t-19 -7q-16 0 -31 13t-13 29q5 17 21 36.5
t43 33.5t62 14q39 0 67.5 -15.5t44.5 -40.5t16 -54q0 -27 -11 -44.5t-24 -26.5q21 -13 33.5 -35.5t12.5 -46.5q0 -33 -17 -61.5t-49 -46t-77 -17.5zM695 -9q-21 0 -30.5 6t-12.5 15.5t-3 20.5v69h-156q-20 0 -30.5 11.5t-10.5 31.5q0 7 1 14t3 15l56 198q7 28 18.5 35
t35.5 1q17 -4 26 -11.5t11 -19t-2 -28.5l-46 -160h94v177q0 11 3 20t13 14.5t31 5.5t31 -6t12.5 -16t2.5 -22v-331q0 -9 -3 -18.5t-12.5 -15.5t-31.5 -6z" />
    <glyph glyph-name="questiondown" unicode="&#xbf;" horiz-adv-x="475" 
d="M239 279q26 0 37.5 -7t14.5 -19t3 -27v-66q0 -24 -11 -38t-28.5 -23.5t-37 -17.5t-37 -20t-28.5 -30.5t-11 -49.5q0 -47 25.5 -71t76.5 -24q25 0 43.5 7.5t31.5 20.5t19 29q7 18 14.5 28.5t21 12.5t33.5 -6q22 -7 32 -16t11 -20.5t-4 -30.5q-3 -13 -12.5 -30.5t-25 -35.5
t-38.5 -33.5t-54 -25.5t-72 -10q-63 0 -111.5 26t-75 71.5t-26.5 104.5q0 37 10.5 66t27.5 51t38 37.5t42 25.5t40 15l-7 -11v68q0 14 3.5 25.5t16 17.5t38.5 6zM239 492q42 0 54.5 -16t12.5 -52q0 -16 -2.5 -31.5t-16.5 -25.5t-48 -10q-42 0 -55 16t-13 52q0 16 3 31
t17.5 25.5t47.5 10.5z" />
    <glyph glyph-name="Agrave" unicode="&#xc0;" horiz-adv-x="706" 
d="M686 75q10 -19 10.5 -33.5t-8.5 -25t-30 -21.5q-32 -15 -49.5 -8t-32.5 39l-223 471l-222 -471q-15 -31 -33 -37.5t-50 7.5q-20 10 -29.5 21t-8 26.5t12.5 37.5l275 573q8 16 23.5 25.5t32.5 9.5q12 0 22 -4t18.5 -12t14.5 -20zM175 172l48 103h261l48 -103h-357z
M380 738l-153 51q-25 9 -30.5 23t2.5 41q9 29 21.5 36t37.5 0l153 -50q25 -9 30.5 -23t-3.5 -42q-9 -29 -21 -35.5t-37 -0.5z" />
    <glyph glyph-name="Aacute" unicode="&#xc1;" horiz-adv-x="706" 
d="M686 75q10 -19 10.5 -33.5t-8.5 -25t-30 -21.5q-32 -15 -49.5 -8t-32.5 39l-223 471l-222 -471q-15 -31 -33 -37.5t-50 7.5q-20 10 -29.5 21t-8 26.5t12.5 37.5l275 573q8 16 23.5 25.5t32.5 9.5q12 0 22 -4t18.5 -12t14.5 -20zM175 172l48 103h261l48 -103h-357z
M297 726q-16 -3 -26.5 6t-17.5 32q-9 28 -3.5 42.5t30.5 22.5l168 53q16 3 26.5 -6.5t16.5 -32.5q10 -27 3.5 -41.5t-30.5 -22.5z" />
    <glyph glyph-name="Acircumflex" unicode="&#xc2;" horiz-adv-x="706" 
d="M686 75q10 -19 10.5 -33.5t-8.5 -25t-30 -21.5q-32 -15 -49.5 -8t-32.5 39l-223 471l-222 -471q-15 -31 -33 -37.5t-50 7.5q-20 10 -29.5 21t-8 26.5t12.5 37.5l275 573q8 16 23.5 25.5t32.5 9.5q12 0 22 -4t18.5 -12t14.5 -20zM175 172l48 103h261l48 -103h-357z
M353 891q6 0 10.5 -1t7.5 -3l114 -47q25 -9 30.5 -26t-6.5 -40q-11 -21 -23.5 -30.5t-25.5 -3.5l-107 49l-107 -48q-14 -6 -26.5 4t-23.5 30q-12 23 -6.5 39.5t29.5 25.5l115 47q3 2 8 3t11 1z" />
    <glyph glyph-name="Atilde" unicode="&#xc3;" horiz-adv-x="706" 
d="M686 75q10 -19 10.5 -33.5t-8.5 -25t-30 -21.5q-32 -15 -49.5 -8t-32.5 39l-223 471l-222 -471q-15 -31 -33 -37.5t-50 7.5q-20 10 -29.5 21t-8 26.5t12.5 37.5l275 573q8 16 23.5 25.5t32.5 9.5q12 0 22 -4t18.5 -12t14.5 -20zM175 172l48 103h261l48 -103h-357z
M300 871q25 0 41 -12t28.5 -23.5t24.5 -11.5q11 0 19.5 8t17 17t19.5 13q7 5 17.5 4.5t20.5 -7.5q20 -13 26 -26t-3 -30q-6 -19 -23 -37t-39.5 -28.5t-46.5 -10.5q-22 0 -38.5 11.5t-30 23.5t-27.5 12q-19 0 -32 -9t-19 -19q-7 -10 -17 -13.5t-29 9.5q-20 15 -24 29t8 32
q10 18 28 33.5t39 25t40 9.5z" />
    <glyph glyph-name="Adieresis" unicode="&#xc4;" horiz-adv-x="706" 
d="M686 75q10 -19 10.5 -33.5t-8.5 -25t-30 -21.5q-32 -15 -49.5 -8t-32.5 39l-223 471l-222 -471q-15 -31 -33 -37.5t-50 7.5q-20 10 -29.5 21t-8 26.5t12.5 37.5l275 573q8 16 23.5 25.5t32.5 9.5q12 0 22 -4t18.5 -12t14.5 -20zM175 172l48 103h261l48 -103h-357z
M445 756q-31 0 -44 9.5t-16 24.5t-3 30q0 16 3 30.5t16 23.5t45 9t45 -9.5t15.5 -24t2.5 -30.5q0 -15 -2.5 -29.5t-15.5 -24t-46 -9.5zM265 756q-32 0 -45 9.5t-16 24.5t-3 30q1 16 3.5 30.5t15.5 23.5t45 9t45 -9.5t15.5 -24t2.5 -30.5q0 -15 -2.5 -29.5t-15.5 -24
t-45 -9.5z" />
    <glyph glyph-name="Aring" unicode="&#xc5;" horiz-adv-x="706" 
d="M686 75q10 -19 10.5 -33.5t-8.5 -25t-30 -21.5q-32 -15 -49.5 -8t-32.5 39l-223 471l-222 -471q-15 -31 -33 -37.5t-50 7.5q-20 10 -29.5 21t-8 26.5t12.5 37.5l275 573q8 16 23.5 25.5t32.5 9.5q12 0 22 -4t18.5 -12t14.5 -20zM175 172l48 103h261l48 -103h-357z
M352 742q-32 0 -58 16t-42 42.5t-16 57.5q0 32 16 58.5t41.5 42.5t57.5 16q33 0 59 -15.5t42 -41.5t16 -59t-15.5 -59.5t-42 -42t-58.5 -15.5zM352 806q22 0 37 15.5t15 38.5q0 22 -14.5 36.5t-38.5 14.5q-21 0 -36.5 -15t-15.5 -37q0 -23 15.5 -38t37.5 -15z" />
    <glyph glyph-name="AE" unicode="&#xc6;" horiz-adv-x="1108" 
d="M620 -9q-16 0 -30 8.5t-22.5 23t-8.5 30.5v466l-435 -510q-15 -18 -29 -23t-28.5 1t-28.5 22q-16 20 -20.5 33t1.5 25.5t20 28.5l497 575q8 10 19.5 14.5t27.5 4.5h428q17 0 30.5 -3.5t21.5 -16.5t8 -41t-7.5 -41t-20 -16.5t-27.5 -3.5h-334v-166h220q17 0 30.5 -3.5
t21.5 -16.5t8 -41t-8 -40.5t-22 -16t-31 -3.5h-219v-169h335q15 0 27.5 -3.5t19.5 -16.5t7 -41t-8.5 -40.5t-22 -16t-30.5 -3.5h-390zM230 167l85 103h263v-103h-348z" />
    <glyph glyph-name="Ccedilla" unicode="&#xc7;" horiz-adv-x="655" 
d="M392 -14q-49 0 -99 14.5t-96 44t-81.5 73t-56.5 101t-21 127.5q0 69 21 124.5t56.5 97.5t81 70t96 42.5t100.5 15.5q51 0 88 -11t60 -23.5t31 -17.5q16 -10 30.5 -22.5t15.5 -30.5q1 -12 -3 -21.5t-11 -19.5q-12 -17 -24 -25t-24 -8q-11 0 -20.5 6t-23.5 15
q-6 4 -21.5 12.5t-41 15.5t-61.5 7q-43 0 -84 -15t-73.5 -44.5t-51.5 -73t-19 -99.5t19 -99.5t51.5 -73t73.5 -44.5t84 -15q34 0 58.5 6.5t42 16t26.5 14.5q11 7 21 13t21 6q12 0 23.5 -8t22.5 -26q7 -11 11 -21t3 -21q-1 -18 -15.5 -30.5t-30.5 -21.5q-8 -5 -30.5 -17.5
t-59.5 -23t-89 -10.5zM362 -169q-25 0 -48 11.5t-25 27.5q-1 12 8 23q10 11 16 15t12 4q8 0 17.5 -6.5t20.5 -6.5q12 0 23 8.5t11 24.5t-11 25t-23 9q-14 0 -23 -7.5t-17 -7.5t-14.5 6t-11.5 15q-4 7 -6.5 12.5t-1.5 9.5q1 11 12.5 20t28.5 14t33 5q24 0 47.5 -12t39 -34.5
t15.5 -53.5q0 -29 -14 -52t-37.5 -36.5t-51.5 -13.5z" />
    <glyph glyph-name="Egrave" unicode="&#xc8;" horiz-adv-x="617" 
d="M124 -10q-28 0 -41 8.5t-16 22.5t-3 31v577q0 34 13.5 47t49.5 13h390q17 0 30.5 -3.5t21.5 -16t8 -41.5q0 -28 -8.5 -41t-22 -16t-30.5 -3h-331v-168h228q17 0 29 -3.5t19 -14.5t7 -37q0 -25 -7 -36.5t-20 -14t-30 -2.5h-226v-180h332q17 0 30.5 -3.5t21.5 -16.5t8 -41
t-8.5 -41t-22 -16.5t-30.5 -3.5h-392zM316 738l-153 51q-25 9 -30.5 23t2.5 41q9 29 21.5 36t37.5 0l153 -50q25 -9 30.5 -23t-3.5 -42q-9 -29 -21 -35.5t-37 -0.5z" />
    <glyph glyph-name="Eacute" unicode="&#xc9;" horiz-adv-x="617" 
d="M124 -10q-28 0 -41 8.5t-16 22.5t-3 31v577q0 34 13.5 47t49.5 13h390q17 0 30.5 -3.5t21.5 -16t8 -41.5q0 -28 -8.5 -41t-22 -16t-30.5 -3h-331v-168h228q17 0 29 -3.5t19 -14.5t7 -37q0 -25 -7 -36.5t-20 -14t-30 -2.5h-226v-180h332q17 0 30.5 -3.5t21.5 -16.5t8 -41
t-8.5 -41t-22 -16.5t-30.5 -3.5h-392zM281 734q-16 -3 -26.5 6t-17.5 32q-9 28 -3.5 42.5t30.5 22.5l168 53q16 3 26.5 -6.5t16.5 -32.5q10 -27 3.5 -41.5t-30.5 -22.5z" />
    <glyph glyph-name="Ecircumflex" unicode="&#xca;" horiz-adv-x="617" 
d="M124 -10q-28 0 -41 8.5t-16 22.5t-3 31v577q0 34 13.5 47t49.5 13h390q17 0 30.5 -3.5t21.5 -16t8 -41.5q0 -28 -8.5 -41t-22 -16t-30.5 -3h-331v-168h228q17 0 29 -3.5t19 -14.5t7 -37q0 -25 -7 -36.5t-20 -14t-30 -2.5h-226v-180h332q17 0 30.5 -3.5t21.5 -16.5t8 -41
t-8.5 -41t-22 -16.5t-30.5 -3.5h-392zM314 891q6 0 10.5 -1t7.5 -3l114 -47q25 -9 30.5 -26t-6.5 -40q-11 -21 -23.5 -30.5t-25.5 -3.5l-107 49l-107 -48q-14 -6 -26.5 4t-23.5 30q-12 23 -6.5 39.5t29.5 25.5l115 47q3 2 8 3t11 1z" />
    <glyph glyph-name="Edieresis" unicode="&#xcb;" horiz-adv-x="617" 
d="M124 -10q-28 0 -41 8.5t-16 22.5t-3 31v577q0 34 13.5 47t49.5 13h390q17 0 30.5 -3.5t21.5 -16t8 -41.5q0 -28 -8.5 -41t-22 -16t-30.5 -3h-331v-168h228q17 0 29 -3.5t19 -14.5t7 -37q0 -25 -7 -36.5t-20 -14t-30 -2.5h-226v-180h332q17 0 30.5 -3.5t21.5 -16.5t8 -41
t-8.5 -41t-22 -16.5t-30.5 -3.5h-392zM406 756q-31 0 -44 9.5t-16 24.5t-3 30q0 16 3 30.5t16 23.5t45 9t45 -9.5t15.5 -24t2.5 -30.5q0 -15 -2.5 -29.5t-15.5 -24t-46 -9.5zM226 756q-32 0 -45 9.5t-16 24.5t-3 30q1 16 3.5 30.5t15.5 23.5t45 9t45 -9.5t15.5 -24
t2.5 -30.5q0 -15 -2.5 -29.5t-15.5 -24t-45 -9.5z" />
    <glyph glyph-name="Igrave" unicode="&#xcc;" horiz-adv-x="224" 
d="M112 -10q-28 0 -41 8.5t-16 22.5t-3 31v577q0 16 3.5 30t16 22t41.5 8q28 0 40.5 -8t16 -22t3.5 -31v-577q0 -17 -3.5 -30.5t-16.5 -22t-41 -8.5zM113 738l-153 51q-25 9 -30.5 23t2.5 41q9 29 21.5 36t37.5 0l153 -50q25 -9 30.5 -23t-3.5 -42q-9 -29 -21 -35.5
t-37 -0.5z" />
    <glyph glyph-name="Iacute" unicode="&#xcd;" horiz-adv-x="224" 
d="M112 -10q-28 0 -41 8.5t-16 22.5t-3 31v577q0 16 3.5 30t16 22t41.5 8q28 0 40.5 -8t16 -22t3.5 -31v-577q0 -17 -3.5 -30.5t-16.5 -22t-41 -8.5zM56 726q-16 -3 -26.5 6t-17.5 32q-9 28 -3.5 42.5t30.5 22.5l168 53q16 3 26.5 -6.5t16.5 -32.5q10 -27 3.5 -41.5
t-30.5 -22.5z" />
    <glyph glyph-name="Icircumflex" unicode="&#xce;" horiz-adv-x="224" 
d="M112 -10q-28 0 -41 8.5t-16 22.5t-3 31v577q0 16 3.5 30t16 22t41.5 8q28 0 40.5 -8t16 -22t3.5 -31v-577q0 -17 -3.5 -30.5t-16.5 -22t-41 -8.5zM111 891q6 0 10.5 -1t7.5 -3l114 -47q25 -9 30.5 -26t-6.5 -40q-11 -21 -23.5 -30.5t-25.5 -3.5l-107 49l-107 -48
q-14 -6 -26.5 4t-23.5 30q-12 23 -6.5 39.5t29.5 25.5l115 47q3 2 8 3t11 1z" />
    <glyph glyph-name="Idieresis" unicode="&#xcf;" horiz-adv-x="224" 
d="M112 -10q-28 0 -41 8.5t-16 22.5t-3 31v577q0 16 3.5 30t16 22t41.5 8q28 0 40.5 -8t16 -22t3.5 -31v-577q0 -17 -3.5 -30.5t-16.5 -22t-41 -8.5zM203 756q-31 0 -44 9.5t-16 24.5t-3 30q0 16 3 30.5t16 23.5t45 9t45 -9.5t15.5 -24t2.5 -30.5q0 -15 -2.5 -29.5
t-15.5 -24t-46 -9.5zM23 756q-32 0 -45 9.5t-16 24.5t-3 30q1 16 3.5 30.5t15.5 23.5t45 9t45 -9.5t15.5 -24t2.5 -30.5q0 -15 -2.5 -29.5t-15.5 -24t-45 -9.5z" />
    <glyph glyph-name="Eth" unicode="&#xd0;" horiz-adv-x="743" 
d="M169 -9q-26 0 -39 8.5t-17 22.5t-4 30v578q0 16 3.5 29.5t16.5 22t41 8.5l188 -1q73 0 134.5 -25t106.5 -71t69.5 -109.5t24.5 -139.5q0 -78 -25 -143t-70 -112t-106.5 -72.5t-136.5 -25.5h-186zM230 112h128q64 0 112 28.5t74.5 79.5t26.5 119q0 69 -26.5 120.5t-75 80
t-112.5 28.5h-127v-456zM76 290q-13 0 -25.5 3t-20 15t-7.5 39q0 26 7.5 37.5t20 15t24.5 3.5h249q13 0 25 -3.5t19.5 -15t7.5 -38.5q0 -26 -7.5 -38t-19.5 -15t-26 -3h-247z" />
    <glyph glyph-name="Ntilde" unicode="&#xd1;" horiz-adv-x="695" 
d="M112 -9q-27 0 -39.5 8.5t-16 22.5t-3.5 30v580q0 15 4 28t17.5 21t40.5 8q30 0 41.5 -6.5t21.5 -18.5l334 -467v435q0 15 4 28t17 21t40 8q28 0 40.5 -8.5t16 -22.5t3.5 -31v-576q0 -16 -4.5 -29.5t-18 -22t-41.5 -8.5q-22 0 -34.5 4t-22.5 17l-339 466v-427
q0 -16 -3.5 -29.5t-16.5 -22t-41 -8.5zM296 871q25 0 41 -12t28.5 -23.5t24.5 -11.5q11 0 19.5 8t17 17t19.5 13q7 5 17.5 4.5t20.5 -7.5q20 -13 26 -26t-3 -30q-6 -19 -23 -37t-39.5 -28.5t-46.5 -10.5q-22 0 -38.5 11.5t-30 23.5t-27.5 12q-19 0 -32 -9t-19 -19
q-7 -10 -17 -13.5t-29 9.5q-20 15 -24 29t8 32q10 18 28 33.5t39 25t40 9.5z" />
    <glyph glyph-name="Ograve" unicode="&#xd2;" horiz-adv-x="728" 
d="M369 -18q-72 0 -134.5 27.5t-110.5 76t-75 112t-27 136.5q0 75 26.5 140.5t73 115t107.5 77.5t131 28q73 0 135.5 -27.5t109.5 -76.5t74 -113.5t27 -139.5q0 -73 -26 -137.5t-73 -114t-107.5 -77t-130.5 -27.5zM364 104q46 0 86 18t70.5 50t47.5 74.5t17 91.5t-17.5 91.5
t-48 75t-70 50.5t-85.5 18q-45 0 -85 -18t-70.5 -50.5t-47.5 -75.5t-17 -91t17.5 -91t47.5 -75t69.5 -50t85.5 -18zM367 738l-153 51q-25 9 -30.5 23t2.5 41q9 29 21.5 36t37.5 0l153 -50q25 -9 30.5 -23t-3.5 -42q-9 -29 -21 -35.5t-37 -0.5z" />
    <glyph glyph-name="Oacute" unicode="&#xd3;" horiz-adv-x="728" 
d="M369 -18q-72 0 -134.5 27.5t-110.5 76t-75 112t-27 136.5q0 75 26.5 140.5t73 115t107.5 77.5t131 28q73 0 135.5 -27.5t109.5 -76.5t74 -113.5t27 -139.5q0 -73 -26 -137.5t-73 -114t-107.5 -77t-130.5 -27.5zM364 104q46 0 86 18t70.5 50t47.5 74.5t17 91.5t-17.5 91.5
t-48 75t-70 50.5t-85.5 18q-45 0 -85 -18t-70.5 -50.5t-47.5 -75.5t-17 -91t17.5 -91t47.5 -75t69.5 -50t85.5 -18zM310 726q-16 -3 -26.5 6t-17.5 32q-9 28 -3.5 42.5t30.5 22.5l168 53q16 3 26.5 -6.5t16.5 -32.5q10 -27 3.5 -41.5t-30.5 -22.5z" />
    <glyph glyph-name="Ocircumflex" unicode="&#xd4;" horiz-adv-x="728" 
d="M369 -18q-72 0 -134.5 27.5t-110.5 76t-75 112t-27 136.5q0 75 26.5 140.5t73 115t107.5 77.5t131 28q73 0 135.5 -27.5t109.5 -76.5t74 -113.5t27 -139.5q0 -73 -26 -137.5t-73 -114t-107.5 -77t-130.5 -27.5zM364 104q46 0 86 18t70.5 50t47.5 74.5t17 91.5t-17.5 91.5
t-48 75t-70 50.5t-85.5 18q-45 0 -85 -18t-70.5 -50.5t-47.5 -75.5t-17 -91t17.5 -91t47.5 -75t69.5 -50t85.5 -18zM366 891q6 0 10.5 -1t7.5 -3l114 -47q25 -9 30.5 -26t-6.5 -40q-11 -21 -23.5 -30.5t-25.5 -3.5l-107 49l-107 -48q-14 -6 -26.5 4t-23.5 30
q-12 23 -6.5 39.5t29.5 25.5l115 47q3 2 8 3t11 1z" />
    <glyph glyph-name="Otilde" unicode="&#xd5;" horiz-adv-x="728" 
d="M369 -18q-72 0 -134.5 27.5t-110.5 76t-75 112t-27 136.5q0 75 26.5 140.5t73 115t107.5 77.5t131 28q73 0 135.5 -27.5t109.5 -76.5t74 -113.5t27 -139.5q0 -73 -26 -137.5t-73 -114t-107.5 -77t-130.5 -27.5zM364 104q46 0 86 18t70.5 50t47.5 74.5t17 91.5t-17.5 91.5
t-48 75t-70 50.5t-85.5 18q-45 0 -85 -18t-70.5 -50.5t-47.5 -75.5t-17 -91t17.5 -91t47.5 -75t69.5 -50t85.5 -18zM313 871q25 0 41 -12t28.5 -23.5t24.5 -11.5q11 0 19.5 8t17 17t19.5 13q7 5 17.5 4.5t20.5 -7.5q20 -13 26 -26t-3 -30q-6 -19 -23 -37t-39.5 -28.5
t-46.5 -10.5q-22 0 -38.5 11.5t-30 23.5t-27.5 12q-19 0 -32 -9t-19 -19q-7 -10 -17 -13.5t-29 9.5q-20 15 -24 29t8 32q10 18 28 33.5t39 25t40 9.5z" />
    <glyph glyph-name="Odieresis" unicode="&#xd6;" horiz-adv-x="728" 
d="M369 -18q-72 0 -134.5 27.5t-110.5 76t-75 112t-27 136.5q0 75 26.5 140.5t73 115t107.5 77.5t131 28q73 0 135.5 -27.5t109.5 -76.5t74 -113.5t27 -139.5q0 -73 -26 -137.5t-73 -114t-107.5 -77t-130.5 -27.5zM364 104q46 0 86 18t70.5 50t47.5 74.5t17 91.5t-17.5 91.5
t-48 75t-70 50.5t-85.5 18q-45 0 -85 -18t-70.5 -50.5t-47.5 -75.5t-17 -91t17.5 -91t47.5 -75t69.5 -50t85.5 -18zM458 756q-31 0 -44 9.5t-16 24.5t-3 30q0 16 3 30.5t16 23.5t45 9t45 -9.5t15.5 -24t2.5 -30.5q0 -15 -2.5 -29.5t-15.5 -24t-46 -9.5zM278 756
q-32 0 -45 9.5t-16 24.5t-3 30q1 16 3.5 30.5t15.5 23.5t45 9t45 -9.5t15.5 -24t2.5 -30.5q0 -15 -2.5 -29.5t-15.5 -24t-45 -9.5z" />
    <glyph glyph-name="multiply" unicode="&#xd7;" horiz-adv-x="464" 
d="M312 251l99 -99q15 -14 20.5 -27t0.5 -25.5t-20 -27.5t-27.5 -20t-25 0t-27.5 19l-100 101l-99 -100q-15 -15 -27.5 -20t-25 0t-27.5 20t-20 27.5t0 25t20 26.5l99 100l-101 101q-14 14 -18.5 26.5t0.5 25t20 27.5q15 14 27.5 19t25.5 0t27 -20l99 -99l100 100
q15 15 27.5 19.5t25 -0.5t27.5 -20t20 -27.5t0 -24.5t-20 -27z" />
    <glyph glyph-name="Oslash" unicode="&#xd8;" horiz-adv-x="739" 
d="M374 -18q-72 0 -134.5 27.5t-110.5 76t-75 112t-27 136.5q0 75 26.5 140.5t73 115t107.5 77.5t131 28q73 0 135.5 -27.5t109.5 -76.5t74 -113.5t27 -139.5q0 -73 -26 -137.5t-73 -114t-107.5 -77t-130.5 -27.5zM369 104q46 0 86 18t70.5 50t47.5 74.5t17 91.5t-17.5 91.5
t-48 75t-70 50.5t-85.5 18q-45 0 -85 -18t-70.5 -50.5t-47.5 -75.5t-17 -91q0 -49 17.5 -91.5t47.5 -74.5t70 -50t85 -18zM189 -36q-30 15 -35.5 30t7.5 43l309 650q14 29 30.5 34t46.5 -10q31 -15 36 -30.5t-9 -44.5l-309 -647q-13 -29 -29.5 -34t-46.5 9z" />
    <glyph glyph-name="Ugrave" unicode="&#xd9;" horiz-adv-x="701" 
d="M349 -15q-70 0 -124.5 25.5t-91.5 71t-56 104t-19 124.5v319q0 17 3.5 30.5t16 22t41.5 8.5t41.5 -8.5t16 -22t3.5 -31.5v-318q0 -55 18.5 -101.5t56.5 -74.5t97 -28q53 0 91 25t58.5 71t20.5 109v323q0 16 3.5 28t16.5 20t41 8q29 0 41.5 -8.5t15.5 -22.5t3 -31v-320
q0 -66 -19 -124.5t-57 -103t-92.5 -70t-125.5 -25.5zM352 738l-153 51q-25 9 -30.5 23t2.5 41q9 29 21.5 36t37.5 0l153 -50q25 -9 30.5 -23t-3.5 -42q-9 -29 -21 -35.5t-37 -0.5z" />
    <glyph glyph-name="Uacute" unicode="&#xda;" horiz-adv-x="701" 
d="M349 -15q-70 0 -124.5 25.5t-91.5 71t-56 104t-19 124.5v319q0 17 3.5 30.5t16 22t41.5 8.5t41.5 -8.5t16 -22t3.5 -31.5v-318q0 -55 18.5 -101.5t56.5 -74.5t97 -28q53 0 91 25t58.5 71t20.5 109v323q0 16 3.5 28t16.5 20t41 8q29 0 41.5 -8.5t15.5 -22.5t3 -31v-320
q0 -66 -19 -124.5t-57 -103t-92.5 -70t-125.5 -25.5zM295 726q-16 -3 -26.5 6t-17.5 32q-9 28 -3.5 42.5t30.5 22.5l168 53q16 3 26.5 -6.5t16.5 -32.5q10 -27 3.5 -41.5t-30.5 -22.5z" />
    <glyph glyph-name="Ucircumflex" unicode="&#xdb;" horiz-adv-x="701" 
d="M349 -15q-70 0 -124.5 25.5t-91.5 71t-56 104t-19 124.5v319q0 17 3.5 30.5t16 22t41.5 8.5t41.5 -8.5t16 -22t3.5 -31.5v-318q0 -55 18.5 -101.5t56.5 -74.5t97 -28q53 0 91 25t58.5 71t20.5 109v323q0 16 3.5 28t16.5 20t41 8q29 0 41.5 -8.5t15.5 -22.5t3 -31v-320
q0 -66 -19 -124.5t-57 -103t-92.5 -70t-125.5 -25.5zM351 891q6 0 10.5 -1t7.5 -3l114 -47q25 -9 30.5 -26t-6.5 -40q-11 -21 -23.5 -30.5t-25.5 -3.5l-107 49l-107 -48q-14 -6 -26.5 4t-23.5 30q-12 23 -6.5 39.5t29.5 25.5l115 47q3 2 8 3t11 1z" />
    <glyph glyph-name="Udieresis" unicode="&#xdc;" horiz-adv-x="701" 
d="M349 -15q-70 0 -124.5 25.5t-91.5 71t-56 104t-19 124.5v319q0 17 3.5 30.5t16 22t41.5 8.5t41.5 -8.5t16 -22t3.5 -31.5v-318q0 -55 18.5 -101.5t56.5 -74.5t97 -28q53 0 91 25t58.5 71t20.5 109v323q0 16 3.5 28t16.5 20t41 8q29 0 41.5 -8.5t15.5 -22.5t3 -31v-320
q0 -66 -19 -124.5t-57 -103t-92.5 -70t-125.5 -25.5zM443 756q-31 0 -44 9.5t-16 24.5t-3 30q0 16 3 30.5t16 23.5t45 9t45 -9.5t15.5 -24t2.5 -30.5q0 -15 -2.5 -29.5t-15.5 -24t-46 -9.5zM263 756q-32 0 -45 9.5t-16 24.5t-3 30q1 16 3.5 30.5t15.5 23.5t45 9t45 -9.5
t15.5 -24t2.5 -30.5q0 -15 -2.5 -29.5t-15.5 -24t-45 -9.5z" />
    <glyph glyph-name="Yacute" unicode="&#xdd;" horiz-adv-x="638" 
d="M586 682q29 -20 32 -38t-14 -42l-223 -337v-215q0 -17 -3.5 -30.5t-16.5 -22t-41 -8.5q-29 0 -41.5 8.5t-16 22.5t-3.5 32v213l-224 336q-18 25 -13.5 43t32.5 37q20 14 34.5 17t26.5 -5t23 -26l180 -285l183 285q12 18 23.5 25.5t26.5 5t35 -15.5zM265 726
q-16 -3 -26.5 6t-17.5 32q-9 28 -3.5 42.5t30.5 22.5l168 53q16 3 26.5 -6.5t16.5 -32.5q10 -27 3.5 -41.5t-30.5 -22.5z" />
    <glyph glyph-name="Thorn" unicode="&#xde;" horiz-adv-x="597" 
d="M118 -9q-28 0 -41 8t-16 22.5t-3 30.5v577q0 16 3.5 30t16 22t41.5 8q28 0 40.5 -8t16 -22t3.5 -31v-50h152q41 0 82 -16.5t75.5 -47t55.5 -74.5t21 -99t-21 -98.5t-55.5 -74t-76 -46.5t-82.5 -16h-151v-55q0 -16 -3.5 -30t-16 -22t-41.5 -8zM179 227h152q28 0 54 14
t43 39.5t17 61.5q0 32 -15.5 58t-41.5 41t-58 15h-151v-229z" />
    <glyph glyph-name="germandbls" unicode="&#xdf;" horiz-adv-x="586" 
d="M110 -30q-27 0 -39.5 8t-15.5 21.5t-3 30.5v445q0 74 25 122.5t75.5 72.5t127.5 24q61 0 101.5 -18.5t61 -49t20.5 -66.5q0 -42 -12 -69t-27.5 -45.5t-27.5 -33.5t-12 -32q0 -21 17 -34.5t42 -27t49.5 -32t41.5 -48.5t17 -78q0 -39 -12 -70t-35 -52t-55 -32.5t-73 -11.5
q-27 0 -53.5 6t-49.5 16q-21 6 -32.5 17t-8.5 36q2 16 8 30.5t16.5 23t23.5 5.5q13 -2 26.5 -9t28.5 -12.5t31 -5.5q20 0 36 7t26 22.5t10 41.5q0 23 -17 38.5t-41.5 29.5t-49 30.5t-41.5 39.5t-17 57q0 38 11.5 61t26 39t25.5 33t11 44q0 13 -7 23t-21.5 16t-36.5 6
q-33 0 -54 -8t-34 -22t-18 -33.5t-5 -42.5v-455q0 -16 -3.5 -29t-16 -21t-40.5 -8z" />
    <glyph glyph-name="agrave" unicode="&#xe0;" horiz-adv-x="569" 
d="M462 -8q-29 0 -43 11t-14 30l7 33q-8 -13 -27 -30.5t-50 -31t-75 -13.5q-47 0 -88.5 19.5t-73 54t-50 79t-18.5 95.5q0 49 18.5 92.5t50.5 77.5t73.5 53.5t87.5 19.5q41 0 69.5 -11t48.5 -27.5t33 -34.5l-6 29q0 22 14 33.5t44 11.5q28 0 40 -8.5t15 -23t3 -32.5v-366
q0 -17 -3 -31t-15.5 -22t-40.5 -8zM278 108q34 0 61 17t43.5 46.5t16.5 65.5q0 39 -17 68t-44.5 45.5t-61.5 16.5q-37 0 -66 -17.5t-45.5 -47t-16.5 -66.5q0 -36 17 -65t46.5 -46t66.5 -17zM310 538l-153 51q-25 9 -30.5 23t2.5 41q9 29 21.5 36t37.5 0l153 -50
q25 -9 30.5 -23t-3.5 -42q-9 -29 -21 -35.5t-37 -0.5z" />
    <glyph glyph-name="aacute" unicode="&#xe1;" horiz-adv-x="569" 
d="M462 -8q-29 0 -43 11t-14 30l7 33q-8 -13 -27 -30.5t-50 -31t-75 -13.5q-47 0 -88.5 19.5t-73 54t-50 79t-18.5 95.5q0 49 18.5 92.5t50.5 77.5t73.5 53.5t87.5 19.5q41 0 69.5 -11t48.5 -27.5t33 -34.5l-6 29q0 22 14 33.5t44 11.5q28 0 40 -8.5t15 -23t3 -32.5v-366
q0 -17 -3 -31t-15.5 -22t-40.5 -8zM278 108q34 0 61 17t43.5 46.5t16.5 65.5q0 39 -17 68t-44.5 45.5t-61.5 16.5q-37 0 -66 -17.5t-45.5 -47t-16.5 -66.5q0 -36 17 -65t46.5 -46t66.5 -17zM249 534q-16 -3 -26.5 6t-17.5 32q-9 28 -3.5 42.5t30.5 22.5l168 53
q16 3 26.5 -6.5t16.5 -32.5q10 -27 3.5 -41.5t-30.5 -22.5z" />
    <glyph glyph-name="acircumflex" unicode="&#xe2;" horiz-adv-x="569" 
d="M462 -8q-29 0 -43 11t-14 30l7 33q-8 -13 -27 -30.5t-50 -31t-75 -13.5q-47 0 -88.5 19.5t-73 54t-50 79t-18.5 95.5q0 49 18.5 92.5t50.5 77.5t73.5 53.5t87.5 19.5q41 0 69.5 -11t48.5 -27.5t33 -34.5l-6 29q0 22 14 33.5t44 11.5q28 0 40 -8.5t15 -23t3 -32.5v-366
q0 -17 -3 -31t-15.5 -22t-40.5 -8zM278 108q34 0 61 17t43.5 46.5t16.5 65.5q0 39 -17 68t-44.5 45.5t-61.5 16.5q-37 0 -66 -17.5t-45.5 -47t-16.5 -66.5q0 -36 17 -65t46.5 -46t66.5 -17zM281 691q6 0 10.5 -1t7.5 -3l114 -47q25 -9 30.5 -26t-6.5 -40
q-11 -21 -23.5 -30.5t-25.5 -3.5l-107 49l-107 -48q-14 -6 -26.5 4t-23.5 30q-12 23 -6.5 39.5t29.5 25.5l115 47q3 2 8 3t11 1z" />
    <glyph glyph-name="atilde" unicode="&#xe3;" horiz-adv-x="569" 
d="M462 -8q-29 0 -43 11t-14 30l7 33q-8 -13 -27 -30.5t-50 -31t-75 -13.5q-47 0 -88.5 19.5t-73 54t-50 79t-18.5 95.5q0 49 18.5 92.5t50.5 77.5t73.5 53.5t87.5 19.5q41 0 69.5 -11t48.5 -27.5t33 -34.5l-6 29q0 22 14 33.5t44 11.5q28 0 40 -8.5t15 -23t3 -32.5v-366
q0 -17 -3 -31t-15.5 -22t-40.5 -8zM278 108q34 0 61 17t43.5 46.5t16.5 65.5q0 39 -17 68t-44.5 45.5t-61.5 16.5q-37 0 -66 -17.5t-45.5 -47t-16.5 -66.5q0 -36 17 -65t46.5 -46t66.5 -17zM224 691q25 0 41 -12t28.5 -23.5t24.5 -11.5q11 0 19.5 8t17 17t19.5 13
q7 5 17.5 4.5t20.5 -7.5q20 -13 26 -26t-3 -30q-6 -19 -23 -37t-39.5 -28.5t-46.5 -10.5q-22 0 -38.5 11.5t-30 23.5t-27.5 12q-19 0 -32 -9t-19 -19q-7 -10 -17 -13.5t-29 9.5q-20 15 -24 29t8 32q10 18 28 33.5t39 25t40 9.5z" />
    <glyph glyph-name="adieresis" unicode="&#xe4;" horiz-adv-x="569" 
d="M462 -8q-29 0 -43 11t-14 30l7 33q-8 -13 -27 -30.5t-50 -31t-75 -13.5q-47 0 -88.5 19.5t-73 54t-50 79t-18.5 95.5q0 49 18.5 92.5t50.5 77.5t73.5 53.5t87.5 19.5q41 0 69.5 -11t48.5 -27.5t33 -34.5l-6 29q0 22 14 33.5t44 11.5q28 0 40 -8.5t15 -23t3 -32.5v-366
q0 -17 -3 -31t-15.5 -22t-40.5 -8zM278 108q34 0 61 17t43.5 46.5t16.5 65.5q0 39 -17 68t-44.5 45.5t-61.5 16.5q-37 0 -66 -17.5t-45.5 -47t-16.5 -66.5q0 -36 17 -65t46.5 -46t66.5 -17zM374 556q-31 0 -44 9.5t-16 24.5t-3 30q0 16 3 30.5t16 23.5t45 9t45 -9.5
t15.5 -24t2.5 -30.5q0 -15 -2.5 -29.5t-15.5 -24t-46 -9.5zM194 556q-32 0 -45 9.5t-16 24.5t-3 30q1 16 3.5 30.5t15.5 23.5t45 9t45 -9.5t15.5 -24t2.5 -30.5q0 -15 -2.5 -29.5t-15.5 -24t-45 -9.5z" />
    <glyph glyph-name="aring" unicode="&#xe5;" horiz-adv-x="569" 
d="M462 -8q-29 0 -43 11t-14 30l7 33q-8 -13 -27 -30.5t-50 -31t-75 -13.5q-47 0 -88.5 19.5t-73 54t-50 79t-18.5 95.5q0 49 18.5 92.5t50.5 77.5t73.5 53.5t87.5 19.5q41 0 69.5 -11t48.5 -27.5t33 -34.5l-6 29q0 22 14 33.5t44 11.5q28 0 40 -8.5t15 -23t3 -32.5v-366
q0 -17 -3 -31t-15.5 -22t-40.5 -8zM278 108q34 0 61 17t43.5 46.5t16.5 65.5q0 39 -17 68t-44.5 45.5t-61.5 16.5q-37 0 -66 -17.5t-45.5 -47t-16.5 -66.5q0 -36 17 -65t46.5 -46t66.5 -17zM280 522q-32 0 -58 16t-42 42.5t-16 57.5q0 32 16 58.5t41.5 42.5t57.5 16
q33 0 59 -15.5t42 -41.5t16 -59t-15.5 -59.5t-42 -42t-58.5 -15.5zM280 586q22 0 37 15.5t15 38.5q0 22 -14.5 36.5t-38.5 14.5q-21 0 -36.5 -15t-15.5 -37q0 -23 15.5 -38t37.5 -15z" />
    <glyph glyph-name="ae" unicode="&#xe6;" horiz-adv-x="872" 
d="M258 485q33 0 65 -9.5t59.5 -29t48.5 -49.5q22 27 52.5 46.5t67.5 30t78 10.5q52 0 92.5 -16.5t68.5 -43.5t42.5 -59.5t14.5 -63.5q0 -53 -25 -78.5t-63 -25.5h-261q1 -24 13 -43.5t31.5 -33.5t43.5 -21.5t48 -7.5q32 0 53.5 4t36 10t25.5 11.5t23 7.5q11 1 22 -5t18 -20
q5 -9 8 -18t3 -18q0 -20 -27.5 -38t-71.5 -28.5t-93 -10.5q-46 0 -84.5 11.5t-70 33.5t-53.5 52q-17 -25 -44 -47.5t-70.5 -36.5t-110.5 -14q-81 0 -127 36.5t-46 103.5q0 40 22.5 69.5t65.5 46.5t102 17q18 0 36 -1.5t35 -4.5t32.5 -7t29 -9t24.5 -11q-1 48 -12 81.5
t-34.5 51t-64.5 17.5q-14 0 -29 -2.5t-29 -7t-26 -11.5t-21 -16q-25 -27 -47.5 -27.5t-42.5 22.5q-23 27 -21.5 46t28.5 43q21 18 48.5 32.5t61.5 22.5t75 8zM498 272h202q15 0 24 4.5t9 22.5q0 22 -13.5 40t-37 29t-54.5 11q-33 0 -62.5 -14.5t-48 -39t-19.5 -53.5zM226 73
q24 0 47.5 6t44 16.5t35.5 25.5t22 33q-14 7 -36 13.5t-47.5 10.5t-52.5 4q-39 0 -62.5 -6.5t-33.5 -18t-10 -27.5q0 -27 22 -42t71 -15z" />
    <glyph glyph-name="ccedilla" unicode="&#xe7;" horiz-adv-x="506" 
d="M290 -12q-48 0 -93.5 16.5t-82 48.5t-58 78.5t-21.5 105.5t21.5 105t57.5 78t81 49t93 17q35 0 66.5 -10t54.5 -24t33 -28q13 -12 22 -23t6 -27q-3 -10 -9 -18.5t-15 -17.5q-24 -27 -47 -20q-13 7 -26 15t-26.5 15.5t-27.5 12.5t-31 5q-38 0 -67.5 -16.5t-46 -45.5
t-16.5 -67t16.5 -67.5t45.5 -46t66 -16.5q18 0 34.5 4.5t29.5 12t21 15.5q11 7 20 13t19 6q12 0 23.5 -8.5t25.5 -26.5q13 -15 14.5 -29t-6 -27t-24.5 -24q-12 -12 -35.5 -24.5t-54 -21.5t-63.5 -9zM274 -182q-25 0 -48 11.5t-25 27.5q-1 12 8 23q10 11 16 15t12 4
q8 0 17.5 -6.5t20.5 -6.5q12 0 23 8.5t11 24.5t-11 25t-23 9q-14 0 -23 -7.5t-17 -7.5t-14.5 6t-11.5 15q-4 7 -6.5 12.5t-1.5 9.5q1 11 12.5 20t28.5 14t33 5q24 0 47.5 -12t39 -34.5t15.5 -53.5q0 -29 -14 -52t-37.5 -36.5t-51.5 -13.5z" />
    <glyph glyph-name="egrave" unicode="&#xe8;" horiz-adv-x="539" 
d="M290 -16q-65 0 -113.5 21t-81 57.5t-49 82t-16.5 94.5q0 72 33 128t91.5 88t134.5 32q54 0 95 -17t68.5 -44.5t42 -60.5t14.5 -64q0 -53 -25.5 -77t-63.5 -24h-264q1 -34 21.5 -59t52 -38.5t64.5 -13.5q25 0 44.5 3t33.5 7.5t24.5 9.5t19.5 9t17 5q11 1 22 -5t18 -21
q6 -10 8.5 -18.5t2.5 -16.5q0 -20 -24 -37.5t-67.5 -29t-102.5 -11.5zM156 271h205q17 0 26 5.5t9 23.5q0 23 -14 41.5t-38 29t-56 10.5q-37 0 -67 -14.5t-47.5 -39.5t-17.5 -56zM298 538l-153 51q-25 9 -30.5 23t2.5 41q9 29 21.5 36t37.5 0l153 -50q25 -9 30.5 -23
t-3.5 -42q-9 -29 -21 -35.5t-37 -0.5z" />
    <glyph glyph-name="eacute" unicode="&#xe9;" horiz-adv-x="539" 
d="M290 -16q-65 0 -113.5 21t-81 57.5t-49 82t-16.5 94.5q0 72 33 128t91.5 88t134.5 32q54 0 95 -17t68.5 -44.5t42 -60.5t14.5 -64q0 -53 -25.5 -77t-63.5 -24h-264q1 -34 21.5 -59t52 -38.5t64.5 -13.5q25 0 44.5 3t33.5 7.5t24.5 9.5t19.5 9t17 5q11 1 22 -5t18 -21
q6 -10 8.5 -18.5t2.5 -16.5q0 -20 -24 -37.5t-67.5 -29t-102.5 -11.5zM156 271h205q17 0 26 5.5t9 23.5q0 23 -14 41.5t-38 29t-56 10.5q-37 0 -67 -14.5t-47.5 -39.5t-17.5 -56zM237 534q-16 -3 -26.5 6t-17.5 32q-9 28 -3.5 42.5t30.5 22.5l168 53q16 3 26.5 -6.5
t16.5 -32.5q10 -27 3.5 -41.5t-30.5 -22.5z" />
    <glyph glyph-name="ecircumflex" unicode="&#xea;" horiz-adv-x="539" 
d="M290 -16q-65 0 -113.5 21t-81 57.5t-49 82t-16.5 94.5q0 72 33 128t91.5 88t134.5 32q54 0 95 -17t68.5 -44.5t42 -60.5t14.5 -64q0 -53 -25.5 -77t-63.5 -24h-264q1 -34 21.5 -59t52 -38.5t64.5 -13.5q25 0 44.5 3t33.5 7.5t24.5 9.5t19.5 9t17 5q11 1 22 -5t18 -21
q6 -10 8.5 -18.5t2.5 -16.5q0 -20 -24 -37.5t-67.5 -29t-102.5 -11.5zM156 271h205q17 0 26 5.5t9 23.5q0 23 -14 41.5t-38 29t-56 10.5q-37 0 -67 -14.5t-47.5 -39.5t-17.5 -56zM269 691q6 0 10.5 -1t7.5 -3l114 -47q25 -9 30.5 -26t-6.5 -40q-11 -21 -23.5 -30.5
t-25.5 -3.5l-107 49l-107 -48q-14 -6 -26.5 4t-23.5 30q-12 23 -6.5 39.5t29.5 25.5l115 47q3 2 8 3t11 1z" />
    <glyph glyph-name="edieresis" unicode="&#xeb;" horiz-adv-x="539" 
d="M290 -16q-65 0 -113.5 21t-81 57.5t-49 82t-16.5 94.5q0 72 33 128t91.5 88t134.5 32q54 0 95 -17t68.5 -44.5t42 -60.5t14.5 -64q0 -53 -25.5 -77t-63.5 -24h-264q1 -34 21.5 -59t52 -38.5t64.5 -13.5q25 0 44.5 3t33.5 7.5t24.5 9.5t19.5 9t17 5q11 1 22 -5t18 -21
q6 -10 8.5 -18.5t2.5 -16.5q0 -20 -24 -37.5t-67.5 -29t-102.5 -11.5zM156 271h205q17 0 26 5.5t9 23.5q0 23 -14 41.5t-38 29t-56 10.5q-37 0 -67 -14.5t-47.5 -39.5t-17.5 -56zM363 556q-31 0 -44 9.5t-16 24.5t-3 30q0 16 3 30.5t16 23.5t45 9t45 -9.5t15.5 -24
t2.5 -30.5q0 -15 -2.5 -29.5t-15.5 -24t-46 -9.5zM183 556q-32 0 -45 9.5t-16 24.5t-3 30q1 16 3.5 30.5t15.5 23.5t45 9t45 -9.5t15.5 -24t2.5 -30.5q0 -15 -2.5 -29.5t-15.5 -24t-45 -9.5z" />
    <glyph glyph-name="igrave" unicode="&#xec;" horiz-adv-x="212" 
d="M106 -10q-28 0 -40.5 8.5t-15.5 22t-3 30.5v372q0 16 3 29.5t16 21.5t41 8t40 -8t15.5 -22t3.5 -31v-371q0 -17 -3.5 -30.5t-16 -21.5t-40.5 -8zM135 538l-153 51q-25 9 -30.5 23t2.5 41q9 29 21.5 36t37.5 0l153 -50q25 -9 30.5 -23t-3.5 -42q-9 -29 -21 -35.5t-37 -0.5
z" />
    <glyph glyph-name="iacute" unicode="&#xed;" horiz-adv-x="212" 
d="M106 -10q-28 0 -40.5 8.5t-15.5 22t-3 30.5v372q0 16 3 29.5t16 21.5t41 8t40 -8t15.5 -22t3.5 -31v-371q0 -17 -3.5 -30.5t-16 -21.5t-40.5 -8zM74 534q-16 -3 -26.5 6t-17.5 32q-9 28 -3.5 42.5t30.5 22.5l168 53q16 3 26.5 -6.5t16.5 -32.5q10 -27 3.5 -41.5
t-30.5 -22.5z" />
    <glyph glyph-name="icircumflex" unicode="&#xee;" horiz-adv-x="212" 
d="M106 -10q-28 0 -40.5 8.5t-15.5 22t-3 30.5v372q0 16 3 29.5t16 21.5t41 8t40 -8t15.5 -22t3.5 -31v-371q0 -17 -3.5 -30.5t-16 -21.5t-40.5 -8zM106 691q6 0 10.5 -1t7.5 -3l114 -47q25 -9 30.5 -26t-6.5 -40q-11 -21 -23.5 -30.5t-25.5 -3.5l-107 49l-107 -48
q-14 -6 -26.5 4t-23.5 30q-12 23 -6.5 39.5t29.5 25.5l115 47q3 2 8 3t11 1z" />
    <glyph glyph-name="idieresis" unicode="&#xef;" horiz-adv-x="212" 
d="M106 -10q-28 0 -40.5 8.5t-15.5 22t-3 30.5v372q0 16 3 29.5t16 21.5t41 8t40 -8t15.5 -22t3.5 -31v-371q0 -17 -3.5 -30.5t-16 -21.5t-40.5 -8zM200 556q-31 0 -44 9.5t-16 24.5t-3 30q0 16 3 30.5t16 23.5t45 9t45 -9.5t15.5 -24t2.5 -30.5q0 -15 -2.5 -29.5t-15.5 -24
t-46 -9.5zM20 556q-32 0 -45 9.5t-16 24.5t-3 30q1 16 3.5 30.5t15.5 23.5t45 9t45 -9.5t15.5 -24t2.5 -30.5q0 -15 -2.5 -29.5t-15.5 -24t-45 -9.5z" />
    <glyph glyph-name="eth" unicode="&#xf0;" horiz-adv-x="575" 
d="M355 735q14 -9 18.5 -17.5t2.5 -17t-10 -20.5l-22 -28q49 -32 85 -75t59 -96.5t33.5 -116.5t7.5 -136q-1 -50 -21 -94t-53.5 -77.5t-77.5 -52t-95 -18.5q-47 0 -91 18t-78.5 51.5t-54.5 79.5t-20 101q0 54 20 99t53.5 78t76 51t87.5 18q42 0 75.5 -12.5t54.5 -32.5
q-18 48 -47.5 82t-71.5 56l-32 -44q-9 -12 -17 -16.5t-16.5 -2t-19.5 8.5q-15 10 -20.5 18t-3.5 17t11 20l24 31q-18 8 -29.5 14.5t-18.5 16.5q-7 6 -6.5 16.5t6.5 24.5q8 17 19 23.5t27 5.5q11 -1 22 -4.5t21.5 -7t19.5 -7.5l27 36q9 12 16.5 17t16.5 3.5t22 -10.5z
M286 102q33 0 61.5 16t47 46t18.5 72q0 39 -16.5 69.5t-45 48t-65.5 17.5t-67 -18t-47 -48.5t-17 -69.5q0 -42 18.5 -71.5t49 -45.5t63.5 -16z" />
    <glyph glyph-name="ntilde" unicode="&#xf1;" horiz-adv-x="560" 
d="M111 -9q-27 0 -39.5 8.5t-15.5 22t-3 30.5v374q0 16 3 29t16 20.5t40 7.5q24 0 36 -6t16 -15t4.5 -18t1.5 -14l-4 -32q6 16 20 31t34 27.5t43.5 20t48.5 7.5q47 0 84 -17t63.5 -48t40.5 -73.5t14 -95.5v-199q0 -17 -3.5 -30.5t-15.5 -21.5t-41 -8q-28 0 -41 8.5t-16 22
t-3 30.5v199q0 36 -12.5 62t-36 40t-59.5 14q-35 0 -61 -14.5t-40 -40.5t-14 -61v-200q0 -17 -3 -30.5t-15.5 -21.5t-41.5 -8zM228 691q25 0 41 -12t28.5 -23.5t24.5 -11.5q11 0 19.5 8t17 17t19.5 13q7 5 17.5 4.5t20.5 -7.5q20 -13 26 -26t-3 -30q-6 -19 -23 -37
t-39.5 -28.5t-46.5 -10.5q-22 0 -38.5 11.5t-30 23.5t-27.5 12q-19 0 -32 -9t-19 -19q-7 -10 -17 -13.5t-29 9.5q-20 15 -24 29t8 32q10 18 28 33.5t39 25t40 9.5z" />
    <glyph glyph-name="ograve" unicode="&#xf2;" horiz-adv-x="559" 
d="M282 -16q-48 0 -93.5 18.5t-82 52.5t-58 80t-21.5 101q0 53 20 99t55 81t80.5 54.5t97.5 19.5q70 0 127 -33.5t91 -90.5t34 -129q0 -57 -21 -103.5t-57 -80t-80.5 -51.5t-91.5 -18zM280 102q33 0 63.5 16.5t50 47.5t19.5 73q0 39 -17.5 69t-47.5 47t-69 17
q-37 0 -67 -17.5t-47.5 -48t-17.5 -68.5q0 -42 19 -72.5t49.5 -47t64.5 -16.5zM309 538l-153 51q-25 9 -30.5 23t2.5 41q9 29 21.5 36t37.5 0l153 -50q25 -9 30.5 -23t-3.5 -42q-9 -29 -21 -35.5t-37 -0.5z" />
    <glyph glyph-name="oacute" unicode="&#xf3;" horiz-adv-x="559" 
d="M282 -16q-48 0 -93.5 18.5t-82 52.5t-58 80t-21.5 101q0 53 20 99t55 81t80.5 54.5t97.5 19.5q70 0 127 -33.5t91 -90.5t34 -129q0 -57 -21 -103.5t-57 -80t-80.5 -51.5t-91.5 -18zM280 102q33 0 63.5 16.5t50 47.5t19.5 73q0 39 -17.5 69t-47.5 47t-69 17
q-37 0 -67 -17.5t-47.5 -48t-17.5 -68.5q0 -42 19 -72.5t49.5 -47t64.5 -16.5zM248 534q-16 -3 -26.5 6t-17.5 32q-9 28 -3.5 42.5t30.5 22.5l168 53q16 3 26.5 -6.5t16.5 -32.5q10 -27 3.5 -41.5t-30.5 -22.5z" />
    <glyph glyph-name="ocircumflex" unicode="&#xf4;" horiz-adv-x="559" 
d="M282 -16q-48 0 -93.5 18.5t-82 52.5t-58 80t-21.5 101q0 53 20 99t55 81t80.5 54.5t97.5 19.5q70 0 127 -33.5t91 -90.5t34 -129q0 -57 -21 -103.5t-57 -80t-80.5 -51.5t-91.5 -18zM280 102q33 0 63.5 16.5t50 47.5t19.5 73q0 39 -17.5 69t-47.5 47t-69 17
q-37 0 -67 -17.5t-47.5 -48t-17.5 -68.5q0 -42 19 -72.5t49.5 -47t64.5 -16.5zM280 691q6 0 10.5 -1t7.5 -3l114 -47q25 -9 30.5 -26t-6.5 -40q-11 -21 -23.5 -30.5t-25.5 -3.5l-107 49l-107 -48q-14 -6 -26.5 4t-23.5 30q-12 23 -6.5 39.5t29.5 25.5l115 47q3 2 8 3t11 1z
" />
    <glyph glyph-name="otilde" unicode="&#xf5;" horiz-adv-x="559" 
d="M282 -16q-48 0 -93.5 18.5t-82 52.5t-58 80t-21.5 101q0 53 20 99t55 81t80.5 54.5t97.5 19.5q70 0 127 -33.5t91 -90.5t34 -129q0 -57 -21 -103.5t-57 -80t-80.5 -51.5t-91.5 -18zM280 102q33 0 63.5 16.5t50 47.5t19.5 73q0 39 -17.5 69t-47.5 47t-69 17
q-37 0 -67 -17.5t-47.5 -48t-17.5 -68.5q0 -42 19 -72.5t49.5 -47t64.5 -16.5zM223 691q25 0 41 -12t28.5 -23.5t24.5 -11.5q11 0 19.5 8t17 17t19.5 13q7 5 17.5 4.5t20.5 -7.5q20 -13 26 -26t-3 -30q-6 -19 -23 -37t-39.5 -28.5t-46.5 -10.5q-22 0 -38.5 11.5t-30 23.5
t-27.5 12q-19 0 -32 -9t-19 -19q-7 -10 -17 -13.5t-29 9.5q-20 15 -24 29t8 32q10 18 28 33.5t39 25t40 9.5z" />
    <glyph glyph-name="odieresis" unicode="&#xf6;" horiz-adv-x="559" 
d="M282 -16q-48 0 -93.5 18.5t-82 52.5t-58 80t-21.5 101q0 53 20 99t55 81t80.5 54.5t97.5 19.5q70 0 127 -33.5t91 -90.5t34 -129q0 -57 -21 -103.5t-57 -80t-80.5 -51.5t-91.5 -18zM280 102q33 0 63.5 16.5t50 47.5t19.5 73q0 39 -17.5 69t-47.5 47t-69 17
q-37 0 -67 -17.5t-47.5 -48t-17.5 -68.5q0 -42 19 -72.5t49.5 -47t64.5 -16.5zM373 556q-31 0 -44 9.5t-16 24.5t-3 30q0 16 3 30.5t16 23.5t45 9t45 -9.5t15.5 -24t2.5 -30.5q0 -15 -2.5 -29.5t-15.5 -24t-46 -9.5zM193 556q-32 0 -45 9.5t-16 24.5t-3 30q1 16 3.5 30.5
t15.5 23.5t45 9t45 -9.5t15.5 -24t2.5 -30.5q0 -15 -2.5 -29.5t-15.5 -24t-45 -9.5z" />
    <glyph glyph-name="divide" unicode="&#xf7;" horiz-adv-x="465" 
d="M82 208q-13 0 -25 3t-19.5 14t-7.5 36t7.5 36t20 14t25.5 3h300q14 0 26 -3t19.5 -14.5t7.5 -36.5q0 -24 -7.5 -35t-19.5 -14t-27 -3h-300zM231 23q-35 0 -48.5 13.5t-13.5 47.5q0 36 13.5 49.5t48.5 13.5t48.5 -13.5t13.5 -48.5t-14 -48.5t-48 -13.5zM231 374
q-35 0 -48.5 13.5t-13.5 46.5q0 36 13.5 50t48.5 14t48.5 -14t13.5 -49q0 -34 -14 -47.5t-48 -13.5z" />
    <glyph glyph-name="oslash" unicode="&#xf8;" horiz-adv-x="559" 
d="M433 414l-104 50l53 105q14 28 29.5 32.5t46.5 -9.5q21 -10 29 -20t7 -23t-10 -33zM106 -115q-27 14 -34.5 30t7.5 44l52 105l101 -55l-49 -99q-14 -29 -30 -34t-47 9zM282 -16q-48 0 -93.5 18.5t-82 52.5t-58 80t-21.5 101q0 53 20 99t55 81t80.5 54.5t97.5 19.5
q70 0 127 -33.5t91 -90.5t34 -129q0 -57 -21 -103.5t-57 -80t-80.5 -51.5t-91.5 -18zM280 102q33 0 63.5 16.5t50 47.5t19.5 73q0 39 -17.5 69t-47.5 47t-69 17q-37 0 -67 -17.5t-47.5 -48t-17.5 -68.5q0 -42 19 -72.5t49.5 -47t64.5 -16.5z" />
    <glyph glyph-name="ugrave" unicode="&#xf9;" horiz-adv-x="551" 
d="M256 -9q-46 0 -84.5 16.5t-67.5 47.5t-45 74t-16 95v199q0 17 3 30.5t16 21.5t40 8q29 0 41.5 -8t15.5 -22t3 -31v-198q0 -36 12.5 -62t36.5 -40.5t59 -14.5q36 0 61.5 14.5t39.5 41t14 61.5v200q0 17 3 30.5t16 21t41 7.5t40 -8t15.5 -22t3.5 -30v-375q0 -15 -3.5 -28
t-16 -21t-40.5 -8q-20 0 -31.5 4.5t-17 12t-7 15.5t-1.5 16l8 27q-6 -9 -18 -21.5t-29.5 -25t-40.5 -20.5t-51 -8zM304 538l-153 51q-25 9 -30.5 23t2.5 41q9 29 21.5 36t37.5 0l153 -50q25 -9 30.5 -23t-3.5 -42q-9 -29 -21 -35.5t-37 -0.5z" />
    <glyph glyph-name="uacute" unicode="&#xfa;" horiz-adv-x="551" 
d="M256 -9q-46 0 -84.5 16.5t-67.5 47.5t-45 74t-16 95v199q0 17 3 30.5t16 21.5t40 8q29 0 41.5 -8t15.5 -22t3 -31v-198q0 -36 12.5 -62t36.5 -40.5t59 -14.5q36 0 61.5 14.5t39.5 41t14 61.5v200q0 17 3 30.5t16 21t41 7.5t40 -8t15.5 -22t3.5 -30v-375q0 -15 -3.5 -28
t-16 -21t-40.5 -8q-20 0 -31.5 4.5t-17 12t-7 15.5t-1.5 16l8 27q-6 -9 -18 -21.5t-29.5 -25t-40.5 -20.5t-51 -8zM243 534q-16 -3 -26.5 6t-17.5 32q-9 28 -3.5 42.5t30.5 22.5l168 53q16 3 26.5 -6.5t16.5 -32.5q10 -27 3.5 -41.5t-30.5 -22.5z" />
    <glyph glyph-name="ucircumflex" unicode="&#xfb;" horiz-adv-x="551" 
d="M256 -9q-46 0 -84.5 16.5t-67.5 47.5t-45 74t-16 95v199q0 17 3 30.5t16 21.5t40 8q29 0 41.5 -8t15.5 -22t3 -31v-198q0 -36 12.5 -62t36.5 -40.5t59 -14.5q36 0 61.5 14.5t39.5 41t14 61.5v200q0 17 3 30.5t16 21t41 7.5t40 -8t15.5 -22t3.5 -30v-375q0 -15 -3.5 -28
t-16 -21t-40.5 -8q-20 0 -31.5 4.5t-17 12t-7 15.5t-1.5 16l8 27q-6 -9 -18 -21.5t-29.5 -25t-40.5 -20.5t-51 -8zM275 691q6 0 10.5 -1t7.5 -3l114 -47q25 -9 30.5 -26t-6.5 -40q-11 -21 -23.5 -30.5t-25.5 -3.5l-107 49l-107 -48q-14 -6 -26.5 4t-23.5 30
q-12 23 -6.5 39.5t29.5 25.5l115 47q3 2 8 3t11 1z" />
    <glyph glyph-name="udieresis" unicode="&#xfc;" horiz-adv-x="551" 
d="M256 -9q-46 0 -84.5 16.5t-67.5 47.5t-45 74t-16 95v199q0 17 3 30.5t16 21.5t40 8q29 0 41.5 -8t15.5 -22t3 -31v-198q0 -36 12.5 -62t36.5 -40.5t59 -14.5q36 0 61.5 14.5t39.5 41t14 61.5v200q0 17 3 30.5t16 21t41 7.5t40 -8t15.5 -22t3.5 -30v-375q0 -15 -3.5 -28
t-16 -21t-40.5 -8q-20 0 -31.5 4.5t-17 12t-7 15.5t-1.5 16l8 27q-6 -9 -18 -21.5t-29.5 -25t-40.5 -20.5t-51 -8zM369 556q-31 0 -44 9.5t-16 24.5t-3 30q0 16 3 30.5t16 23.5t45 9t45 -9.5t15.5 -24t2.5 -30.5q0 -15 -2.5 -29.5t-15.5 -24t-46 -9.5zM189 556
q-32 0 -45 9.5t-16 24.5t-3 30q1 16 3.5 30.5t15.5 23.5t45 9t45 -9.5t15.5 -24t2.5 -30.5q0 -15 -2.5 -29.5t-15.5 -24t-45 -9.5z" />
    <glyph glyph-name="yacute" unicode="&#xfd;" horiz-adv-x="543" 
d="M176 -207q-32 14 -37 31.5t9 46.5l258 578q14 32 30 38.5t49 -7.5q31 -14 36.5 -31t-7.5 -46l-260 -581q-13 -32 -29 -37.5t-49 8.5zM269 38l-231 355q-18 27 -14.5 45t31.5 35q31 19 48.5 15t35.5 -32l183 -285zM243 534q-16 -3 -26.5 6t-17.5 32q-9 28 -3.5 42.5
t30.5 22.5l168 53q16 3 26.5 -6.5t16.5 -32.5q10 -27 3.5 -41.5t-30.5 -22.5z" />
    <glyph glyph-name="thorn" unicode="&#xfe;" horiz-adv-x="560" 
d="M304 -3q-49 0 -87.5 18.5t-65 52t-40.5 77.5t-13 95q0 51 14 95.5t40.5 77.5t64.5 52t87 19q45 0 86 -19t72.5 -53t49.5 -78.5t18 -95.5q0 -52 -18 -96t-49.5 -76.5t-72 -50.5t-86.5 -18zM104 -210q-27 0 -39 8t-15 21.5t-3 30.5v804q0 17 3 30.5t15 21.5t39 8
q26 0 38 -8t15.5 -21.5t3.5 -30.5v-805q0 -16 -3 -29.5t-15 -21.5t-39 -8zM287 109q35 0 63 16.5t44.5 46t16.5 66.5q0 38 -16 67t-44 45.5t-63 16.5t-63 -17t-44 -45.5t-16 -66.5q0 -37 16.5 -66.5t44 -46t61.5 -16.5z" />
    <glyph glyph-name="ydieresis" unicode="&#xff;" horiz-adv-x="543" 
d="M176 -207q-32 14 -37 31.5t9 46.5l258 578q14 32 30 38.5t49 -7.5q31 -14 36.5 -31t-7.5 -46l-260 -581q-13 -32 -29 -37.5t-49 8.5zM269 38l-231 355q-18 27 -14.5 45t31.5 35q31 19 48.5 15t35.5 -32l183 -285zM369 556q-31 0 -44 9.5t-16 24.5t-3 30q0 16 3 30.5
t16 23.5t45 9t45 -9.5t15.5 -24t2.5 -30.5q0 -15 -2.5 -29.5t-15.5 -24t-46 -9.5zM189 556q-32 0 -45 9.5t-16 24.5t-3 30q1 16 3.5 30.5t15.5 23.5t45 9t45 -9.5t15.5 -24t2.5 -30.5q0 -15 -2.5 -29.5t-15.5 -24t-45 -9.5z" />
    <glyph glyph-name="dotlessi" unicode="&#x131;" horiz-adv-x="212" 
d="M106 -10q-28 0 -40.5 8.5t-15.5 22t-3 30.5v372q0 16 3 29.5t16 21.5t41 8t40 -8t15.5 -22t3.5 -31v-371q0 -17 -3.5 -30.5t-16 -21.5t-40.5 -8z" />
    <glyph glyph-name="Lslash" unicode="&#x141;" horiz-adv-x="629" 
d="M80 242q-25 -8 -39 -1t-22 34q-7 28 -0.5 41.5t32.5 20.5l273 85q26 7 38.5 -0.5t20.5 -33.5q7 -26 -0.5 -39.5t-31.5 -21.5zM187 -10q-29 0 -42 8.5t-16.5 22.5t-3.5 30v577q0 17 3.5 31t16 22t41.5 8q28 0 40.5 -8t16 -22t3.5 -31v-530h305q15 0 27 -2.5t19 -14
t7 -36.5t-7 -36.5t-19 -15t-27 -3.5h-364z" />
    <glyph glyph-name="lslash" unicode="&#x142;" horiz-adv-x="380" 
d="M67 270q-22 -6 -33.5 1.5t-19.5 32.5q-8 26 -0.5 39.5t33.5 20.5l264 75q24 6 36 -1t19 -31q7 -27 -0.5 -40t-31.5 -20zM291 -10q-37 0 -65.5 5t-49 17t-33.5 32.5t-19.5 50.5t-6.5 72v482q0 17 3.5 30.5t16 22t40.5 8.5t40.5 -8t16 -21.5t3.5 -30.5v-478
q0 -19 2.5 -31.5t9 -20t17 -10.5t25.5 -3q13 0 23.5 -3t17 -15t6.5 -39q0 -28 -6.5 -41t-17.5 -16t-23 -3z" />
    <glyph glyph-name="OE" unicode="&#x152;" horiz-adv-x="1047" 
d="M353 -10q-69 2 -127 28.5t-101 73.5t-66.5 109.5t-23.5 135.5q0 75 23.5 139t66.5 112t101 74.5t126 26.5h600q17 0 31 -3.5t22 -16t8 -41.5q0 -28 -8.5 -40.5t-22.5 -16t-30 -3.5h-332v-166h223q17 0 30.5 -3.5t21.5 -16t8 -41.5q0 -28 -8 -41t-22 -16t-32 -3h-221v-172
h332q17 1 31 -2t22 -15.5t8 -41.5q0 -28 -8.5 -40.5t-22.5 -16t-30 -3.5h-599zM351 109h148v459h-147q-58 -1 -102 -31t-69 -81t-25 -116q0 -66 25 -118t69 -81.5t101 -31.5z" />
    <glyph glyph-name="oe" unicode="&#x153;" horiz-adv-x="911" 
d="M282 -16q-48 0 -93.5 18.5t-82 52.5t-58 80t-21.5 101q0 53 20 99t55 81t80.5 54.5t97.5 19.5q70 0 127 -33.5t91 -90.5t34 -129q0 -57 -21 -103.5t-57 -80t-80.5 -51.5t-91.5 -18zM280 102q33 0 63.5 16.5t50 47.5t19.5 73q0 39 -17.5 69t-47.5 47t-69 17
q-37 0 -67 -17.5t-47.5 -48t-17.5 -68.5q0 -42 19 -72.5t49.5 -47t64.5 -16.5zM673 -17q-65 0 -114 21.5t-81 58t-48.5 82t-16.5 94.5q0 72 33 128t91.5 88t133.5 32q54 0 95 -17t69 -44.5t42 -60.5t14 -64q0 -53 -25 -79t-63 -26h-263q1 -32 22 -56t51.5 -37t62.5 -13
q26 0 45 3t33.5 8t25.5 10.5t20 8.5t18 3q13 0 22.5 -6.5t16.5 -21.5q5 -10 7.5 -17.5t2.5 -15.5q0 -20 -24.5 -38t-68 -29.5t-101.5 -11.5zM539 272h202q17 0 25.5 4.5t8.5 22.5q0 22 -13 40t-36.5 29t-54.5 11q-33 0 -63 -14.5t-48.5 -39t-20.5 -53.5z" />
    <glyph glyph-name="Scaron" unicode="&#x160;" horiz-adv-x="550" 
d="M271 -19q-45 0 -81.5 11t-64 28t-46.5 35t-28 33q-13 18 -17 32t2.5 27.5t24.5 28.5q18 16 33.5 16.5t30 -9.5t28.5 -28q24 -32 54 -45.5t60 -13.5q39 0 68 10.5t45.5 31.5t16.5 54q0 27 -16.5 44.5t-43.5 30t-60.5 23t-67.5 23.5q-24 8 -48 19.5t-44.5 26.5t-36 35.5
t-24.5 47.5t-9 63q0 57 28 100.5t78 69t114 25.5q41 0 73.5 -7.5t56 -19t39 -23t22.5 -19.5q23 -23 25.5 -38.5t-18.5 -41.5q-21 -27 -40.5 -29.5t-43.5 15.5q-16 17 -32 27.5t-35.5 15.5t-47.5 5q-20 0 -38.5 -5.5t-31.5 -16t-20.5 -25.5t-7.5 -34q0 -26 14.5 -42.5
t39.5 -27t56 -19.5t63 -19q33 -11 65 -26t57 -37.5t40 -56t15 -81.5q0 -55 -21 -96t-57 -67t-80 -38.5t-89 -12.5zM272 841l86 43q10 5 22 7t24.5 -4.5t24.5 -30.5t6 -40.5t-30 -25.5l-114 -47q-4 -1 -8.5 -2.5t-10.5 -1.5t-10.5 1.5l-7.5 2.5l-114 47q-23 9 -29.5 25.5
t5.5 39.5t23.5 30.5t22 6t19.5 -5.5z" />
    <glyph glyph-name="scaron" unicode="&#x161;" horiz-adv-x="459" 
d="M223 -16q-26 0 -55 5.5t-56 16t-46.5 25t-24.5 32.5q-4 10 -3 19.5t6 20t15 21.5q9 11 18.5 12.5t24.5 -6.5q13 -5 28.5 -13t32 -16t34 -13t34.5 -5q37 0 59 12.5t22 35.5q0 13 -7 23t-18.5 16.5t-27 12t-33 10t-36.5 10.5q-25 7 -50 17t-44.5 26t-31.5 40t-12 60
q0 45 21.5 76.5t62.5 48.5t99 17q20 0 38.5 -3t36 -8.5t34 -13.5t31.5 -18q25 -14 26 -32.5t-14 -39.5q-11 -14 -22 -19.5t-23 -0.5q-16 8 -34.5 17.5t-38 16.5t-40.5 7q-20 0 -36 -6t-24 -17t-8 -26q0 -14 8 -23t21 -15t31 -10.5t38 -8.5q28 -6 57 -15t53.5 -25t39.5 -42.5
t15 -68.5q0 -73 -53.5 -113t-147.5 -40zM231 639l86 43q10 5 22 7t24.5 -4.5t24.5 -30.5t6 -40.5t-30 -25.5l-114 -47q-4 -1 -8.5 -2.5t-10.5 -1.5t-10.5 1.5l-7.5 2.5l-114 47q-23 9 -29.5 25.5t5.5 39.5t23.5 30.5t22 6t19.5 -5.5z" />
    <glyph glyph-name="Ydieresis" unicode="&#x178;" horiz-adv-x="638" 
d="M586 682q29 -20 32 -38t-14 -42l-223 -337v-215q0 -17 -3.5 -30.5t-16.5 -22t-41 -8.5q-29 0 -41.5 8.5t-16 22.5t-3.5 32v213l-224 336q-18 25 -13.5 43t32.5 37q20 14 34.5 17t26.5 -5t23 -26l180 -285l183 285q12 18 23.5 25.5t26.5 5t35 -15.5zM412 756
q-31 0 -44 9.5t-16 24.5t-3 30q0 16 3 30.5t16 23.5t45 9t45 -9.5t15.5 -24t2.5 -30.5q0 -15 -2.5 -29.5t-15.5 -24t-46 -9.5zM232 756q-32 0 -45 9.5t-16 24.5t-3 30q1 16 3.5 30.5t15.5 23.5t45 9t45 -9.5t15.5 -24t2.5 -30.5q0 -15 -2.5 -29.5t-15.5 -24t-45 -9.5z" />
    <glyph glyph-name="Zcaron" unicode="&#x17d;" horiz-adv-x="583" 
d="M84 -11q-25 0 -42 16.5t-17 44.5q0 9 2 17.5t7 14.5l338 489h-283q-17 0 -31.5 3t-23.5 15.5t-9 38.5q0 29 8 42t22.5 16.5t30.5 3.5h398q27 0 43.5 -18t16.5 -42q0 -12 -3 -22t-9 -16l-334 -485h301q16 0 29.5 -3.5t21.5 -15.5t8 -39q0 -28 -8 -40.5t-22 -16t-31 -3.5
h-413zM292 841l86 43q10 5 22 7t24.5 -4.5t24.5 -30.5t6 -40.5t-30 -25.5l-114 -47q-4 -1 -8.5 -2.5t-10.5 -1.5t-10.5 1.5l-7.5 2.5l-114 47q-23 9 -29.5 25.5t5.5 39.5t23.5 30.5t22 6t19.5 -5.5z" />
    <glyph glyph-name="zcaron" unicode="&#x17e;" horiz-adv-x="536" 
d="M89 -10q-27 0 -43 16.5t-16 42.5q0 14 4.5 25t13.5 20l261 269h-197q-16 0 -30 3.5t-22.5 16t-8.5 40.5t8.5 40.5t22.5 16t30 3.5h323q26 0 42.5 -16t16.5 -42q0 -13 -4.5 -24.5t-11.5 -18.5l-258 -272h227q17 0 30.5 -3.5t21.5 -16.5t8 -41q0 -27 -8.5 -40t-22 -16
t-30.5 -3h-357zM267 639l86 43q10 5 22 7t24.5 -4.5t24.5 -30.5t6 -40.5t-30 -25.5l-114 -47q-4 -1 -8.5 -2.5t-10.5 -1.5t-10.5 1.5l-7.5 2.5l-114 47q-23 9 -29.5 25.5t5.5 39.5t23.5 30.5t22 6t19.5 -5.5z" />
    <glyph glyph-name="florin" unicode="&#x192;" horiz-adv-x="483" 
d="M55 -209q-16 0 -29.5 2t-21 10.5t-7.5 26.5q0 6 0.5 11t1.5 8q2 28 16.5 41.5t51.5 13.5q18 0 32.5 6.5t24 18t10.5 26.5l41 390l-51 -1q-13 0 -24.5 3t-18.5 13t-7 29v9.5v6.5q3 28 12.5 40t24.5 15t32 3l43 -4l11 81q3 30 18.5 58.5t41.5 51.5t61.5 36.5t78.5 13.5
q14 0 25.5 -2.5t18.5 -12t7 -30.5v-8t-1 -9q-3 -26 -12.5 -38t-23 -15t-30.5 -3q-15 0 -27 -3t-20.5 -9t-14 -15t-6.5 -20l-8 -78l93 6q13 0 24.5 -2.5t18.5 -11.5t7 -27v-10.5t-1 -9.5q-2 -28 -11.5 -40t-24 -15t-31.5 -3l-86 3l-42 -388q-8 -46 -25 -78t-42 -52t-57.5 -29
t-72.5 -9z" />
    <glyph glyph-name="circumflex" unicode="&#x2c6;" horiz-adv-x="460" 
d="M232 691q6 0 10.5 -1t7.5 -3l114 -47q25 -9 30.5 -26t-6.5 -40q-11 -21 -23.5 -30.5t-25.5 -3.5l-107 49l-107 -48q-14 -6 -26.5 4t-23.5 30q-12 23 -6.5 39.5t29.5 25.5l115 47q3 2 8 3t11 1z" />
    <glyph glyph-name="caron" unicode="&#x2c7;" horiz-adv-x="458" 
d="M230 641l86 43q10 5 22 7t24.5 -4.5t24.5 -30.5t6 -40.5t-30 -25.5l-114 -47q-4 -1 -8.5 -2.5t-10.5 -1.5t-10.5 1.5l-7.5 2.5l-114 47q-23 9 -29.5 25.5t5.5 39.5t23.5 30.5t22 6t19.5 -5.5z" />
    <glyph glyph-name="breve" unicode="&#x2d8;" horiz-adv-x="355" 
d="M178 553q-56 0 -94.5 31t-49.5 81q-3 16 2.5 22t22.5 6h30q18 0 21 -17q5 -24 22.5 -38.5t45.5 -14.5t45 14.5t22 38.5q3 17 21 17h31q17 0 22.5 -6.5t2.5 -21.5q-10 -50 -48.5 -81t-95.5 -31z" />
    <glyph glyph-name="dotaccent" unicode="&#x2d9;" horiz-adv-x="214" 
d="M107 656q-31 0 -43.5 9.5t-15.5 24t-3 29.5t3 29t15.5 23.5t44.5 9.5q31 0 43.5 -9.5t15 -24t2.5 -29.5q0 -14 -3 -29t-15.5 -24t-43.5 -9z" />
    <glyph glyph-name="ring" unicode="&#x2da;" horiz-adv-x="324" 
d="M162 523q-32 0 -58 16t-42 42.5t-16 57.5q0 32 16 58.5t41.5 42.5t57.5 16q33 0 59 -15.5t42 -41.5t16 -59t-15.5 -59.5t-42 -42t-58.5 -15.5zM162 587q22 0 37 15.5t15 38.5q0 22 -14.5 36.5t-38.5 14.5q-21 0 -36.5 -15t-15.5 -37q0 -23 15.5 -38t37.5 -15z" />
    <glyph glyph-name="ogonek" unicode="&#x2db;" horiz-adv-x="277" 
d="M153 -183q-43 0 -73 29.5t-30 72.5q0 32 15.5 54.5t39.5 34.5t47 12q16 0 32.5 -5.5t28.5 -13.5t13 -17q2 -5 0 -11t-7 -14q-6 -9 -12 -15.5t-15 -6.5q-7 0 -16.5 7.5t-23.5 7.5q-12 0 -23 -9t-11 -25q0 -15 11 -24t23 -9t20.5 7t17.5 7q7 0 13.5 -4t14.5 -16
q5 -6 7.5 -12t0.5 -12q-1 -15 -24.5 -26.5t-48.5 -11.5z" />
    <glyph glyph-name="tilde" unicode="&#x2dc;" horiz-adv-x="459" 
d="M173 691q25 0 41 -12t28.5 -23.5t24.5 -11.5q11 0 19.5 8t17 17t19.5 13q7 5 17.5 4.5t20.5 -7.5q20 -13 26 -26t-3 -30q-6 -19 -23 -37t-39.5 -28.5t-46.5 -10.5q-22 0 -38.5 11.5t-30 23.5t-27.5 12q-19 0 -32 -9t-19 -19q-7 -10 -17 -13.5t-29 9.5q-20 15 -24 29t8 32
q10 18 28 33.5t39 25t40 9.5z" />
    <glyph glyph-name="hungarumlaut" unicode="&#x2dd;" horiz-adv-x="397" 
d="M285 572q-10 -13 -23.5 -13t-35.5 12q-25 15 -30 29.5t8 37.5l90 151q10 12 24 12t34 -13q25 -14 29.5 -28.5t-7.5 -36.5zM115 572q-10 -13 -23.5 -13t-35.5 12q-25 15 -30 29.5t8 37.5l90 151q10 12 24 12t34 -13q25 -14 29.5 -28.5t-7.5 -36.5z" />
    <glyph glyph-name="gravecomb" unicode="&#x300;" 
d="M234 538l-153 51q-25 9 -30.5 23t2.5 41q9 29 21.5 36t37.5 0l153 -50q25 -9 30.5 -23t-3.5 -42q-9 -29 -21 -35.5t-37 -0.5z" />
    <glyph glyph-name="acutecomb" unicode="&#x301;" 
d="M138 536q-16 -3 -26.5 6t-17.5 32q-9 28 -3.5 42.5t30.5 22.5l168 53q16 3 26.5 -6.5t16.5 -32.5q10 -27 3.5 -41.5t-30.5 -22.5z" />
    <glyph glyph-name="uni0302" unicode="&#x302;" 
d="M232 691q6 0 10.5 -1t7.5 -3l114 -47q25 -9 30.5 -26t-6.5 -40q-11 -21 -23.5 -30.5t-25.5 -3.5l-107 49l-107 -48q-14 -6 -26.5 4t-23.5 30q-12 23 -6.5 39.5t29.5 25.5l115 47q3 2 8 3t11 1z" />
    <glyph glyph-name="tildecomb" unicode="&#x303;" 
d="M173 691q25 0 41 -12t28.5 -23.5t24.5 -11.5q11 0 19.5 8t17 17t19.5 13q7 5 17.5 4.5t20.5 -7.5q20 -13 26 -26t-3 -30q-6 -19 -23 -37t-39.5 -28.5t-46.5 -10.5q-22 0 -38.5 11.5t-30 23.5t-27.5 12q-19 0 -32 -9t-19 -19q-7 -10 -17 -13.5t-29 9.5q-20 15 -24 29t8 32
q10 18 28 33.5t39 25t40 9.5z" />
    <glyph glyph-name="uni0304" unicode="&#x304;" 
d="M126 570q-8 0 -16.5 2.5t-14 10.5t-5.5 25q0 18 5.5 26t13.5 10t16 2h192q9 0 17 -2t13.5 -10t5.5 -26q0 -17 -5.5 -25t-13.5 -10.5t-17 -2.5h-191z" />
    <glyph glyph-name="uni0306" unicode="&#x306;" 
d="M178 553q-56 0 -94.5 31t-49.5 81q-3 16 2.5 22t22.5 6h30q18 0 21 -17q5 -24 22.5 -38.5t45.5 -14.5t45 14.5t22 38.5q3 17 21 17h31q17 0 22.5 -6.5t2.5 -21.5q-10 -50 -48.5 -81t-95.5 -31z" />
    <glyph glyph-name="uni0307" unicode="&#x307;" 
d="M107 656q-31 0 -43.5 9.5t-15.5 24t-3 29.5t3 29t15.5 23.5t44.5 9.5q31 0 43.5 -9.5t15 -24t2.5 -29.5q0 -14 -3 -29t-15.5 -24t-43.5 -9z" />
    <glyph glyph-name="uni0308" unicode="&#x308;" 
d="M289 556q-31 0 -44 9.5t-16 24.5t-3 30q0 16 3 30.5t16 23.5t45 9t45 -9.5t15.5 -24t2.5 -30.5q0 -15 -2.5 -29.5t-15.5 -24t-46 -9.5zM109 556q-32 0 -45 9.5t-16 24.5t-3 30q1 16 3.5 30.5t15.5 23.5t45 9t45 -9.5t15.5 -24t2.5 -30.5q0 -15 -2.5 -29.5t-15.5 -24
t-45 -9.5z" />
    <glyph glyph-name="uni030A" unicode="&#x30a;" 
d="M162 523q-32 0 -58 16t-42 42.5t-16 57.5q0 32 16 58.5t41.5 42.5t57.5 16q33 0 59 -15.5t42 -41.5t16 -59t-15.5 -59.5t-42 -42t-58.5 -15.5zM162 587q22 0 37 15.5t15 38.5q0 22 -14.5 36.5t-38.5 14.5q-21 0 -36.5 -15t-15.5 -37q0 -23 15.5 -38t37.5 -15z" />
    <glyph glyph-name="uni030B" unicode="&#x30b;" 
d="M285 572q-10 -13 -23.5 -13t-35.5 12q-25 15 -30 29.5t8 37.5l90 151q10 12 24 12t34 -13q25 -14 29.5 -28.5t-7.5 -36.5zM115 572q-10 -13 -23.5 -13t-35.5 12q-25 15 -30 29.5t8 37.5l90 151q10 12 24 12t34 -13q25 -14 29.5 -28.5t-7.5 -36.5z" />
    <glyph glyph-name="uni030C" unicode="&#x30c;" 
d="M230 641l86 43q10 5 22 7t24.5 -4.5t24.5 -30.5t6 -40.5t-30 -25.5l-114 -47q-4 -1 -8.5 -2.5t-10.5 -1.5t-10.5 1.5l-7.5 2.5l-114 47q-23 9 -29.5 25.5t5.5 39.5t23.5 30.5t22 6t19.5 -5.5z" />
    <glyph glyph-name="uni0327" unicode="&#x327;" 
d="M129 -182q-25 0 -48 11.5t-25 27.5q-1 12 8 23q10 11 16 15t12 4q8 0 17.5 -6.5t20.5 -6.5q12 0 23 8.5t11 24.5t-11 25t-23 9q-14 0 -23 -7.5t-17 -7.5t-14.5 6t-11.5 15q-4 7 -6.5 12.5t-1.5 9.5q1 11 12.5 20t28.5 14t33 5q24 0 47.5 -12t39 -34.5t15.5 -53.5
q0 -29 -14 -52t-37.5 -36.5t-51.5 -13.5z" />
    <glyph glyph-name="uni0328" unicode="&#x328;" 
d="M153 -183q-43 0 -73 29.5t-30 72.5q0 32 15.5 54.5t39.5 34.5t47 12q16 0 32.5 -5.5t28.5 -13.5t13 -17q2 -5 0 -11t-7 -14q-6 -9 -12 -15.5t-15 -6.5q-7 0 -16.5 7.5t-23.5 7.5q-12 0 -23 -9t-11 -25q0 -15 11 -24t23 -9t20.5 7t17.5 7q7 0 13.5 -4t14.5 -16
q5 -6 7.5 -12t0.5 -12q-1 -15 -24.5 -26.5t-48.5 -11.5z" />
    <glyph glyph-name="uni05B0" unicode="&#x5b0;" 
d="M76 -222q-17 0 -29.5 12.5t-12.5 30.5q0 19 13 33t29 14q18 0 30.5 -13.5t12.5 -33.5q0 -18 -12.5 -30.5t-30.5 -12.5zM76 -101q-17 0 -29.5 13t-12.5 31q0 19 12.5 31.5t29.5 12.5q18 0 30.5 -13t12.5 -31t-12.5 -31t-30.5 -13z" />
    <glyph glyph-name="uni05B1" unicode="&#x5b1;" 
d="M358 -222q-17 0 -29.5 12.5t-12.5 30.5q0 19 13 33t29 14q18 0 30 -13.5t12 -33.5q0 -18 -12.5 -30.5t-29.5 -12.5zM158 -222q-19 0 -31.5 12.5t-12.5 31.5q0 17 13 31.5t31 14.5q16 0 28 -14t12 -32q0 -19 -12 -31.5t-28 -12.5zM98 -101q-18 0 -31 13t-13 31t13 31
t31 13q17 0 28.5 -12.5t11.5 -31.5t-11.5 -31.5t-28.5 -12.5zM219 -101q-17 0 -29.5 13t-12.5 31q0 19 12.5 31.5t29.5 12.5t29.5 -13t12.5 -31t-12.5 -31t-29.5 -13zM358 -101q-17 0 -29.5 13t-12.5 31q0 19 12.5 31.5t29.5 12.5t29.5 -13t12.5 -31t-12.5 -31t-29.5 -13z
" />
    <glyph glyph-name="uni05B2" unicode="&#x5b2;" 
d="M116 -81q-29 0 -29 29v4q0 13 8 21t21 8h112q13 0 21 -8t8 -21v-4q0 -29 -29 -29h-112zM343 -222q-18 0 -30 12.5t-12 30.5q0 19 12.5 33t28.5 14q18 0 30.5 -13.5t12.5 -33.5q0 -18 -12.5 -30.5t-29.5 -12.5zM343 -101q-18 0 -30 13t-12 31q0 19 12 31.5t30 12.5
q17 0 29.5 -13t12.5 -31t-12.5 -31t-29.5 -13z" />
    <glyph glyph-name="uni05B3" unicode="&#x5b3;" 
d="M160 -187q-14 0 -21.5 8.5t-5.5 22.5l10 75h-46q-29 0 -29 29v4q0 13 7.5 21t21.5 8h131q13 0 21 -8t8 -21v-4q0 -29 -29 -29h-46l8 -76q2 -13 -5.5 -21.5t-21.5 -8.5h-3zM343 -222q-18 0 -30 12.5t-12 30.5q0 19 12.5 33t28.5 14q18 0 30.5 -13.5t12.5 -33.5
q0 -18 -12.5 -30.5t-29.5 -12.5zM343 -101q-18 0 -30 13t-12 31q0 19 12 31.5t30 12.5q17 0 29.5 -13t12.5 -31t-12.5 -31t-29.5 -13z" />
    <glyph glyph-name="uni05B4" unicode="&#x5b4;" 
d="M76 -106q-17 0 -29.5 13t-12.5 31q0 19 12.5 31.5t29.5 12.5q18 0 30.5 -13t12.5 -31t-12.5 -31t-30.5 -13z" />
    <glyph glyph-name="uni05B5" unicode="&#x5b5;" 
d="M223 -106q-17 0 -29.5 13t-12.5 31q0 19 12.5 31.5t29.5 12.5t29.5 -13t12.5 -31t-12.5 -31t-29.5 -13zM98 -106q-18 0 -31 13t-13 31t13 31t31 13q16 0 28 -13t12 -31t-12 -31t-28 -13z" />
    <glyph glyph-name="uni05B6" unicode="&#x5b6;" 
d="M158 -222q-19 0 -31.5 12.5t-12.5 31.5q0 17 13 31.5t31 14.5q16 0 28 -14t12 -32q0 -19 -12 -31.5t-28 -12.5zM98 -101q-18 0 -31 13t-13 31t13 31t31 13q17 0 28.5 -12.5t11.5 -31.5t-11.5 -31.5t-28.5 -12.5zM219 -101q-17 0 -29.5 13t-12.5 31q0 19 12.5 31.5
t29.5 12.5t29.5 -13t12.5 -31t-12.5 -31t-29.5 -13z" />
    <glyph glyph-name="uni05B7" unicode="&#x5b7;" 
d="M97 -81q-29 0 -29 29v4q0 13 7.5 21t21.5 8h112q28 0 28 -29v-4q0 -29 -28 -29h-112z" />
    <glyph glyph-name="uni05B8" unicode="&#x5b8;" 
d="M151 -187q-15 0 -22 8.5t-6 22.5l10 75h-46q-29 0 -29 29v4q0 13 8 21t21 8h131q14 0 21.5 -8t7.5 -21v-4q0 -29 -29 -29h-46l8 -76q2 -13 -5 -21.5t-21 -8.5h-3z" />
    <glyph glyph-name="uni05B9" unicode="&#x5b9;" 
d="M76 567q-18 0 -30 13.5t-12 32.5q0 18 13 31t29 13q17 0 30 -13t13 -31q0 -19 -12 -32.5t-31 -13.5z" />
    <glyph glyph-name="uni05BA" unicode="&#x5ba;" 
d="M76 567q-17 0 -29.5 13.5t-12.5 32.5q0 18 13 31t29 13q17 0 30 -13t13 -31q0 -19 -12.5 -32.5t-30.5 -13.5z" />
    <glyph glyph-name="uni05BB" unicode="&#x5bb;" 
d="M257 -243q-18 0 -30 13t-12 31q0 19 12 31.5t30 12.5q17 0 29.5 -13t12.5 -31t-12.5 -31t-29.5 -13zM79 -88q-18 0 -31 13t-13 31t13 31t31 13t29.5 -12.5t11.5 -31.5t-11.5 -31.5t-29.5 -12.5zM168 -166q-17 0 -29.5 13t-12.5 31q0 19 12.5 32t29.5 13t29.5 -13
t12.5 -32q0 -18 -12.5 -31t-29.5 -13z" />
    <glyph glyph-name="uni05BC" unicode="&#x5bc;" 
d="M76 267q-16 0 -26.5 12t-10.5 29q0 16 11.5 27.5t25.5 11.5q15 0 26.5 -11.5t11.5 -27.5q0 -17 -10.5 -29t-27.5 -12z" />
    <glyph glyph-name="uni05BE" unicode="&#x5be;" horiz-adv-x="302" 
d="M91 449q-17 0 -31 3.5t-22.5 16.5t-8.5 41q0 29 8 41.5t22 16t30 3.5h124q17 0 30.5 -3.5t21.5 -16t8 -41.5q0 -28 -8 -41t-22 -16.5t-31 -3.5h-121z" />
    <glyph glyph-name="uni05BF" unicode="&#x5bf;" 
d="M40 577v34h165v-34h-165z" />
    <glyph glyph-name="uni05C1" unicode="&#x5c1;" 
d="M76 563q-17 0 -29.5 13.5t-12.5 32.5q0 18 13 31t29 13q17 0 30 -13t13 -31q0 -19 -12.5 -32.5t-30.5 -13.5z" />
    <glyph glyph-name="uni05C2" unicode="&#x5c2;" 
d="M76 563q-17 0 -29.5 13.5t-12.5 32.5q0 18 13 31t29 13q17 0 30 -13t13 -31q0 -19 -12.5 -32.5t-30.5 -13.5z" />
    <glyph glyph-name="uni05C7" unicode="&#x5c7;" 
d="M103 -224q-15 0 -22 8.5t-6 22.5l14 124h-31q-13 0 -21 7.5t-8 21.5v1q0 14 8 21.5t21 7.5h91q13 0 21 -7.5t8 -21.5v-1q0 -14 -8 -21.5t-21 -7.5h-32l15 -124q2 -14 -5.5 -22.5t-22.5 -8.5h-1z" />
    <glyph glyph-name="uni05D0" unicode="&#x5d0;" horiz-adv-x="641" 
d="M570 1q-23 -17 -38 -17.5t-25.5 8.5t-21.5 21l-382 459q-12 16 -20 30.5t-4 30t29 33.5q23 18 38 17.5t27.5 -12t25.5 -28.5l382 -459q10 -12 15.5 -25t0.5 -27t-27 -31zM83 -7q-27 6 -36.5 18.5t-9 28.5t5.5 34l110 372l100 -46l-94 -356q-5 -21 -12 -35t-21 -18.5
t-43 2.5zM444 169l-47 53l81 304q5 18 12 32t22.5 19.5t44.5 -3.5q27 -8 35.5 -21t6 -28.5t-7.5 -34.5l-60 -221q-7 -21 -18 -36.5t-27.5 -29.5t-41.5 -34z" />
    <glyph glyph-name="uni05D1" unicode="&#x5d1;" horiz-adv-x="629" 
d="M446 -10q-26 0 -39 7.5t-17 20.5t-4 27v219q0 50 -10.5 87t-31 62t-51 37t-72.5 12h-100q-17 0 -31 4t-22.5 17t-8.5 40q0 28 8.5 40.5t22.5 16t30 3.5h98q72 0 126 -19.5t90 -59t54 -99t18 -138.5v-215q0 -17 -3.5 -31t-16 -22.5t-40.5 -8.5zM111 -10q-17 0 -31 4
t-22.5 17t-8.5 40q0 28 8.5 40.5t22.5 16t30 3.5h419q17 0 30.5 -3.5t22 -16t8.5 -40.5q0 -27 -8.5 -40t-22.5 -17t-31 -4h-417z" />
    <glyph glyph-name="uni05D2" unicode="&#x5d2;" horiz-adv-x="447" 
d="M343 -9q-26 0 -38.5 7.5t-16 20t-5.5 27.5l-34 265q-4 33 -7 60.5t-9.5 48.5t-19 33t-37.5 13q-23 1 -38.5 2t-25.5 5q-10 6 -14.5 16t-4.5 26l2 31q2 21 12.5 30.5t41.5 8.5q3 0 16 -0.5t26 -1.5q49 -3 79.5 -21t47.5 -49t26.5 -73t17.5 -94l42 -295q5 -30 -10 -45
t-51 -15zM99 -6q-20 -2 -36 0t-25 13t-10 35q-1 37 8.5 50.5t37.5 14.5q25 1 49.5 6.5t48.5 15.5t48 24t48.5 31.5t49.5 36.5l1 -76q-19 -23 -38 -44t-39 -39t-42.5 -32t-47 -23.5t-53.5 -12.5z" />
    <glyph glyph-name="uni05D3" unicode="&#x5d3;" horiz-adv-x="603" 
d="M101 462q-17 0 -31 4t-22.5 17t-8.5 40q0 28 8.5 40.5t22.5 16t30 3.5h398q17 0 30.5 -3.5t22 -16t8.5 -40.5q0 -27 -8.5 -40t-22.5 -17t-31 -4h-396zM389 -9q-27 0 -39.5 8.5t-16 22.5t-3.5 30v435l120 -8v-434q0 -14 -4 -26.5t-16.5 -20t-40.5 -7.5z" />
    <glyph glyph-name="uni05D4" unicode="&#x5d4;" horiz-adv-x="603" 
d="M504 -9q-27 0 -39.5 7.5t-16.5 20t-4 26.5v219q0 67 -18 111t-54.5 65.5t-92.5 21.5h-173q-17 0 -31 4t-22.5 17t-8.5 40q0 28 8.5 40.5t22.5 16t30 3.5h171q96 0 160 -35t96 -105t32 -176v-215q0 -16 -3.5 -30t-16 -22.5t-40.5 -8.5zM114 -9q-27 0 -39.5 8.5t-16.5 22.5
t-4 29v215q0 15 4 29t16.5 22t40.5 8q27 0 39.5 -8.5t16 -22t3.5 -29.5v-215q0 -15 -3.5 -28.5t-16 -22t-40.5 -8.5z" />
    <glyph glyph-name="uni05D5" unicode="&#x5d5;" horiz-adv-x="248" 
d="M124 -9q-27 0 -39.5 8.5t-16.5 22.5t-4 29v473q0 15 4 29t16.5 22t40.5 8q27 0 39.5 -8.5t16 -22t3.5 -29.5v-473q0 -15 -3.5 -28.5t-16 -22t-40.5 -8.5z" />
    <glyph glyph-name="uni05D6" unicode="&#x5d6;" horiz-adv-x="439" 
d="M236 -9q-22 0 -34 5t-17 14.5t-7 21.5t-4 25l-26 183q-7 48 -9.5 92.5t5 82.5t28.5 66l104 -7q-11 -11 -16.5 -29.5t-6 -42.5t1.5 -51.5t5.5 -56t7.5 -55.5l25 -182q5 -35 -7.5 -50.5t-49.5 -15.5zM97 462q-16 0 -30 4t-22.5 17t-8.5 40q0 28 8.5 40.5t22 16t29.5 3.5
h234q17 0 30.5 -3.5t22 -16t8.5 -40.5q0 -27 -8.5 -40t-22.5 -17t-31 -4h-232z" />
    <glyph glyph-name="uni05D7" unicode="&#x5d7;" horiz-adv-x="644" 
d="M121 -9q-27 0 -40 8.5t-16.5 22t-3.5 29.5v472q0 15 3.5 28.5t16.5 22t40 8.5l185 1q73 0 127 -19t89.5 -58.5t53.5 -99t18 -139.5v-215q0 -16 -3.5 -30t-16 -22.5t-39.5 -8.5t-40 7.5t-17 20t-4 26.5v219q0 50 -10 87t-30.5 62t-51.5 37t-73 12h-127v-410
q0 -17 -4 -30.5t-16.5 -22t-40.5 -8.5z" />
    <glyph glyph-name="uni05D8" unicode="&#x5d8;" horiz-adv-x="640" 
d="M319 -16q-68 0 -119.5 27t-86 74t-52 108.5t-17.5 131.5v198q0 16 4 29.5t16.5 22t40.5 8.5q27 0 40 -8.5t16.5 -22t3.5 -30.5v-197q0 -107 40.5 -163.5t116.5 -56.5q79 0 118 51.5t37 150.5q-1 73 -34 114t-87 41h-36q-14 0 -26 4t-18.5 17t-6.5 40t8.5 40t22 16.5
t29.5 3.5h31q72 0 126.5 -36t84 -102t26.5 -156q0 -68 -20 -124t-57 -96.5t-88 -62.5t-113 -22z" />
    <glyph glyph-name="uni05D9" unicode="&#x5d9;" horiz-adv-x="248" 
d="M124 257q-27 0 -39.5 8.5t-16.5 22.5t-4 29v207q0 15 4 29t16.5 22t40.5 8q27 0 39.5 -8.5t16 -22t3.5 -29.5v-207q0 -15 -3.5 -28.5t-16 -22t-40.5 -8.5z" />
    <glyph glyph-name="uni05DA" unicode="&#x5da;" horiz-adv-x="555" 
d="M451 -149q-27 0 -39.5 7.5t-16.5 20.5t-4 27v358q0 50 -10.5 87t-31 62t-51.5 37t-73 12h-124q-17 0 -31 4t-22.5 17t-8.5 40q0 28 8.5 40.5t22.5 16t30 3.5h122q73 0 127 -19.5t90 -59t54 -99t18 -138.5v-355q0 -16 -3.5 -30t-16 -22.5t-40.5 -8.5z" />
    <glyph glyph-name="uni05DB" unicode="&#x5db;" horiz-adv-x="565" 
d="M249 -17q-55 0 -97.5 13.5t-71.5 30.5q-20 11 -31.5 25t-12.5 28q-1 8 3 20t11 23q10 17 20 25t22 8q10 0 19.5 -5.5t17.5 -12.5q25 -16 53 -25.5t63 -9.5q49 0 85 22.5t56 63t20 96.5q0 80 -39 128.5t-108 48.5h-138q-14 0 -26 4t-19 17t-7 40t8.5 40t23 16.5t29.5 3.5
h142q74 0 131 -38t89.5 -105.5t32.5 -154.5q0 -72 -22.5 -128t-61 -95t-88.5 -59t-104 -20z" />
    <glyph glyph-name="uni05DC" unicode="&#x5dc;" horiz-adv-x="523" 
d="M194 -6q-32 17 -40 37t10 45q41 62 75 118t62 109t50.5 105.5t41.5 106.5l90 -72q-24 -71 -55 -137.5t-69 -135t-85 -148.5q-9 -13 -19 -24t-24.5 -13t-36.5 9zM480 436l-80 26h-286q-35 0 -50 14t-17 48l-7 154q-1 16 3 29t18 21.5t42 8.5q27 0 38.5 -9t14.5 -23t4 -30
l5 -92h230q40 0 64 -19.5t30 -52.5t-9 -75z" />
    <glyph glyph-name="uni05DD" unicode="&#x5dd;" horiz-adv-x="614" 
d="M110 -9q-28 0 -40.5 8.5t-16.5 22t-4 29.5v465q0 35 17.5 51t53.5 16h185q86 0 146 -34t91.5 -98t31.5 -155v-244q0 -16 -3.5 -30t-16 -22.5t-39.5 -8.5t-40 7.5t-17 20t-4 26.5v248q0 57 -15.5 94.5t-48 56t-82.5 18.5h-138v-410q0 -17 -3.5 -30.5t-16 -22t-40.5 -8.5z
M105 -9l1 121h412l1 -121h-414z" />
    <glyph glyph-name="uni05DE" unicode="&#x5de;" horiz-adv-x="665" 
d="M605 292v-241q0 -27 -4 -40t-16.5 -16.5t-39.5 -3.5h-217q-15 0 -29 3.5t-22.5 16.5t-8.5 40q0 28 8.5 40.5t22.5 16.5t30 4h156v177q0 63 -13.5 102t-40 58t-65.5 19q-35 0 -59.5 -14.5t-42 -40t-29 -58.5t-19.5 -70l-45 -232q-3 -16 -7 -30.5t-16 -23t-39 -8.5
q-37 0 -51 15t-8 46l62 324l43 -39q13 38 25.5 74.5t28.5 68.5t39 56.5t57 38.5t83 14q69 0 117.5 -34t74 -99.5t25.5 -163.5zM119 248l-68 259q-4 16 -4.5 31t10 26.5t38.5 17.5q30 7 44.5 0.5t20 -19.5t8.5 -26l45 -191z" />
    <glyph glyph-name="uni05DF" unicode="&#x5df;" horiz-adv-x="248" 
d="M124 -149q-27 0 -39.5 8.5t-16.5 22.5t-4 29v613q0 15 4 29t16.5 22t40.5 8q27 0 39.5 -8.5t16 -22t3.5 -29.5v-613q0 -15 -3.5 -28.5t-16 -22t-40.5 -8.5z" />
    <glyph glyph-name="uni05E0" unicode="&#x5e0;" horiz-adv-x="439" 
d="M335 -9q-26 0 -39 7.5t-17 20t-4 26.5v248q0 57 -13 94.5t-39 56t-65 18.5h-28q-16 0 -30 4t-22.5 17t-8.5 40q0 28 8.5 40.5t22.5 16t29 3.5h26q81 0 134 -31.5t79.5 -95.5t26.5 -160v-244q0 -16 -3.5 -30t-16 -22.5t-40.5 -8.5zM111 -9q-16 0 -30 3.5t-22.5 16.5
t-8.5 40q0 28 8.5 40.5t22 16.5t29.5 4h231l-1 -121h-229z" />
    <glyph glyph-name="uni05E1" unicode="&#x5e1;" horiz-adv-x="649" 
d="M334 -16q-87 0 -151 36.5t-99 104t-35 159.5v232q0 30 18.5 48.5t48.5 18.5h210q88 0 151.5 -36t98 -103t34.5 -159t-34 -159.5t-96 -104.5t-146 -37zM329 106q75 0 117.5 48t42.5 131q0 56 -19 95.5t-54.5 60.5t-85.5 21h-160v-177q0 -83 42.5 -131t116.5 -48z" />
    <glyph glyph-name="uni05E2" unicode="&#x5e2;" horiz-adv-x="590" 
d="M117 -38q-17 -4 -31.5 -4t-25.5 11t-18 38q-7 25 -1 39t20.5 21.5t32.5 12.5l199 54q45 15 70.5 38t36 56.5t10.5 79.5v220q0 15 3.5 27.5t16 20t39.5 7.5q28 0 41.5 -8.5t17.5 -22.5t4 -30l-1 -181q0 -68 -14 -120.5t-41.5 -91t-70 -66.5t-102.5 -47zM219 94
q-17 9 -33 23.5t-26 45.5l-105 340q-5 17 -6.5 31t8 26t37.5 19q28 8 43 1.5t22.5 -20.5t12.5 -31l123 -412z" />
    <glyph glyph-name="uni05E3" unicode="&#x5e3;" horiz-adv-x="569" 
d="M469 -149q-27 0 -39.5 8.5t-16 22.5t-3.5 29v386q0 56 -16 93.5t-46 56.5t-74 19h-42q-30 0 -53 -15t-33 -36.5t-3 -44.5q4 -18 11.5 -33t18.5 -27.5t28 -22.5q17 -12 19.5 -28t-8 -32t-34.5 -30q-18 -12 -43 -3.5t-49 32t-40 60.5t-17 82q-1 46 15.5 86t47.5 69.5
t72.5 46.5t91.5 17h15q82 0 140 -33.5t88.5 -97.5t30.5 -156v-390q0 -15 -3.5 -28.5t-16 -22t-41.5 -8.5z" />
    <glyph glyph-name="uni05E4" unicode="&#x5e4;" horiz-adv-x="584" 
d="M116 -9q-15 0 -29 3.5t-22.5 16.5t-8.5 40q0 28 8.5 40.5t22.5 16.5t30 4h154q47 0 81 19.5t53 58t19 95.5v12q0 82 -36.5 125.5t-102.5 43.5h-36q-29 0 -52 -14t-34.5 -34.5t-5.5 -42.5q3 -24 13.5 -41t30.5 -29q14 -9 15.5 -22.5t-5 -27t-16 -24.5t-17.5 -14
q-16 -11 -38.5 -4t-45 27t-37.5 52t-17 72q-2 47 13.5 87.5t46 71t72 47.5t90.5 17h20q82 0 141 -34t90.5 -98t31.5 -155v-18q0 -93 -35 -158t-98.5 -99t-148.5 -34h-147z" />
    <glyph glyph-name="uni05E5" unicode="&#x5e5;" horiz-adv-x="569" 
d="M396 -149q-28 -5 -42.5 0t-21.5 16.5t-10 25.5q-14 77 -37.5 154t-55 150t-68 139t-76.5 123q-9 13 -17.5 25.5t-12 25.5t1.5 25t23 23q20 16 35.5 19t29 -4.5t25.5 -24.5q46 -59 87.5 -134t76.5 -157t60.5 -163.5t38.5 -154.5q2 -14 3.5 -28t-1 -26.5t-11.5 -21.5
t-28 -12zM336 176l-81 71l152 301q10 15 21 24.5t26.5 9t37.5 -16.5q23 -14 28 -28t-0.5 -28t-14.5 -29z" />
    <glyph glyph-name="uni05E6" unicode="&#x5e6;" horiz-adv-x="582" 
d="M444 -9l-85 107l-291 392q-17 24 -11.5 42.5t29.5 35.5q23 17 38 17.5t26.5 -8.5t20.5 -23l286 -396q12 -16 21 -29t15 -24q9 -15 9.5 -35.5t-6.5 -38.5t-20.5 -29.5t-31.5 -10.5zM101 -9q-16 0 -30 3.5t-22.5 16.5t-8.5 40q0 28 8.5 40.5t22 16.5t29.5 4h348l3 -121
h-350zM372 201l-82 67l129 286q8 13 17.5 21.5t25 9t39.5 -13.5q23 -13 29 -27t1.5 -28t-12.5 -29z" />
    <glyph glyph-name="uni05E7" unicode="&#x5e7;" horiz-adv-x="602" 
d="M345 -9q-35 12 -46.5 29.5t-0.5 44.5q13 36 29.5 80t34 92.5t35 98.5t33 96.5t27.5 86.5l102 -70q-10 -38 -24.5 -82t-29.5 -90t-30.5 -90.5t-29.5 -83.5t-26 -68q-6 -15 -14.5 -28t-22.5 -18t-37 2zM123 -172q-27 0 -39.5 8.5t-16.5 22.5t-4 29v401q0 16 4 29.5t16.5 22
t40.5 8.5q27 0 39.5 -8.5t16 -22t3.5 -30.5v-401q0 -15 -3.5 -28.5t-16 -22t-40.5 -8.5zM556 437l-99 26h-76h-270q-17 0 -31 3.5t-22.5 17t-8.5 40.5q0 28 8.5 40.5t22.5 16t30 3.5l347 -1q45 0 72 -19t34.5 -52t-7.5 -75z" />
    <glyph glyph-name="uni05E8" unicode="&#x5e8;" horiz-adv-x="540" 
d="M422 -9q-27 0 -40 7.5t-17 20t-4 26.5v219q0 50 -10 87t-31 62t-51.5 37t-72.5 12h-110q-16 0 -30 4t-22.5 17t-8.5 40q0 28 8.5 40.5t22 16t29.5 3.5h108q73 0 127 -19.5t89.5 -59t53.5 -99t18 -138.5v-215q0 -16 -3.5 -30t-16 -22.5t-39.5 -8.5z" />
    <glyph glyph-name="uni05E9" unicode="&#x5e9;" horiz-adv-x="724" 
d="M358 -16q-75 0 -133 26t-97 71t-59 103.5t-20 122.5v216q0 16 4 29.5t16.5 22t40.5 8.5q27 0 40 -8.5t16.5 -22t3.5 -30.5v-215q0 -63 22.5 -108t65 -70t103.5 -25q66 0 109 27t63.5 73t20.5 104v220q0 15 4 27t17 20t40 8t40 -8.5t16.5 -22.5t3.5 -30v-217
q0 -64 -20.5 -122t-60.5 -102.5t-99 -70.5t-137 -26zM166 128l-10 81h33q22 0 41.5 16.5t34.5 46t24 68.5t10 84l4 103q1 15 5 28t16.5 20.5t39.5 7.5q28 0 41 -8t16.5 -21.5t2.5 -29.5l-5 -100q-4 -65 -19 -119.5t-41.5 -94t-64.5 -61t-89 -21.5h-39z" />
    <glyph glyph-name="uni05EA" unicode="&#x5ea;" horiz-adv-x="702" 
d="M106 -9q-17 0 -31 3.5t-22.5 16.5t-8.5 40q0 28 8.5 40.5t22.5 16.5t30 4h62v389l66 -39q-31 -3 -56.5 -4t-43.5 3t-27.5 15.5t-9.5 33.5q0 39 18 55t65 16l172 2q99 1 165 -34t99 -105.5t33 -176.5v-215q0 -16 -3.5 -30t-16 -22.5t-39.5 -8.5t-40 7.5t-17 20t-4 26.5
v219q0 67 -18 111t-54.5 65.5t-92.5 21.5h-74v-392q0 -38 -15.5 -58.5t-45.5 -20.5h-122z" />
    <glyph glyph-name="uni05F3" unicode="&#x5f3;" horiz-adv-x="184" 
d="M40 451l-4 1t-8 7.5t-4 20.5q0 19 6 25t8 6q1 1 14 11.5t15 35.5q-10 2 -17.5 5.5t-13.5 9.5q-9 9 -11 23.5t-2 28.5q1 16 3.5 31t17 25t47.5 10q38 0 54 -16q9 -9 11 -23.5t2 -28.5q0 -7 -0.5 -14t-1.5 -13q-4 -40 -20.5 -73t-41 -52.5t-54.5 -19.5z" />
    <glyph glyph-name="uni05F4" unicode="&#x5f4;" horiz-adv-x="345" 
d="M45 451l-4 1t-8 7.5t-4 20.5q0 19 6 25t8 6q1 1 14 11.5t15 35.5q-10 2 -17.5 5.5t-13.5 9.5q-9 9 -11 23.5t-2 28.5q1 16 3.5 31t17 25t47.5 10q38 0 54 -16q9 -9 11 -23.5t2 -28.5q0 -7 -0.5 -14t-1.5 -13q-4 -40 -20.5 -73t-41 -52.5t-54.5 -19.5zM198 451l-4 1
t-8 7.5t-4 20.5q0 19 6 25t8 6q1 1 14 11.5t15 35.5q-10 2 -17.5 5.5t-13.5 9.5q-9 9 -11 23.5t-2 28.5q1 16 3.5 31t17 25t47.5 10q38 0 54 -16q9 -9 11 -23.5t2 -28.5q0 -7 -0.5 -14t-1.5 -13q-4 -40 -20.5 -73t-41 -52.5t-54.5 -19.5z" />
    <glyph glyph-name="endash" unicode="&#x2013;" horiz-adv-x="552" 
d="M63 198q-13 0 -25 3.5t-20 15.5t-8 39t8 38.5t20.5 15t25.5 3.5h390q14 0 26 -3.5t19.5 -15.5t7.5 -39q0 -26 -7.5 -38t-19.5 -15.5t-28 -3.5h-389z" />
    <glyph glyph-name="emdash" unicode="&#x2014;" horiz-adv-x="679" 
d="M63 198q-13 0 -25 3.5t-20 15.5t-8 39t8 38.5t20.5 15t25.5 3.5h517q14 0 26 -3.5t19.5 -15.5t7.5 -39q0 -26 -7.5 -38t-19.5 -15.5t-28 -3.5h-516z" />
    <glyph glyph-name="quoteleft" unicode="&#x2018;" horiz-adv-x="184" 
d="M140 690l4 -1t8 -7t4 -21q0 -19 -6 -24.5t-8 -6.5q-1 -1 -13.5 -11t-15.5 -36q10 -2 17.5 -5.5t13.5 -9.5q9 -9 11 -23.5t2 -28.5q0 -16 -3 -31t-17 -25t-48 -10q-38 0 -54 16q-9 9 -11 23.5t-2 28.5q0 7 0.5 14t1.5 13q4 40 20.5 73t41.5 52.5t54 19.5z" />
    <glyph glyph-name="quoteright" unicode="&#x2019;" horiz-adv-x="178" 
d="M40 401l-4 1t-8 7.5t-4 20.5q0 19 6 25t8 6q1 1 14 11.5t15 35.5q-10 2 -17.5 5.5t-13.5 9.5q-9 9 -11 23.5t-2 28.5q1 16 3.5 31t17 25t47.5 10q38 0 54 -16q9 -9 11 -23.5t2 -28.5q0 -7 -0.5 -14t-1.5 -13q-4 -40 -20.5 -73t-41 -52.5t-54.5 -19.5z" />
    <glyph glyph-name="quotesinglbase" unicode="&#x201a;" horiz-adv-x="186" 
d="M42 -112l-4 1t-8 7.5t-4 20.5q0 19 6 25t8 6q1 1 14 11.5t15 35.5q-10 2 -17.5 5.5t-13.5 9.5q-9 9 -11 23.5t-2 28.5q1 16 3.5 31t17 25t47.5 10q38 0 54 -16q9 -9 11 -23.5t2 -28.5q0 -7 -0.5 -14t-1.5 -13q-4 -40 -20.5 -73t-41 -52.5t-54.5 -19.5z" />
    <glyph glyph-name="quotedblleft" unicode="&#x201c;" horiz-adv-x="345" 
d="M295 690l4 -1t8 -7t4 -21q0 -19 -6 -24.5t-8 -6.5q-1 -1 -13.5 -11t-15.5 -36q10 -2 17.5 -5.5t13.5 -9.5q9 -9 11 -23.5t2 -28.5q0 -16 -3 -31t-17 -25t-48 -10q-38 0 -54 16q-9 9 -11 23.5t-2 28.5q0 7 0.5 14t1.5 13q4 40 20.5 73t41.5 52.5t54 19.5zM146 690l4.5 -1
t8.5 -7t4 -21q0 -19 -6 -24.5t-9 -6.5q-1 -1 -13 -11t-16 -36q10 -2 17.5 -5.5t13.5 -9.5q10 -9 11.5 -23.5t1.5 -28.5q0 -16 -3 -31t-17 -25t-48 -10q-38 0 -53 16q-10 9 -11.5 23.5t-1.5 28.5q0 7 0.5 14t1.5 13q4 40 20 73t41 52.5t54 19.5z" />
    <glyph glyph-name="quotedblright" unicode="&#x201d;" horiz-adv-x="345" 
d="M45 451l-4 1t-8 7.5t-4 20.5q0 19 6 25t8 6q1 1 14 11.5t15 35.5q-10 2 -17.5 5.5t-13.5 9.5q-9 9 -11 23.5t-2 28.5q1 16 3.5 31t17 25t47.5 10q38 0 54 -16q9 -9 11 -23.5t2 -28.5q0 -7 -0.5 -14t-1.5 -13q-4 -40 -20.5 -73t-41 -52.5t-54.5 -19.5zM198 451l-4 1
t-8 7.5t-4 20.5q0 19 6 25t8 6q1 1 14 11.5t15 35.5q-10 2 -17.5 5.5t-13.5 9.5q-9 9 -11 23.5t-2 28.5q1 16 3.5 31t17 25t47.5 10q38 0 54 -16q9 -9 11 -23.5t2 -28.5q0 -7 -0.5 -14t-1.5 -13q-4 -40 -20.5 -73t-41 -52.5t-54.5 -19.5z" />
    <glyph glyph-name="quotedblbase" unicode="&#x201e;" horiz-adv-x="345" 
d="M49 -112l-4 1t-8 7.5t-4 20.5q0 19 6 25t8 6q1 1 14 11.5t15 35.5q-10 2 -17.5 5.5t-13.5 9.5q-9 9 -11 23.5t-2 28.5q1 16 3.5 31t17 25t47.5 10q38 0 54 -16q9 -9 11 -23.5t2 -28.5q0 -7 -0.5 -14t-1.5 -13q-4 -40 -20.5 -73t-41 -52.5t-54.5 -19.5zM201 -112l-4 1
t-8 7.5t-4 20.5q0 19 6 25t8 6q1 1 14 11.5t15 35.5q-10 2 -17.5 5.5t-13.5 9.5q-9 9 -11 23.5t-2 28.5q1 16 3.5 31t17 25t47.5 10q38 0 54 -16q9 -9 11 -23.5t2 -28.5q0 -7 -0.5 -14t-1.5 -13q-4 -40 -20.5 -73t-41 -52.5t-54.5 -19.5z" />
    <glyph glyph-name="dagger" unicode="&#x2020;" horiz-adv-x="487" 
d="M242 -194q-27 0 -39.5 8t-16 21.5t-3.5 30.5v772q0 16 3.5 29.5t16 21t40.5 7.5t40.5 -8.5t15.5 -22t3 -30.5v-770q0 -16 -3.5 -29.5t-16 -21.5t-40.5 -8zM86 365q-14 0 -26.5 3t-20.5 15t-8 38q0 27 8 39t21 15t27 3l156 -6l164 6q15 0 27.5 -3t20 -15t7.5 -39
q0 -26 -7.5 -38t-20 -15t-28.5 -3l-163 5z" />
    <glyph glyph-name="daggerdbl" unicode="&#x2021;" horiz-adv-x="487" 
d="M242 -194q-27 0 -39.5 8t-16 21.5t-3.5 30.5v772q0 16 3.5 29.5t16 21t40.5 7.5t40.5 -8.5t15.5 -22t3 -30.5v-770q0 -16 -3.5 -29.5t-16 -21.5t-40.5 -8zM86 70q-14 0 -26.5 3t-20.5 15.5t-8 38.5t8 38t21 15.5t27 2.5l156 -5l164 5q15 1 27.5 -2.5t20 -15.5t7.5 -39
q0 -26 -7.5 -38t-20 -15t-28.5 -3l-163 5zM86 365q-14 0 -26.5 3t-20.5 15t-8 38q0 27 8 39t21 15t27 3l156 -6l164 6q15 0 27.5 -3t20 -15t7.5 -39q0 -26 -7.5 -38t-20 -15t-28.5 -3l-163 5z" />
    <glyph glyph-name="bullet" unicode="&#x2022;" horiz-adv-x="263" 
d="M132 192q-34 0 -56.5 11.5t-34 34t-11.5 56.5t11.5 56.5t34 34t56.5 11.5t56.5 -11.5t34 -34t11.5 -56.5q0 -33 -11.5 -56t-34 -34.5t-56.5 -11.5z" />
    <glyph glyph-name="ellipsis" unicode="&#x2026;" horiz-adv-x="676" 
d="M338 -10q-37 0 -52 14.5t-15 51.5q0 26 6.5 40.5t21.5 21.5t40 7q37 0 52 -15t15 -53q0 -25 -6.5 -40t-21 -21t-40.5 -6zM563 -10q-37 0 -52 14.5t-15 51.5q0 26 6.5 40.5t21.5 21.5t40 7q37 0 52 -15t15 -53q0 -25 -6.5 -40t-21 -21t-40.5 -6zM113 -10q-37 0 -52 14.5
t-15 51.5q0 26 6.5 40.5t21.5 21.5t40 7q37 0 52 -15t15 -53q0 -25 -6.5 -40t-21 -21t-40.5 -6z" />
    <glyph glyph-name="perthousand" unicode="&#x2030;" horiz-adv-x="1190" 
d="M205 -38q-11 6 -17 13.5t-5.5 18.5t8.5 25l359 677q8 14 15.5 21t17.5 7t22 -7q13 -7 18.5 -15t4 -18t-9.5 -24l-360 -679q-7 -14 -14.5 -20t-17 -5.5t-21.5 6.5zM204 321q-79 0 -126.5 50.5t-47.5 133.5q0 84 47 135t126 51q80 0 126.5 -50t46.5 -135q0 -86 -46 -135.5
t-126 -49.5zM203 413q40 0 62.5 25t22.5 70q0 44 -22 67.5t-63 23.5t-63.5 -24t-22.5 -68q0 -45 22.5 -69.5t63.5 -24.5zM611 -11q-78 0 -126 51t-48 134q0 84 47.5 134.5t126.5 50.5t125.5 -49.5t46.5 -134.5q0 -87 -46 -136.5t-126 -49.5zM611 81q40 0 62 25t22 70
q0 44 -22 67.5t-62 23.5q-41 0 -63.5 -24t-22.5 -68q0 -45 22.5 -69.5t63.5 -24.5zM989 -11q-78 0 -126 51t-48 134q0 84 47.5 134.5t126.5 50.5t125.5 -49.5t46.5 -134.5q0 -87 -46 -136.5t-126 -49.5zM989 81q40 0 62 25.5t22 69.5q0 45 -22 68t-63 23t-63 -24t-22 -68
q0 -45 22.5 -69.5t63.5 -24.5z" />
    <glyph glyph-name="guilsinglleft" unicode="&#x2039;" horiz-adv-x="353" 
d="M310 8q-15 -16 -27.5 -21.5t-24.5 -0.5t-27 19l-188 187q-10 10 -14.5 20t-4.5 20q0 11 4.5 20.5t14.5 19.5l189 188q15 15 27 19t24 -1.5t27 -20.5q17 -16 19.5 -28.5t-4.5 -24t-22 -26.5l-146 -146l146 -146q15 -15 22.5 -26.5t4 -23.5t-19.5 -28z" />
    <glyph glyph-name="guilsinglright" unicode="&#x203a;" horiz-adv-x="341" 
d="M38 8q-16 16 -19.5 28t4 23.5t22.5 26.5l146 146l-146 146q-14 15 -21.5 26.5t-4.5 24t19 28.5q15 15 27 20.5t24.5 1.5t26.5 -19l189 -188q10 -10 14.5 -19.5t4.5 -20.5q0 -10 -4.5 -20t-14.5 -20l-188 -187q-14 -14 -26 -19t-24.5 0.5t-28.5 21.5z" />
    <glyph glyph-name="fraction" unicode="&#x2044;" horiz-adv-x="488" 
d="M44 -27q-17 9 -21.5 18t-1 19.5t9.5 21.5l357 675q7 12 13.5 19.5t17 9t25.5 -7.5q17 -9 21 -18t0.5 -18.5t-9.5 -22.5l-358 -675q-5 -11 -12 -19t-16.5 -9t-25.5 7z" />
    <glyph glyph-name="newsheqel" unicode="&#x20aa;" horiz-adv-x="939" 
d="M566 -16q-94 0 -161 35t-102 101t-35 158v36q0 16 3.5 30t16 22.5t40.5 8.5q27 0 39.5 -8.5t16 -22.5t3.5 -31v-30q0 -42 10 -75.5t31 -56.5t56 -35t84 -12q61 0 102.5 24t62.5 69.5t21 110.5v220q0 15 4 27t16.5 20t39.5 8q28 0 40.5 -8.5t16 -22.5t3.5 -30v-218
q0 -64 -19 -121.5t-57.5 -102t-96 -70.5t-135.5 -26zM127 -9q-28 0 -40.5 8.5t-16.5 22t-4 29.5v472q0 15 4 29t16.5 22t40.5 8l214 1q72 0 125.5 -14t89.5 -47t54 -87.5t18 -134.5v-35q0 -17 -3 -32t-15.5 -25t-39.5 -10t-40 9t-16.5 23t-3.5 28v39q0 61 -16 97t-49.5 52
t-85.5 16h-171v-410q0 -17 -4 -30.5t-16.5 -22t-40.5 -8.5z" />
    <glyph glyph-name="Euro" unicode="&#x20ac;" horiz-adv-x="581" 
d="M378 -9q-45 0 -83 11.5t-69 33.5t-54 53.5t-37 71.5t-18 87q-2 36 -3 72t-0.5 71.5t1.5 69.5q5 52 21.5 93.5t42 71.5t57 50t68 30t74.5 10h113q15 0 27.5 -3.5t20 -16t7.5 -40.5q0 -27 -8 -40t-21.5 -16t-30.5 -3h-108q-22 0 -42 -4.5t-37.5 -14.5t-30.5 -25
t-21.5 -35.5t-10.5 -47.5q-3 -36 -4 -73t0 -73.5t4 -71.5q3 -29 11 -52t20 -40t28.5 -28.5t37 -17t45.5 -5.5h109q17 0 30.5 -3.5t21 -16t7.5 -40.5q0 -26 -7 -38.5t-19.5 -16t-26.5 -3.5h-115zM74 235q-12 0 -22 2.5t-16 12t-6 30.5q0 20 6 29t16 11.5t21 2.5h379
q12 0 21.5 -2.5t15.5 -12t6 -29.5t-5.5 -29.5t-15.5 -12t-23 -2.5h-377zM74 392q-12 0 -22 2.5t-16 12t-6 29.5t6 29.5t16 12t21 2.5h379q12 0 21.5 -2.5t15.5 -12t6 -30.5q0 -20 -5.5 -29t-15.5 -11.5t-23 -2.5h-377z" />
    <glyph glyph-name="trademark" unicode="&#x2122;" horiz-adv-x="806" 
d="M197 211q-21 0 -31 6.5t-13.5 16.5t-3.5 21v253h-82q-10 0 -20 3t-16 13t-6 30q0 22 6 31.5t15 12.5t18 3h264q11 0 19.5 -2.5t14 -12.5t5.5 -32q0 -46 -40 -46h-83v-253q0 -11 -3 -21.5t-13 -16.5t-31 -6zM436 211q-20 0 -30 6t-13 16.5t-3 21.5v300q0 9 3.5 20t14 19
t31.5 8q18 0 27.5 -6.5t14.5 -12.5l99 -147l98 146q4 7 14.5 13t27.5 6q22 0 32.5 -8t14 -20t3.5 -23v-296q0 -11 -3.5 -21t-13 -16t-29.5 -6q-21 0 -31.5 6t-14 15.5t-3.5 21.5v162l-67 -92q-6 -5 -13.5 -8.5t-14.5 -3.5t-14.5 3t-14.5 10l-66 92v-162q0 -11 -3.5 -21.5
t-13.5 -16.5t-32 -6z" />
    <glyph glyph-name="minus" unicode="&#x2212;" horiz-adv-x="556" 
d="M84 198q-14 0 -26 3t-20 15.5t-8 39.5t7.5 38.5t20 15t25.5 3.5h390q14 0 26.5 -3.5t20 -15.5t7.5 -39t-8 -39t-20 -15t-27 -3h-388z" />
    <glyph glyph-name="uniFB2A" unicode="&#xfb2a;" horiz-adv-x="724" 
d="M358 -16q-75 0 -133 26t-97 71t-59 103.5t-20 122.5v216q0 16 4 29.5t16.5 22t40.5 8.5q27 0 40 -8.5t16.5 -22t3.5 -30.5v-215q0 -63 22.5 -108t65 -70t103.5 -25q66 0 109 27t63.5 73t20.5 104v220q0 15 4 27t17 20t40 8t40 -8.5t16.5 -22.5t3.5 -30v-217
q0 -64 -20.5 -122t-60.5 -102.5t-99 -70.5t-137 -26zM166 128l-10 81h33q22 0 41.5 16.5t34.5 46t24 68.5t10 84l4 103q1 15 5 28t16.5 20.5t39.5 7.5q28 0 41 -8t16.5 -21.5t2.5 -29.5l-5 -100q-4 -65 -19 -119.5t-41.5 -94t-64.5 -61t-89 -21.5h-39zM608 658
q-17 0 -29.5 13.5t-12.5 32.5q0 18 13 31t29 13q17 0 30 -13t13 -31q0 -19 -12.5 -32.5t-30.5 -13.5z" />
    <glyph glyph-name="uniFB2B" unicode="&#xfb2b;" horiz-adv-x="724" 
d="M358 -16q-75 0 -133 26t-97 71t-59 103.5t-20 122.5v216q0 16 4 29.5t16.5 22t40.5 8.5q27 0 40 -8.5t16.5 -22t3.5 -30.5v-215q0 -63 22.5 -108t65 -70t103.5 -25q66 0 109 27t63.5 73t20.5 104v220q0 15 4 27t17 20t40 8t40 -8.5t16.5 -22.5t3.5 -30v-217
q0 -64 -20.5 -122t-60.5 -102.5t-99 -70.5t-137 -26zM166 128l-10 81h33q22 0 41.5 16.5t34.5 46t24 68.5t10 84l4 103q1 15 5 28t16.5 20.5t39.5 7.5q28 0 41 -8t16.5 -21.5t2.5 -29.5l-5 -100q-4 -65 -19 -119.5t-41.5 -94t-64.5 -61t-89 -21.5h-39zM116 658
q-17 0 -29.5 13.5t-12.5 32.5q0 18 13 31t29 13q17 0 30 -13t13 -31q0 -19 -12.5 -32.5t-30.5 -13.5z" />
    <glyph glyph-name="uniFB2C" unicode="&#xfb2c;" horiz-adv-x="724" 
d="M358 -16q-75 0 -133 26t-97 71t-59 103.5t-20 122.5v216q0 16 4 29.5t16.5 22t40.5 8.5q27 0 40 -8.5t16.5 -22t3.5 -30.5v-215q0 -63 22.5 -108t65 -70t103.5 -25q66 0 109 27t63.5 73t20.5 104v220q0 15 4 27t17 20t40 8t40 -8.5t16.5 -22.5t3.5 -30v-217
q0 -64 -20.5 -122t-60.5 -102.5t-99 -70.5t-137 -26zM166 128l-10 81h33q22 0 41.5 16.5t34.5 46t24 68.5t10 84l4 103q1 15 5 28t16.5 20.5t39.5 7.5q28 0 41 -8t16.5 -21.5t2.5 -29.5l-5 -100q-4 -65 -19 -119.5t-41.5 -94t-64.5 -61t-89 -21.5h-39zM462 232
q-16 0 -26.5 12t-10.5 29q0 16 11.5 27.5t25.5 11.5q15 0 26.5 -11.5t11.5 -27.5q0 -17 -10.5 -29t-27.5 -12zM608 658q-17 0 -29.5 13.5t-12.5 32.5q0 18 13 31t29 13q17 0 30 -13t13 -31q0 -19 -12.5 -32.5t-30.5 -13.5z" />
    <glyph glyph-name="uniFB2D" unicode="&#xfb2d;" horiz-adv-x="724" 
d="M358 -16q-75 0 -133 26t-97 71t-59 103.5t-20 122.5v216q0 16 4 29.5t16.5 22t40.5 8.5q27 0 40 -8.5t16.5 -22t3.5 -30.5v-215q0 -63 22.5 -108t65 -70t103.5 -25q66 0 109 27t63.5 73t20.5 104v220q0 15 4 27t17 20t40 8t40 -8.5t16.5 -22.5t3.5 -30v-217
q0 -64 -20.5 -122t-60.5 -102.5t-99 -70.5t-137 -26zM166 128l-10 81h33q22 0 41.5 16.5t34.5 46t24 68.5t10 84l4 103q1 15 5 28t16.5 20.5t39.5 7.5q28 0 41 -8t16.5 -21.5t2.5 -29.5l-5 -100q-4 -65 -19 -119.5t-41.5 -94t-64.5 -61t-89 -21.5h-39zM462 232
q-16 0 -26.5 12t-10.5 29q0 16 11.5 27.5t25.5 11.5q15 0 26.5 -11.5t11.5 -27.5q0 -17 -10.5 -29t-27.5 -12zM116 658q-17 0 -29.5 13.5t-12.5 32.5q0 18 13 31t29 13q17 0 30 -13t13 -31q0 -19 -12.5 -32.5t-30.5 -13.5z" />
    <glyph glyph-name="uniFB2E" unicode="&#xfb2e;" horiz-adv-x="641" 
d="M570 1q-23 -17 -38 -17.5t-25.5 8.5t-21.5 21l-382 459q-12 16 -20 30.5t-4 30t29 33.5q23 18 38 17.5t27.5 -12t25.5 -28.5l382 -459q10 -12 15.5 -25t0.5 -27t-27 -31zM83 -7q-27 6 -36.5 18.5t-9 28.5t5.5 34l110 372l100 -46l-94 -356q-5 -21 -12 -35t-21 -18.5
t-43 2.5zM444 169l-47 53l81 304q5 18 12 32t22.5 19.5t44.5 -3.5q27 -8 35.5 -21t6 -28.5t-7.5 -34.5l-60 -221q-7 -21 -18 -36.5t-27.5 -29.5t-41.5 -34zM275 -119q-29 0 -29 29v4q0 13 7.5 21t21.5 8h112q28 0 28 -29v-4q0 -29 -28 -29h-112z" />
    <glyph glyph-name="uniFB2F" unicode="&#xfb2f;" horiz-adv-x="641" 
d="M570 1q-23 -17 -38 -17.5t-25.5 8.5t-21.5 21l-382 459q-12 16 -20 30.5t-4 30t29 33.5q23 18 38 17.5t27.5 -12t25.5 -28.5l382 -459q10 -12 15.5 -25t0.5 -27t-27 -31zM83 -7q-27 6 -36.5 18.5t-9 28.5t5.5 34l110 372l100 -46l-94 -356q-5 -21 -12 -35t-21 -18.5
t-43 2.5zM444 169l-47 53l81 304q5 18 12 32t22.5 19.5t44.5 -3.5q27 -8 35.5 -21t6 -28.5t-7.5 -34.5l-60 -221q-7 -21 -18 -36.5t-27.5 -29.5t-41.5 -34zM329 -225q-15 0 -22 8.5t-6 22.5l10 75h-46q-29 0 -29 29v4q0 13 8 21t21 8h131q14 0 21.5 -8t7.5 -21v-4
q0 -29 -29 -29h-46l8 -76q2 -13 -5 -21.5t-21 -8.5h-3z" />
    <glyph glyph-name="uniFB30" unicode="&#xfb30;" horiz-adv-x="641" 
d="M570 1q-23 -17 -38 -17.5t-25.5 8.5t-21.5 21l-382 459q-12 16 -20 30.5t-4 30t29 33.5q23 18 38 17.5t27.5 -12t25.5 -28.5l382 -459q10 -12 15.5 -25t0.5 -27t-27 -31zM83 -7q-27 6 -36.5 18.5t-9 28.5t5.5 34l110 372l100 -46l-94 -356q-5 -21 -12 -35t-21 -18.5
t-43 2.5zM444 169l-47 53l81 304q5 18 12 32t22.5 19.5t44.5 -3.5q27 -8 35.5 -21t6 -28.5t-7.5 -34.5l-60 -221q-7 -21 -18 -36.5t-27.5 -29.5t-41.5 -34zM289 59q-16 0 -26.5 12t-10.5 29q0 16 11.5 27.5t25.5 11.5q15 0 26.5 -11.5t11.5 -27.5q0 -17 -10.5 -29t-27.5 -12
z" />
    <glyph glyph-name="uniFB31" unicode="&#xfb31;" horiz-adv-x="629" 
d="M446 -10q-26 0 -39 7.5t-17 20.5t-4 27v219q0 50 -10.5 87t-31 62t-51 37t-72.5 12h-100q-17 0 -31 4t-22.5 17t-8.5 40q0 28 8.5 40.5t22.5 16t30 3.5h98q72 0 126 -19.5t90 -59t54 -99t18 -138.5v-215q0 -17 -3.5 -31t-16 -22.5t-40.5 -8.5zM111 -10q-17 0 -31 4
t-22.5 17t-8.5 40q0 28 8.5 40.5t22.5 16t30 3.5h419q17 0 30.5 -3.5t22 -16t8.5 -40.5q0 -27 -8.5 -40t-22.5 -17t-31 -4h-417zM205 259q-16 0 -26.5 12t-10.5 29q0 16 11.5 27.5t25.5 11.5q15 0 26.5 -11.5t11.5 -27.5q0 -17 -10.5 -29t-27.5 -12z" />
    <glyph glyph-name="uniFB32" unicode="&#xfb32;" horiz-adv-x="447" 
d="M343 -9q-26 0 -38.5 7.5t-16 20t-5.5 27.5l-34 265q-4 33 -7 60.5t-9.5 48.5t-19 33t-37.5 13q-23 1 -38.5 2t-25.5 5q-10 6 -14.5 16t-4.5 26l2 31q2 21 12.5 30.5t41.5 8.5q3 0 16 -0.5t26 -1.5q49 -3 79.5 -21t47.5 -49t26.5 -73t17.5 -94l42 -295q5 -30 -10 -45
t-51 -15zM99 -6q-20 -2 -36 0t-25 13t-10 35q-1 37 8.5 50.5t37.5 14.5q25 1 49.5 6.5t48.5 15.5t48 24t48.5 31.5t49.5 36.5l1 -76q-19 -23 -38 -44t-39 -39t-42.5 -32t-47 -23.5t-53.5 -12.5zM129 263q-16 0 -26.5 12t-10.5 29q0 16 11.5 27.5t25.5 11.5q15 0 26.5 -11.5
t11.5 -27.5q0 -17 -10.5 -29t-27.5 -12z" />
    <glyph glyph-name="uniFB33" unicode="&#xfb33;" horiz-adv-x="603" 
d="M101 462q-17 0 -31 4t-22.5 17t-8.5 40q0 28 8.5 40.5t22.5 16t30 3.5h398q17 0 30.5 -3.5t22 -16t8.5 -40.5q0 -27 -8.5 -40t-22.5 -17t-31 -4h-396zM389 -9q-27 0 -39.5 8.5t-16 22.5t-3.5 30v435l120 -8v-434q0 -14 -4 -26.5t-16.5 -20t-40.5 -7.5zM173 256
q-16 0 -26.5 12t-10.5 29q0 16 11.5 27.5t25.5 11.5q15 0 26.5 -11.5t11.5 -27.5q0 -17 -10.5 -29t-27.5 -12z" />
    <glyph glyph-name="uniFB34" unicode="&#xfb34;" horiz-adv-x="603" 
d="M504 -9q-27 0 -39.5 7.5t-16.5 20t-4 26.5v219q0 67 -18 111t-54.5 65.5t-92.5 21.5h-173q-17 0 -31 4t-22.5 17t-8.5 40q0 28 8.5 40.5t22.5 16t30 3.5h171q96 0 160 -35t96 -105t32 -176v-215q0 -16 -3.5 -30t-16 -22.5t-40.5 -8.5zM114 -9q-27 0 -39.5 8.5t-16.5 22.5
t-4 29v215q0 15 4 29t16.5 22t40.5 8q27 0 39.5 -8.5t16 -22t3.5 -29.5v-215q0 -15 -3.5 -28.5t-16 -22t-40.5 -8.5zM293 256q-16 0 -26.5 12t-10.5 29q0 16 11.5 27.5t25.5 11.5q15 0 26.5 -11.5t11.5 -27.5q0 -17 -10.5 -29t-27.5 -12z" />
    <glyph glyph-name="uniFB35" unicode="&#xfb35;" horiz-adv-x="329" 
d="M208 -9q-27 0 -39.5 8.5t-16.5 22.5t-4 29v473q0 15 4 29t16.5 22t40.5 8q27 0 39.5 -8.5t16 -22t3.5 -29.5v-473q0 -15 -3.5 -28.5t-16 -22t-40.5 -8.5zM60 275q-16 0 -26.5 12t-10.5 29q0 16 11.5 27.5t25.5 11.5q15 0 26.5 -11.5t11.5 -27.5q0 -17 -10.5 -29
t-27.5 -12z" />
    <glyph glyph-name="uniFB36" unicode="&#xfb36;" horiz-adv-x="449" 
d="M253 -9q-22 0 -34 5t-17 14.5t-7 21.5t-4 25l-26 183q-7 48 -9.5 92.5t5 82.5t28.5 66l104 -7q-11 -11 -16.5 -29.5t-6 -42.5t1.5 -51.5t5.5 -56t7.5 -55.5l25 -182q5 -35 -7.5 -50.5t-49.5 -15.5zM114 462q-16 0 -30 4t-22.5 17t-8.5 40q0 28 8.5 40.5t22 16t29.5 3.5
h234q17 0 30.5 -3.5t22 -16t8.5 -40.5q0 -27 -8.5 -40t-22.5 -17t-31 -4h-232zM50 275q-16 0 -26.5 12t-10.5 29q0 16 11.5 27.5t25.5 11.5q15 0 26.5 -11.5t11.5 -27.5q0 -17 -10.5 -29t-27.5 -12z" />
    <glyph glyph-name="uniFB38" unicode="&#xfb38;" horiz-adv-x="640" 
d="M319 -16q-68 0 -119.5 27t-86 74t-52 108.5t-17.5 131.5v198q0 16 4 29.5t16.5 22t40.5 8.5q27 0 40 -8.5t16.5 -22t3.5 -30.5v-197q0 -107 40.5 -163.5t116.5 -56.5q79 0 118 51.5t37 150.5q-1 73 -34 114t-87 41h-36q-14 0 -26 4t-18.5 17t-6.5 40t8.5 40t22 16.5
t29.5 3.5h31q72 0 126.5 -36t84 -102t26.5 -156q0 -68 -20 -124t-57 -96.5t-88 -62.5t-113 -22zM321 266q-16 0 -26.5 12t-10.5 29q0 16 11.5 27.5t25.5 11.5q15 0 26.5 -11.5t11.5 -27.5q0 -17 -10.5 -29t-27.5 -12z" />
    <glyph glyph-name="uniFB39" unicode="&#xfb39;" horiz-adv-x="307" 
d="M178 257q-27 0 -39.5 8.5t-16.5 22.5t-4 29v207q0 15 4 29t16.5 22t40.5 8q27 0 39.5 -8.5t16 -22t3.5 -29.5v-207q0 -15 -3.5 -28.5t-16 -22t-40.5 -8.5zM31 382q-16 0 -26.5 12t-10.5 29q0 16 11.5 27.5t25.5 11.5q15 0 26.5 -11.5t11.5 -27.5q0 -17 -10.5 -29
t-27.5 -12z" />
    <glyph glyph-name="uniFB3A" unicode="&#xfb3a;" horiz-adv-x="555" 
d="M451 -149q-27 0 -39.5 7.5t-16.5 20.5t-4 27v358q0 50 -10.5 87t-31 62t-51.5 37t-73 12h-124q-17 0 -31 4t-22.5 17t-8.5 40q0 28 8.5 40.5t22.5 16t30 3.5h122q73 0 127 -19.5t90 -59t54 -99t18 -138.5v-355q0 -16 -3.5 -30t-16 -22.5t-40.5 -8.5zM202 236
q-16 0 -26.5 12t-10.5 29q0 16 11.5 27.5t25.5 11.5q15 0 26.5 -11.5t11.5 -27.5q0 -17 -10.5 -29t-27.5 -12z" />
    <glyph glyph-name="uniFB3B" unicode="&#xfb3b;" horiz-adv-x="565" 
d="M249 -17q-55 0 -97.5 13.5t-71.5 30.5q-20 11 -31.5 25t-12.5 28q-1 8 3 20t11 23q10 17 20 25t22 8q10 0 19.5 -5.5t17.5 -12.5q25 -16 53 -25.5t63 -9.5q49 0 85 22.5t56 63t20 96.5q0 80 -39 128.5t-108 48.5h-138q-14 0 -26 4t-19 17t-7 40t8.5 40t23 16.5t29.5 3.5
h142q74 0 131 -38t89.5 -105.5t32.5 -154.5q0 -72 -22.5 -128t-61 -95t-88.5 -59t-104 -20zM234 265q-16 0 -26.5 12t-10.5 29q0 16 11.5 27.5t25.5 11.5q15 0 26.5 -11.5t11.5 -27.5q0 -17 -10.5 -29t-27.5 -12z" />
    <glyph glyph-name="uniFB3C" unicode="&#xfb3c;" horiz-adv-x="523" 
d="M194 -6q-32 17 -40 37t10 45q41 62 75 118t62 109t50.5 105.5t41.5 106.5l90 -72q-24 -71 -55 -137.5t-69 -135t-85 -148.5q-9 -13 -19 -24t-24.5 -13t-36.5 9zM480 436l-80 26h-286q-35 0 -50 14t-17 48l-7 154q-1 16 3 29t18 21.5t42 8.5q27 0 38.5 -9t14.5 -23t4 -30
l5 -92h230q40 0 64 -19.5t30 -52.5t-9 -75zM149 272q-16 0 -26.5 12t-10.5 29q0 16 11.5 27.5t25.5 11.5q15 0 26.5 -11.5t11.5 -27.5q0 -17 -10.5 -29t-27.5 -12z" />
    <glyph glyph-name="uniFB3E" unicode="&#xfb3e;" horiz-adv-x="665" 
d="M605 292v-241q0 -27 -4 -40t-16.5 -16.5t-39.5 -3.5h-217q-15 0 -29 3.5t-22.5 16.5t-8.5 40q0 28 8.5 40.5t22.5 16.5t30 4h156v177q0 63 -13.5 102t-40 58t-65.5 19q-35 0 -59.5 -14.5t-42 -40t-29 -58.5t-19.5 -70l-45 -232q-3 -16 -7 -30.5t-16 -23t-39 -8.5
q-37 0 -51 15t-8 46l62 324l43 -39q13 38 25.5 74.5t28.5 68.5t39 56.5t57 38.5t83 14q69 0 117.5 -34t74 -99.5t25.5 -163.5zM119 248l-68 259q-4 16 -4.5 31t10 26.5t38.5 17.5q30 7 44.5 0.5t20 -19.5t8.5 -26l45 -191zM353 256q-16 0 -26.5 12t-10.5 29q0 16 11.5 27.5
t25.5 11.5q15 0 26.5 -11.5t11.5 -27.5q0 -17 -10.5 -29t-27.5 -12z" />
    <glyph glyph-name="uniFB40" unicode="&#xfb40;" horiz-adv-x="439" 
d="M335 -9q-26 0 -39 7.5t-17 20t-4 26.5v248q0 57 -13 94.5t-39 56t-65 18.5h-28q-16 0 -30 4t-22.5 17t-8.5 40q0 28 8.5 40.5t22.5 16t29 3.5h26q81 0 134 -31.5t79.5 -95.5t26.5 -160v-244q0 -16 -3.5 -30t-16 -22.5t-40.5 -8.5zM111 -9q-16 0 -30 3.5t-22.5 16.5
t-8.5 40q0 28 8.5 40.5t22 16.5t29.5 4h231l-1 -121h-229zM141 256q-16 0 -26.5 12t-10.5 29q0 16 11.5 27.5t25.5 11.5q15 0 26.5 -11.5t11.5 -27.5q0 -17 -10.5 -29t-27.5 -12z" />
    <glyph glyph-name="uniFB41" unicode="&#xfb41;" horiz-adv-x="649" 
d="M334 -16q-87 0 -151 36.5t-99 104t-35 159.5v232q0 30 18.5 48.5t48.5 18.5h210q88 0 151.5 -36t98 -103t34.5 -159t-34 -159.5t-96 -104.5t-146 -37zM329 106q75 0 117.5 48t42.5 131q0 56 -19 95.5t-54.5 60.5t-85.5 21h-160v-177q0 -83 42.5 -131t116.5 -48zM324 263
q-16 0 -26.5 12t-10.5 29q0 16 11.5 27.5t25.5 11.5q15 0 26.5 -11.5t11.5 -27.5q0 -17 -10.5 -29t-27.5 -12z" />
    <glyph glyph-name="uniFB43" unicode="&#xfb43;" horiz-adv-x="569" 
d="M469 -149q-27 0 -39.5 8.5t-16 22.5t-3.5 29v386q0 56 -16 93.5t-46 56.5t-74 19h-42q-30 0 -53 -15t-33 -36.5t-3 -44.5q4 -18 11.5 -33t18.5 -27.5t28 -22.5q17 -12 19.5 -28t-8 -32t-34.5 -30q-18 -12 -43 -3.5t-49 32t-40 60.5t-17 82q-1 46 15.5 86t47.5 69.5
t72.5 46.5t91.5 17h15q82 0 140 -33.5t88.5 -97.5t30.5 -156v-390q0 -15 -3.5 -28.5t-16 -22t-41.5 -8.5zM294 219q-16 0 -26.5 12t-10.5 29q0 16 11.5 27.5t25.5 11.5q15 0 26.5 -11.5t11.5 -27.5q0 -17 -10.5 -29t-27.5 -12z" />
    <glyph glyph-name="uniFB44" unicode="&#xfb44;" horiz-adv-x="584" 
d="M116 -9q-15 0 -29 3.5t-22.5 16.5t-8.5 40q0 28 8.5 40.5t22.5 16.5t30 4h154q47 0 81 19.5t53 58t19 95.5v12q0 82 -36.5 125.5t-102.5 43.5h-36q-29 0 -52 -14t-34.5 -34.5t-5.5 -42.5q3 -24 13.5 -41t30.5 -29q14 -9 15.5 -22.5t-5 -27t-16 -24.5t-17.5 -14
q-16 -11 -38.5 -4t-45 27t-37.5 52t-17 72q-2 47 13.5 87.5t46 71t72 47.5t90.5 17h20q82 0 141 -34t90.5 -98t31.5 -155v-18q0 -93 -35 -158t-98.5 -99t-148.5 -34h-147zM292 247q-16 0 -26.5 12t-10.5 29q0 16 11.5 27.5t25.5 11.5q15 0 26.5 -11.5t11.5 -27.5
q0 -17 -10.5 -29t-27.5 -12z" />
    <glyph glyph-name="uniFB46" unicode="&#xfb46;" horiz-adv-x="582" 
d="M444 -9l-85 107l-291 392q-17 24 -11.5 42.5t29.5 35.5q23 17 38 17.5t26.5 -8.5t20.5 -23l286 -396q12 -16 21 -29t15 -24q9 -15 9.5 -35.5t-6.5 -38.5t-20.5 -29.5t-31.5 -10.5zM101 -9q-16 0 -30 3.5t-22.5 16.5t-8.5 40q0 28 8.5 40.5t22 16.5t29.5 4h348l3 -121
h-350zM372 201l-82 67l129 286q8 13 17.5 21.5t25 9t39.5 -13.5q23 -13 29 -27t1.5 -28t-12.5 -29zM154 166q-16 0 -26.5 12t-10.5 29q0 16 11.5 27.5t25.5 11.5q15 0 26.5 -11.5t11.5 -27.5q0 -17 -10.5 -29t-27.5 -12z" />
    <glyph glyph-name="uniFB47" unicode="&#xfb47;" horiz-adv-x="602" 
d="M345 -9q-35 12 -46.5 29.5t-0.5 44.5q13 36 29.5 80t34 92.5t35 98.5t33 96.5t27.5 86.5l102 -70q-10 -38 -24.5 -82t-29.5 -90t-30.5 -90.5t-29.5 -83.5t-26 -68q-6 -15 -14.5 -28t-22.5 -18t-37 2zM123 -172q-27 0 -39.5 8.5t-16.5 22.5t-4 29v401q0 16 4 29.5t16.5 22
t40.5 8.5q27 0 39.5 -8.5t16 -22t3.5 -30.5v-401q0 -15 -3.5 -28.5t-16 -22t-40.5 -8.5zM556 437l-99 26h-76h-270q-17 0 -31 3.5t-22.5 17t-8.5 40.5q0 28 8.5 40.5t22.5 16t30 3.5l347 -1q45 0 72 -19t34.5 -52t-7.5 -75zM287 299q-16 0 -26.5 12t-10.5 29q0 16 11.5 27.5
t25.5 11.5q15 0 26.5 -11.5t11.5 -27.5q0 -17 -10.5 -29t-27.5 -12z" />
    <glyph glyph-name="uniFB48" unicode="&#xfb48;" horiz-adv-x="540" 
d="M422 -9q-27 0 -40 7.5t-17 20t-4 26.5v219q0 50 -10 87t-31 62t-51.5 37t-72.5 12h-110q-16 0 -30 4t-22.5 17t-8.5 40q0 28 8.5 40.5t22 16t29.5 3.5h108q73 0 127 -19.5t89.5 -59t53.5 -99t18 -138.5v-215q0 -16 -3.5 -30t-16 -22.5t-39.5 -8.5zM164 227
q-16 0 -26.5 12t-10.5 29q0 16 11.5 27.5t25.5 11.5q15 0 26.5 -11.5t11.5 -27.5q0 -17 -10.5 -29t-27.5 -12z" />
    <glyph glyph-name="uniFB49" unicode="&#xfb49;" horiz-adv-x="724" 
d="M358 -16q-75 0 -133 26t-97 71t-59 103.5t-20 122.5v216q0 16 4 29.5t16.5 22t40.5 8.5q27 0 40 -8.5t16.5 -22t3.5 -30.5v-215q0 -63 22.5 -108t65 -70t103.5 -25q66 0 109 27t63.5 73t20.5 104v220q0 15 4 27t17 20t40 8t40 -8.5t16.5 -22.5t3.5 -30v-217
q0 -64 -20.5 -122t-60.5 -102.5t-99 -70.5t-137 -26zM166 128l-10 81h33q22 0 41.5 16.5t34.5 46t24 68.5t10 84l4 103q1 15 5 28t16.5 20.5t39.5 7.5q28 0 41 -8t16.5 -21.5t2.5 -29.5l-5 -100q-4 -65 -19 -119.5t-41.5 -94t-64.5 -61t-89 -21.5h-39zM462 232
q-16 0 -26.5 12t-10.5 29q0 16 11.5 27.5t25.5 11.5q15 0 26.5 -11.5t11.5 -27.5q0 -17 -10.5 -29t-27.5 -12z" />
    <glyph glyph-name="uniFB4A" unicode="&#xfb4a;" horiz-adv-x="702" 
d="M106 -9q-17 0 -31 3.5t-22.5 16.5t-8.5 40q0 28 8.5 40.5t22.5 16.5t30 4h62v389l66 -39q-31 -3 -56.5 -4t-43.5 3t-27.5 15.5t-9.5 33.5q0 39 18 55t65 16l172 2q99 1 165 -34t99 -105.5t33 -176.5v-215q0 -16 -3.5 -30t-16 -22.5t-39.5 -8.5t-40 7.5t-17 20t-4 26.5
v219q0 67 -18 111t-54.5 65.5t-92.5 21.5h-74v-392q0 -38 -15.5 -58.5t-45.5 -20.5h-122zM397 256q-16 0 -26.5 12t-10.5 29q0 16 11.5 27.5t25.5 11.5q15 0 26.5 -11.5t11.5 -27.5q0 -17 -10.5 -29t-27.5 -12z" />
    <glyph glyph-name="uniFB4B" unicode="&#xfb4b;" horiz-adv-x="248" 
d="M124 -9q-27 0 -39.5 8.5t-16.5 22.5t-4 29v473q0 15 4 29t16.5 22t40.5 8q27 0 39.5 -8.5t16 -22t3.5 -29.5v-473q0 -15 -3.5 -28.5t-16 -22t-40.5 -8.5zM19 662q-18 0 -30 13.5t-12 32.5q0 18 13 31t29 13q17 0 30 -13t13 -31q0 -19 -12 -32.5t-31 -13.5z" />
    </font>
</defs>
</svg>
